{"glyphs":{"0":{"ha":511,"x_min":88,"x_max":561,"o":"m 213 -11 q 89 144 89 -11 q 153 379 89 251 q 240 501 193 458 q 328 576 281 538 q 443 614 375 614 q 560 450 560 614 q 531 292 560 376 q 417 104 488 169 q 372 68 403 92 q 324 28 340 44 q 213 -11 283 -11 m 439 203 q 492 417 492 311 q 422 553 492 524 q 370 561 400 561 q 306 531 340 561 q 215 401 250 485 q 169 267 179 318 q 160 183 160 215 q 222 47 160 78 q 275 35 246 35 q 338 60 304 35 q 439 203 394 101 z "},"1":{"ha":338,"x_min":11,"x_max":411,"o":"m 182 494 q 229 522 193 501 q 289 559 265 543 q 357 602 313 575 q 406 629 401 629 q 411 623 411 629 q 406 608 411 617 q 286 274 361 521 q 226 56 226 94 q 258 22 226 31 q 303 14 289 14 q 319 14 317 14 l 304 -3 q 174 8 276 6 q 11 -3 138 7 l 24 15 q 47 14 32 14 q 97 23 61 14 q 150 64 132 32 q 226 280 167 94 q 290 488 286 465 q 290 515 293 510 q 273 526 285 526 q 235 506 261 526 q 199 478 208 486 q 171 457 176 458 l 182 494 z "},"2":{"ha":460,"x_min":29,"x_max":567,"o":"m 346 0 l 225 4 q 29 -7 192 4 q 215 161 138 86 q 301 243 293 236 q 328 269 308 250 q 358 298 349 288 q 386 327 368 308 q 415 358 404 346 q 439 389 425 371 q 461 419 453 407 q 494 504 494 474 q 474 559 494 535 q 401 583 454 583 q 396 583 399 583 q 309 560 346 583 q 258 490 272 536 q 247 433 244 443 l 218 418 q 250 564 246 510 q 281 593 250 581 q 402 610 322 610 q 513 596 482 610 q 565 517 565 572 q 553 453 565 492 q 503 372 542 415 q 415 288 464 329 q 331 219 365 246 q 154 82 244 150 q 131 55 131 64 q 239 46 131 46 q 383 67 347 46 q 431 108 403 78 q 467 156 458 139 l 479 151 q 427 67 446 107 q 391 13 408 26 q 346 0 374 0 z "},"3":{"ha":436,"x_min":46,"x_max":539,"o":"m 376 332 q 478 239 478 322 q 460 167 478 217 q 415 85 443 118 q 174 -12 335 -12 q 60 8 96 -12 q 46 24 46 17 q 54 47 46 31 q 85 149 63 64 l 115 161 q 103 126 113 157 q 94 74 94 94 q 115 33 94 53 q 186 14 136 14 q 326 65 274 14 q 400 185 379 115 q 410 217 410 206 q 408 240 410 228 q 401 267 406 253 q 379 292 396 282 q 348 307 363 301 q 310 317 333 313 q 225 321 276 321 l 243 343 q 465 476 433 375 q 471 515 471 494 q 451 559 471 535 q 378 583 432 583 q 372 583 375 583 q 256 531 296 583 q 231 476 240 508 q 224 433 221 443 l 194 418 q 226 564 222 510 q 257 593 226 581 q 378 610 299 610 q 490 596 458 610 q 538 518 538 574 q 532 486 538 501 q 371 349 503 393 q 363 335 339 338 q 376 332 364 333 z "},"4":{"ha":560,"x_min":64,"x_max":601,"o":"m 463 176 l 413 178 q 384 67 388 89 q 392 35 381 46 q 419 19 403 24 q 476 14 451 14 l 460 -3 q 329 8 435 4 q 168 -3 293 7 l 181 15 q 202 14 188 14 q 252 23 217 14 q 303 58 288 32 q 350 179 318 85 l 271 179 q 126 173 185 176 q 66 172 68 169 q 64 175 64 174 q 78 186 64 176 q 112 214 93 196 q 161 265 131 232 q 283 393 183 289 q 406 525 382 497 q 462 583 447 579 q 511 603 476 588 q 555 619 546 619 q 564 616 564 619 q 563 608 564 613 q 442 274 518 522 l 426 228 q 497 243 482 232 q 549 284 519 254 q 588 331 579 314 l 601 326 q 543 235 560 271 q 463 176 514 176 m 178 251 q 169 235 169 242 q 185 226 169 228 q 290 222 246 222 q 364 224 333 222 l 428 421 q 451 511 451 493 q 447 532 451 529 q 178 251 421 515 z "},"5":{"ha":460,"x_min":46,"x_max":588,"o":"m 294 604 l 321 601 q 582 604 510 604 q 588 594 588 604 q 572 557 588 585 q 544 500 556 529 q 519 447 532 471 l 500 451 l 532 514 q 539 533 539 525 q 493 554 539 554 q 335 551 363 554 q 297 532 307 549 q 206 343 247 435 q 332 369 256 369 q 486 263 486 369 q 474 192 486 232 q 378 47 444 100 q 174 -12 299 -12 q 60 8 99 -12 q 46 24 46 17 q 54 47 46 31 q 85 149 63 64 l 115 161 q 103 126 113 157 q 94 74 94 94 q 115 33 94 53 q 186 14 136 14 q 322 64 267 14 q 399 181 378 114 q 410 248 410 217 q 392 300 410 279 q 300 333 364 333 q 175 313 236 333 q 160 310 161 308 q 178 346 160 313 q 279 590 207 407 q 294 604 285 604 z "},"6":{"ha":467,"x_min":86,"x_max":581,"o":"m 221 -6 q 86 135 86 -6 q 127 317 86 203 q 260 525 168 431 q 478 619 353 619 q 567 603 535 619 q 579 590 579 599 q 570 569 579 586 q 543 481 561 553 l 518 469 q 529 502 521 475 q 538 546 538 529 q 521 578 538 563 q 467 594 504 594 q 333 537 399 594 q 235 415 267 479 q 194 310 204 350 q 241 338 211 322 q 279 360 271 354 q 374 378 310 378 q 469 342 438 378 q 500 260 500 306 q 472 150 500 206 q 400 65 443 94 q 362 44 389 58 q 319 18 335 29 q 221 -6 286 -6 m 371 328 q 326 338 350 338 q 271 326 301 338 q 183 239 211 300 q 156 142 156 190 q 228 36 156 57 q 275 29 249 29 q 332 46 301 29 q 413 142 390 78 q 426 210 426 182 q 371 328 426 300 z "},"7":{"ha":431,"x_min":69,"x_max":610,"o":"m 557 601 l 604 608 q 610 606 610 608 q 606 599 610 603 q 325 262 492 471 q 151 0 158 53 q 98 3 121 7 q 69 3 75 0 q 281 260 71 15 q 494 532 492 506 q 470 551 497 549 q 310 554 443 554 q 232 519 250 554 q 201 457 208 482 l 176 453 q 229 554 219 531 q 268 604 250 604 q 557 601 368 604 z "},"8":{"ha":488,"x_min":54,"x_max":531,"o":"m 531 540 q 356 332 531 438 q 423 266 407 293 q 439 215 439 239 q 429 163 439 192 q 333 35 404 83 q 190 -12 261 -12 q 87 15 118 -12 q 56 75 56 42 q 61 111 56 92 q 253 300 93 211 q 186 406 186 344 q 196 454 186 428 q 284 574 217 525 q 417 624 351 624 q 511 592 482 624 q 531 540 531 571 m 336 346 q 425 419 382 375 q 477 491 468 463 q 486 538 486 519 q 475 574 486 557 q 408 601 454 601 q 324 570 363 601 q 269 489 285 539 q 271 417 256 461 q 336 346 281 386 m 274 286 q 114 79 114 183 q 122 44 114 58 q 188 14 138 14 q 283 45 239 14 q 344 129 326 76 q 353 177 353 154 q 338 226 353 200 q 274 286 322 251 z "},"9":{"ha":467,"x_min":60,"x_max":551,"o":"m 160 -6 q 71 11 104 -6 q 60 25 60 19 q 71 54 60 31 q 96 133 82 78 l 121 144 q 109 113 117 140 q 101 69 101 86 q 118 37 101 53 q 172 21 135 21 q 306 78 240 21 q 405 208 371 136 q 444 304 439 279 q 397 276 428 292 q 360 256 367 260 q 265 238 329 238 q 151 299 179 238 q 138 363 138 329 q 151 433 138 397 q 239 549 179 508 q 279 573 253 558 q 318 596 306 588 q 415 619 353 619 q 511 592 478 619 q 551 485 551 560 q 518 319 551 414 q 378 90 471 185 q 160 -6 286 -6 m 483 474 q 411 578 483 557 q 363 585 389 585 q 310 569 338 585 q 232 486 263 546 q 204 389 204 436 q 282 282 204 301 q 325 278 300 278 q 390 300 350 278 q 456 375 429 322 q 483 474 483 425 z "},"\t":{"ha":0,"x_min":0,"x_max":0,"o":""}," ":{"ha":235,"x_min":0,"x_max":0,"o":""},"!":{"ha":410,"x_min":139,"x_max":576,"o":"m 192 -8 q 140 22 140 -8 q 151 34 140 25 q 177 51 163 43 q 193 58 192 60 q 229 42 221 42 q 244 43 238 42 q 251 39 251 44 q 242 24 251 33 q 192 -8 203 -8 m 271 192 q 236 172 261 172 q 233 175 233 172 q 426 676 338 451 q 453 750 451 746 q 563 797 525 767 q 565 797 563 797 q 571 791 567 797 q 575 779 575 785 q 570 770 575 774 q 518 683 565 767 q 271 192 310 278 z "},"\"":{"ha":233,"x_min":146,"x_max":440,"o":"m 182 618 q 158 594 169 594 q 147 600 147 594 q 159 637 147 606 q 200 796 171 668 q 238 831 199 813 q 285 850 278 850 q 293 844 293 850 q 182 618 278 799 m 328 618 q 305 594 317 594 q 293 600 293 594 q 305 637 293 606 q 346 796 317 668 q 401 839 344 813 q 432 850 425 850 q 439 846 439 850 q 328 618 439 821 z "},"#":{"ha":804,"x_min":15,"x_max":801,"o":"m 638 476 q 793 479 785 479 q 801 478 801 479 q 781 450 801 472 q 750 429 760 428 q 608 435 710 432 l 526 310 q 708 313 664 310 q 693 287 717 313 q 656 263 669 261 q 500 267 643 264 q 374 63 415 133 q 361 56 369 56 q 339 64 335 56 q 446 268 358 118 q 351 269 406 269 l 249 269 q 121 63 213 211 q 107 56 117 56 q 86 64 83 56 q 194 269 107 119 q 33 265 51 267 q 15 265 15 264 q 36 293 15 271 q 70 313 57 315 q 218 308 83 311 q 299 436 250 363 q 108 432 163 436 q 122 457 99 431 q 156 482 146 483 q 325 476 194 476 q 492 694 433 640 q 501 696 493 696 q 542 683 508 696 l 546 681 q 385 475 490 629 l 444 475 q 576 476 522 475 q 743 694 681 635 q 753 696 744 696 q 794 683 761 696 l 799 681 q 638 476 740 626 m 550 436 l 442 438 l 358 438 q 274 308 329 394 l 471 308 q 550 436 514 381 z "},"$":{"ha":435,"x_min":69,"x_max":499,"o":"m 283 356 q 228 479 228 418 q 278 590 228 540 q 393 640 328 640 l 396 640 q 425 710 413 678 q 450 724 431 721 q 457 719 457 722 l 425 639 q 499 568 499 632 q 474 476 499 529 q 450 458 464 458 q 449 479 444 460 q 453 521 453 499 q 410 599 453 582 l 344 419 q 426 265 426 338 q 365 140 426 192 q 225 86 303 88 q 181 -47 196 4 q 128 -69 131 -69 q 126 -68 126 -69 q 181 89 142 -19 q 100 126 131 97 q 69 204 69 154 q 124 313 69 279 q 136 313 133 318 q 132 299 139 307 q 114 242 114 275 q 126 185 114 210 q 193 122 149 140 q 283 356 231 224 m 271 115 q 333 153 306 122 q 360 231 360 185 q 310 328 360 278 l 233 113 q 271 115 258 113 m 375 606 q 312 579 339 606 q 285 519 285 553 q 288 495 285 511 q 319 447 292 479 q 382 606 382 603 q 375 606 379 606 z "},"%":{"ha":878,"x_min":97,"x_max":1019,"o":"m 144 -39 q 117 -47 136 -47 q 99 -39 99 -47 q 100 -35 99 -37 q 490 413 264 172 q 872 764 715 654 q 676 747 767 747 q 513 764 586 747 q 544 718 544 753 q 513 630 544 683 q 433 522 481 576 q 253 404 328 404 q 206 422 221 404 q 190 465 190 439 q 208 553 190 517 q 247 621 226 589 q 313 708 267 653 q 380 763 358 763 q 400 747 401 763 q 381 717 400 742 q 275 576 300 614 q 224 454 224 489 q 256 419 224 419 q 311 446 278 419 q 418 567 368 489 q 476 714 476 656 q 431 788 476 772 q 468 801 450 807 q 685 781 539 781 q 1003 826 832 781 q 1019 814 1019 825 q 1008 786 1019 803 q 958 747 985 751 q 556 394 803 640 q 144 -39 308 147 m 554 33 q 586 1 554 1 q 642 28 608 1 q 749 147 699 69 q 807 295 807 238 q 763 369 807 353 q 754 378 749 372 q 763 383 760 383 q 839 360 804 383 q 874 303 874 338 q 764 106 874 229 q 583 -14 658 -14 q 537 3 553 -14 q 521 47 521 21 q 539 135 521 99 q 577 203 557 171 q 643 290 597 235 q 711 344 689 344 q 732 329 733 344 q 680 256 732 322 q 614 167 628 189 q 572 90 589 131 q 554 33 554 50 z "},"&":{"ha":844,"x_min":153,"x_max":1110,"o":"m 681 604 q 550 442 681 533 q 624 286 567 400 l 810 286 q 874 292 867 286 q 885 297 882 299 q 885 290 888 294 l 860 253 q 847 243 854 244 q 746 253 843 242 q 700 146 733 196 q 796 -4 757 47 q 872 -78 835 -56 q 942 -103 914 -103 q 999 -84 969 -103 q 1049 -44 1029 -65 q 1094 10 1068 -24 q 1110 7 1110 31 q 1104 -7 1110 0 q 997 -124 1042 -93 q 921 -154 951 -154 q 867 -147 890 -154 q 735 -33 801 -126 q 657 94 707 6 q 554 11 611 47 q 344 -57 436 -57 q 192 4 246 -57 q 153 99 153 46 q 319 326 153 224 q 421 385 360 351 q 503 431 500 428 q 488 514 488 479 q 576 667 488 644 q 617 672 592 672 q 661 651 642 672 q 681 604 681 629 m 379 214 q 399 264 379 247 q 515 289 426 289 q 558 288 535 289 q 507 414 519 379 l 415 356 q 238 128 238 239 q 264 53 238 89 q 395 11 306 11 q 539 36 485 11 q 644 118 593 57 q 571 263 590 224 q 447 225 490 260 q 422 169 419 203 q 433 126 422 149 l 422 118 q 380 199 381 189 q 379 214 379 208 m 544 457 q 663 610 663 540 q 632 650 663 639 q 601 656 621 656 q 561 632 582 656 q 529 553 529 599 q 544 457 529 507 m 726 256 q 636 263 669 261 l 685 172 q 726 256 707 206 z "},"'":{"ha":147,"x_min":146,"x_max":293,"o":"m 182 618 q 158 594 169 594 q 147 600 147 594 q 159 637 147 606 q 200 796 171 668 q 238 831 199 813 q 285 850 278 850 q 293 844 293 850 q 182 618 278 799 z "},"(":{"ha":372,"x_min":67,"x_max":842,"o":"m 156 139 q 188 10 156 63 q 276 -42 219 -42 q 317 -35 288 -42 q 325 -40 325 -33 q 303 -62 324 -54 q 217 -76 261 -76 q 136 -49 174 -76 q 68 114 68 0 q 164 461 68 289 q 378 701 236 589 q 672 867 521 814 q 828 901 769 901 q 840 885 840 901 q 836 879 840 879 q 592 789 715 858 q 214 389 328 640 q 156 139 156 264 z "},")":{"ha":704,"x_min":-62,"x_max":711,"o":"m 624 700 q 591 828 624 776 q 500 879 558 879 q 461 874 490 879 q 453 879 453 872 q 484 904 451 894 q 560 914 517 914 q 642 886 603 914 q 710 717 710 839 q 614 378 710 544 q 400 137 542 249 q 106 -28 258 25 q -50 -62 11 -62 q -59 -55 -56 -62 q -62 -44 -62 -47 q -58 -40 -62 -40 q 186 49 63 -21 q 565 447 449 197 q 624 700 624 574 z "},"*":{"ha":704,"x_min":97,"x_max":681,"o":"m 624 492 l 557 421 l 400 557 l 394 554 l 353 325 l 267 325 l 364 554 l 360 557 l 119 421 l 97 492 l 353 583 l 353 586 l 154 679 l 219 750 l 376 613 l 382 615 l 425 846 l 511 846 l 413 615 l 417 613 l 658 751 l 681 681 l 425 586 l 424 583 l 624 492 z "},"+":{"ha":453,"x_min":117,"x_max":625,"o":"m 622 317 q 625 313 625 317 q 604 288 625 310 q 574 267 583 265 q 383 274 465 272 l 382 268 q 313 86 319 119 q 251 57 308 71 q 240 56 243 56 q 236 57 236 56 q 335 274 260 101 q 149 271 181 274 q 117 269 117 268 q 138 297 117 275 q 168 318 158 319 q 350 313 200 313 q 408 471 396 428 q 469 499 414 486 q 482 500 478 500 q 486 499 486 500 q 400 313 433 389 q 622 317 522 313 z "},",":{"ha":179,"x_min":49,"x_max":171,"o":"m 68 -111 q 53 -118 57 -118 q 50 -112 50 -118 q 61 -96 50 -106 q 111 -12 111 -53 q 76 38 111 29 l 82 53 q 117 69 101 56 q 140 88 139 88 q 169 51 169 83 q 167 29 169 42 q 68 -111 150 -54 z "},"-":{"ha":346,"x_min":103,"x_max":338,"o":"m 224 206 l 104 203 q 117 223 104 207 q 136 239 131 239 l 226 233 q 299 235 261 233 q 338 236 338 238 q 333 226 338 235 q 319 209 328 218 q 304 200 310 200 q 283 203 299 200 q 224 206 260 206 z "},".":{"ha":207,"x_min":44,"x_max":158,"o":"m 97 -8 q 46 24 46 -8 q 71 43 46 28 q 98 58 96 58 q 114 50 100 58 q 136 42 128 42 q 151 43 144 42 q 157 38 157 44 q 149 24 157 32 q 97 -8 110 -8 z "},"/":{"ha":524,"x_min":0,"x_max":793,"o":"m 697 847 q 725 853 701 853 q 793 847 767 853 q 424 417 699 747 q 60 -36 149 86 q 39 -46 54 -46 q 0 -35 1 -46 q 375 459 154 181 q 697 847 596 738 z "},":":{"ha":214,"x_min":81,"x_max":293,"o":"m 235 408 q 271 392 263 392 q 286 393 279 392 q 293 388 293 394 q 283 374 292 382 q 232 342 244 342 q 231 342 231 342 q 182 371 208 342 q 192 382 181 372 q 219 400 204 392 q 235 408 233 408 m 135 61 q 178 44 163 44 q 193 40 193 44 q 170 14 193 35 q 132 -7 147 -7 q 82 24 82 -4 q 93 35 82 26 q 119 53 104 44 q 135 61 133 61 z "},";":{"ha":214,"x_min":51,"x_max":313,"o":"m 188 29 q 185 7 188 19 q 51 -161 161 -99 q 65 -135 56 -143 q 129 -33 118 -90 q 122 -3 132 -17 q 94 15 113 11 l 100 31 q 158 65 117 32 q 188 29 188 61 m 254 408 q 290 392 282 392 q 305 393 299 392 q 311 388 311 394 q 303 374 310 382 q 251 342 264 342 q 250 342 250 342 q 200 371 200 342 q 226 393 200 378 q 254 408 251 408 z "},"<":{"ha":407,"x_min":122,"x_max":453,"o":"m 382 126 q 378 114 382 119 q 338 72 340 78 l 329 72 q 304 124 331 88 q 224 207 278 161 q 122 278 171 253 l 129 301 q 453 513 279 383 q 444 481 453 494 q 342 397 424 454 q 215 313 260 339 q 213 301 207 307 q 333 203 283 253 q 382 126 382 153 z "},"=":{"ha":478,"x_min":82,"x_max":533,"o":"m 496 222 q 481 197 504 222 q 452 172 457 172 q 403 176 447 172 q 255 179 360 179 q 116 176 150 179 q 82 175 82 174 q 103 203 82 181 q 133 224 124 225 q 276 218 176 218 q 496 222 375 218 m 167 392 l 324 385 q 451 388 369 385 q 533 389 533 390 q 513 362 533 383 q 487 340 492 340 q 438 344 482 340 q 321 347 394 347 q 117 343 321 347 q 137 369 117 347 q 167 392 157 392 z "},">":{"ha":407,"x_min":86,"x_max":417,"o":"m 111 72 q 99 97 111 78 q 86 119 86 117 q 88 128 86 122 q 98 142 90 133 q 113 157 106 150 q 133 174 121 164 q 333 301 206 233 q 335 313 342 307 q 244 397 301 339 q 178 481 188 454 q 183 513 176 494 q 417 301 294 389 l 414 278 q 156 114 272 217 q 119 72 125 89 l 111 72 z "},"?":{"ha":603,"x_min":139,"x_max":668,"o":"m 453 448 q 430 437 453 448 q 362 396 407 426 q 283 315 317 365 q 250 231 250 264 q 265 181 250 197 l 250 160 q 217 236 219 192 q 292 378 211 314 l 522 561 q 578 666 578 606 q 525 749 578 726 q 481 760 503 760 q 360 726 406 760 q 316 672 340 713 q 283 596 292 631 q 269 576 283 582 q 256 583 254 571 q 281 721 281 693 q 315 767 281 749 q 479 792 349 782 q 519 793 500 793 q 668 682 668 793 q 628 563 668 610 q 544 493 589 517 q 453 448 499 469 m 235 42 q 244 43 238 42 q 251 41 251 44 q 251 35 251 38 q 227 12 251 32 q 197 -8 203 -8 q 140 22 165 -8 q 140 24 140 22 q 151 33 140 25 q 193 58 182 58 l 235 42 z "},"@":{"ha":964,"x_min":25,"x_max":947,"o":"m 586 506 q 551 532 586 532 q 473 491 517 532 q 378 360 429 450 q 326 231 326 271 q 339 214 326 214 q 483 338 379 214 q 586 506 586 461 m 510 326 q 282 168 364 168 q 257 197 257 168 l 257 208 q 322 375 267 286 q 547 550 431 550 l 707 549 q 714 543 714 549 q 698 532 714 532 q 651 488 682 532 q 572 344 615 429 q 528 224 528 258 q 572 197 528 197 q 769 278 672 197 q 867 479 867 360 q 784 651 867 599 q 582 704 701 704 q 576 704 579 704 q 348 647 457 704 q 169 486 239 590 q 99 264 100 382 q 176 74 99 146 q 371 3 254 3 q 739 150 601 3 q 765 167 756 167 q 779 149 779 167 q 756 106 779 126 q 587 8 675 33 q 401 -18 499 -18 q 244 -3 303 -18 q 134 44 185 13 q 54 130 83 75 q 26 276 25 185 q 74 458 26 367 q 375 706 164 635 q 571 736 469 736 q 897 622 797 736 q 946 493 946 568 q 946 476 946 485 q 808 242 935 319 q 489 165 681 165 q 456 193 456 165 q 510 326 456 238 z "},"A":{"ha":1067,"x_min":28,"x_max":1353,"o":"m 1351 789 q 1332 782 1351 782 q 1306 781 1313 782 q 1257 747 1283 776 q 1113 528 1211 701 q 953 219 1014 356 q 951 215 953 218 q 901 58 901 100 q 929 15 901 15 q 1022 67 967 15 q 1121 181 1076 118 q 1134 186 1128 192 q 1132 169 1140 181 q 1107 136 1113 143 q 1089 113 1101 129 q 1067 87 1076 97 q 1042 62 1057 76 q 1015 36 1028 47 q 911 -12 956 -12 q 831 72 831 -12 q 883 247 831 136 q 1023 518 935 357 q 1154 736 1111 679 q 1053 697 1119 735 q 946 617 988 660 q 826 488 904 574 q 715 365 749 401 q 849 363 799 363 q 943 383 900 363 q 912 342 935 361 q 851 322 889 324 q 764 319 813 319 q 672 321 715 319 q 121 -35 328 -35 q 52 -11 76 -35 q 28 49 28 13 q 29 74 28 57 q 48 126 31 90 q 69 163 65 163 q 74 151 81 164 q 56 89 56 111 q 63 56 56 67 q 133 24 81 24 q 621 324 299 24 q 436 332 463 332 q 296 297 331 332 q 271 231 271 272 q 274 210 271 219 q 245 218 253 214 q 235 232 238 222 q 233 249 236 243 q 237 264 231 256 q 245 277 243 272 q 256 288 247 282 q 270 298 265 294 q 285 307 275 301 q 301 315 296 313 q 318 322 307 317 q 526 372 433 372 q 668 368 583 372 q 872 576 760 457 q 1094 724 985 694 l 1018 724 q 681 592 707 724 q 679 566 679 582 q 696 540 679 550 q 690 531 703 536 q 674 528 678 525 q 651 564 660 538 q 642 600 642 590 q 666 672 642 643 q 731 716 690 701 q 804 740 771 731 q 892 753 838 749 q 1038 757 968 757 l 1189 757 q 1190 756 1192 757 q 1318 801 1292 801 q 1351 789 1351 801 z "},"B":{"ha":781,"x_min":-3,"x_max":813,"o":"m 576 756 l 632 757 q 724 742 676 757 q 813 621 813 714 q 765 497 813 558 q 596 393 700 417 q 593 389 593 393 q 596 385 593 385 q 609 383 599 385 q 631 380 619 382 q 651 376 643 378 q 734 333 703 365 q 765 251 765 301 q 703 100 765 167 q 400 -24 588 -24 q 192 19 274 -24 q 150 31 171 31 q 117 24 129 31 q 75 0 104 18 q 14 -26 31 -26 q -3 -18 -3 -26 q 0 -14 -3 -15 q 89 53 57 -4 q 248 337 138 135 q 390 605 358 539 q 428 682 422 671 q 510 738 446 715 q 438 739 489 739 q 281 719 386 739 q 136 604 136 693 q 158 557 136 571 q 158 549 165 554 q 142 549 150 544 q 115 581 133 554 q 88 653 88 622 q 103 706 88 683 q 167 739 119 729 q 321 756 238 756 q 325 756 324 756 l 532 757 q 576 756 553 756 m 617 428 q 636 436 617 428 q 681 474 656 443 q 723 549 707 506 q 739 619 739 592 q 656 733 739 721 q 625 735 643 735 q 526 702 553 735 q 473 623 500 669 q 428 542 446 576 q 381 451 410 508 q 304 299 353 393 q 211 115 256 204 q 204 85 204 100 q 238 29 204 54 q 356 -4 294 -4 q 499 25 424 -4 q 630 120 575 54 q 685 272 685 186 q 644 349 685 326 q 561 372 604 372 q 382 347 476 372 q 381 350 381 347 q 400 373 381 357 q 428 397 419 389 q 447 406 436 406 q 543 410 507 406 q 617 428 579 414 z "},"C":{"ha":732,"x_min":53,"x_max":819,"o":"m 731 533 q 754 621 754 572 q 739 697 754 669 q 636 742 713 742 q 360 628 494 742 q 198 419 261 540 q 135 202 135 297 q 178 59 135 107 q 290 1 222 11 q 361 -4 326 -4 q 561 33 467 -4 q 804 206 713 92 q 818 206 818 222 q 807 181 818 196 q 572 3 719 64 q 351 -40 468 -40 q 90 60 163 -40 q 53 188 53 111 q 125 442 53 318 q 311 653 197 567 q 626 763 457 763 q 759 735 703 763 q 815 664 815 708 q 790 602 815 644 q 757 540 764 560 q 736 529 754 531 q 731 533 731 531 z "},"D":{"ha":869,"x_min":-3,"x_max":950,"o":"m 317 756 l 593 763 q 875 694 786 763 q 929 622 908 668 q 950 515 950 576 q 856 232 950 374 q 381 -22 686 -22 q 192 19 274 -22 q 146 32 167 32 q 79 3 125 32 q 15 -26 33 -26 q -3 -18 -3 -26 l 0 -14 l 8 -11 q 18 -10 8 -12 q 89 53 63 6 q 333 496 129 119 l 428 682 q 510 738 449 717 l 476 738 q 280 719 385 738 q 150 653 175 700 q 136 608 136 628 q 142 576 136 588 q 155 560 149 565 q 161 554 161 556 q 150 546 161 546 q 118 578 139 546 q 89 657 89 624 q 317 756 89 756 m 824 318 q 865 519 865 424 q 800 674 865 614 q 626 733 735 733 q 528 705 553 733 q 472 622 503 676 q 421 530 440 568 q 378 443 401 492 q 293 276 363 410 q 213 119 224 142 q 203 77 203 96 q 238 29 203 58 q 364 -3 279 -3 q 641 85 518 -3 q 824 318 764 174 z "},"E":{"ha":664,"x_min":46,"x_max":808,"o":"m 340 756 l 658 761 q 796 742 774 761 q 808 722 808 732 q 806 701 808 713 q 765 610 800 661 q 742 593 756 592 q 741 613 736 593 q 746 658 746 633 q 701 731 746 717 q 639 736 682 736 q 547 733 596 736 q 478 706 497 731 q 308 426 435 644 q 319 411 303 411 l 481 408 q 628 428 590 408 q 639 425 640 436 q 614 385 638 403 q 572 368 590 368 l 354 374 q 299 372 321 374 q 272 359 278 371 q 250 317 265 347 q 154 88 154 139 q 293 11 154 14 q 719 185 583 11 q 728 183 725 193 q 726 167 731 172 q 696 127 722 161 q 660 83 669 93 q 631 50 650 72 q 554 0 594 13 q 367 -17 496 -17 q 156 -8 239 -17 q 54 29 74 0 q 47 61 47 40 q 68 124 47 82 q 183 326 108 196 q 302 535 258 457 q 381 668 346 614 q 467 735 415 722 q 234 703 288 725 q 166 655 181 681 q 151 600 151 629 q 174 557 151 571 q 172 549 179 554 q 157 549 165 544 q 131 581 149 554 q 104 657 104 621 q 263 754 104 743 q 333 756 289 756 l 340 756 z "},"F":{"ha":808,"x_min":44,"x_max":1090,"o":"m 60 167 l 58 133 q 90 35 58 69 q 172 0 121 0 q 351 100 258 0 q 556 464 410 163 q 639 636 628 614 q 763 739 674 703 q 600 732 704 739 q 325 608 325 714 q 367 540 325 560 q 365 531 375 536 q 342 531 354 525 q 306 567 331 538 q 268 645 268 613 q 292 704 268 678 q 383 743 315 731 q 607 761 483 761 q 1008 758 960 761 q 1089 714 1089 754 q 1076 666 1089 690 q 1056 627 1064 642 q 1046 610 1047 613 q 1024 593 1039 594 q 1018 601 1015 592 q 1028 661 1028 635 q 983 731 1028 717 q 925 742 957 742 q 760 706 807 742 q 715 654 735 686 q 684 605 694 622 q 659 558 674 588 q 638 513 644 528 q 615 465 631 497 q 597 426 600 433 q 608 411 592 411 l 804 410 q 863 401 849 410 q 867 372 878 393 q 842 328 857 351 q 824 295 828 306 q 806 283 821 285 q 803 286 803 285 q 821 350 821 328 q 801 372 821 372 l 585 372 q 566 361 572 372 q 533 297 560 350 q 495 221 507 243 q 461 157 483 199 q 196 -53 344 -53 q 111 -28 150 -53 q 44 125 44 18 l 44 147 q 57 169 44 169 q 60 167 60 169 z "},"G":{"ha":800,"x_min":44,"x_max":910,"o":"m 535 383 l 646 379 l 910 379 l 894 363 q 813 331 838 363 q 787 288 797 310 q 772 257 776 267 q 760 228 767 247 q 752 201 754 208 q 742 170 750 193 q 730 129 735 147 q 707 44 725 111 q 679 -56 689 -24 q 649 -144 669 -87 q 608 -236 628 -200 q 369 -457 517 -399 q 246 -483 303 -483 q 135 -459 189 -483 q 58 -387 81 -435 q 44 -331 44 -361 l 44 -286 q 61 -265 44 -265 q 64 -268 64 -265 l 61 -303 q 101 -399 61 -365 q 204 -433 140 -433 q 499 -272 371 -433 q 658 6 596 -151 q 687 82 667 29 q 715 154 707 135 q 550 14 660 72 q 338 -44 440 -44 q 332 -44 335 -44 q 135 15 217 -44 q 53 197 53 75 q 125 442 53 318 q 311 653 197 567 q 626 763 457 763 q 759 735 703 763 q 815 664 815 708 q 790 602 815 644 q 757 540 764 560 q 736 529 754 531 q 731 533 731 531 q 754 621 754 572 q 739 697 754 669 q 636 742 713 742 q 360 628 494 742 q 198 419 261 540 q 135 192 135 297 q 192 34 135 86 q 338 -18 250 -18 q 342 -18 339 -18 q 610 87 499 -18 q 775 353 721 192 l 632 353 q 454 271 454 353 q 461 235 454 249 l 449 226 q 411 296 411 289 q 411 310 411 303 q 428 357 411 342 q 535 383 461 383 z "},"H":{"ha":1069,"x_min":7,"x_max":1286,"o":"m 1285 789 q 1265 782 1285 782 q 1239 781 1246 782 q 1189 747 1215 776 q 998 444 1129 688 q 846 114 867 200 q 840 71 840 90 q 893 14 840 14 q 979 40 929 14 q 1135 197 1044 78 q 1144 194 1144 210 q 1140 178 1144 185 q 971 10 1056 56 q 871 -14 926 -14 q 783 31 815 -14 q 764 87 764 60 q 781 158 764 114 q 878 361 797 203 q 814 331 844 331 q 783 333 813 331 q 572 336 754 336 l 506 336 q 339 57 397 119 q 158 -28 258 -28 q 75 -3 114 -28 q 7 150 7 43 l 7 172 q 19 194 7 194 q 22 192 22 194 l 21 158 q 52 60 21 94 q 135 26 83 26 q 314 125 222 26 q 442 335 360 175 q 260 322 321 332 q 254 331 247 319 q 335 383 279 365 l 464 379 q 576 600 488 424 q 640 686 599 646 q 724 735 681 726 q 650 733 700 733 q 569 731 600 732 q 329 653 365 721 q 318 615 318 629 q 338 557 318 572 q 336 549 343 553 q 321 549 329 544 q 294 581 313 554 q 267 653 267 622 q 282 706 267 683 q 344 739 297 729 q 500 756 417 756 q 634 756 503 756 q 789 760 765 756 q 815 759 813 764 q 812 748 817 754 q 803 742 807 742 q 654 618 719 733 q 526 376 606 531 l 590 374 l 794 374 q 893 390 856 374 q 1096 742 1040 671 q 1144 764 1104 744 q 1263 801 1222 801 q 1285 792 1279 801 q 1285 789 1285 790 z "},"I":{"ha":507,"x_min":14,"x_max":893,"o":"m 529 758 l 671 753 l 893 754 l 875 733 q 789 726 832 733 q 703 685 746 718 q 632 604 661 653 l 619 583 q 574 474 610 561 q 513 329 538 386 q 443 197 488 272 q 360 80 399 122 q 267 12 321 38 q 167 -14 214 -14 q 83 11 121 -14 q 14 163 14 58 q 19 182 14 181 q 29 171 29 183 q 60 73 29 107 q 143 39 92 39 q 367 192 253 39 q 404 240 389 219 q 441 297 419 260 q 471 349 463 335 q 502 409 479 363 q 528 463 525 456 q 558 525 532 469 q 585 583 583 581 q 696 721 629 676 l 654 721 q 438 621 438 721 q 454 561 438 597 l 440 550 q 385 653 386 644 q 385 667 385 661 q 406 726 385 707 q 529 758 442 758 z "},"J":{"ha":282,"x_min":-308,"x_max":581,"o":"m 490 733 q 418 728 429 728 q 158 660 201 722 q 146 622 146 640 q 190 540 146 561 q 190 531 200 536 q 174 528 179 526 q 131 567 156 538 q 92 644 92 611 q 113 703 92 678 q 200 739 135 728 q 419 757 297 757 q 425 757 424 757 l 575 757 q 578 757 576 757 q 579 754 579 757 q 557 736 579 750 q 401 579 476 732 q 287 327 356 489 q 212 151 218 165 q 188 100 206 138 q 162 46 171 63 q 136 -1 153 29 q 106 -50 119 -32 q 29 -145 61 -111 q -56 -206 -3 -179 q -156 -232 -110 -232 q -239 -206 -201 -232 q -308 -54 -308 -160 q -301 -34 -308 -33 q -294 -46 -294 -35 q -262 -144 -294 -110 q -179 -178 -231 -178 q -1 -79 -93 -178 q 214 271 117 50 q 267 399 219 283 q 394 674 364 640 q 490 733 424 707 z "},"K":{"ha":778,"x_min":-3,"x_max":1104,"o":"m 865 723 q 901 738 865 723 q 979 753 936 753 q 1047 743 1022 753 q 1088 721 1072 733 q 1103 697 1103 708 q 1099 686 1103 686 q 1077 703 1094 686 q 1025 719 1060 719 q 901 683 990 719 q 653 565 753 619 q 371 378 553 510 q 428 258 388 332 q 515 128 468 185 q 595 57 561 72 q 644 42 629 42 q 677 44 660 42 q 728 73 694 47 q 785 124 763 99 q 836 188 807 149 q 851 192 847 203 q 844 172 851 183 q 720 29 772 72 q 615 -14 668 -14 q 469 79 540 -14 q 342 299 401 168 q 317 353 318 350 q 642 590 436 463 q 865 723 794 693 m 28 -15 q 20 -23 28 -15 q 4 -31 11 -31 q -3 -25 -3 -31 q -1 -22 -3 -24 q 107 110 58 26 q 379 590 219 300 q 542 733 446 707 q 350 714 421 731 q 244 607 244 690 q 264 557 244 571 q 263 549 269 553 q 247 549 256 544 q 221 581 239 554 q 193 653 193 622 q 208 706 193 683 q 271 739 224 729 q 426 756 343 756 q 498 756 429 756 q 586 759 567 756 q 608 763 606 763 q 624 747 621 763 q 611 733 624 733 q 594 736 603 736 q 468 624 532 736 q 164 64 313 361 q 153 39 161 58 q 139 11 146 19 q 121 5 132 3 q 97 7 110 7 q 65 3 85 7 q 28 -15 46 0 z "},"L":{"ha":760,"x_min":3,"x_max":754,"o":"m 11 -10 q 7 -11 10 -11 q 4 4 4 -11 q 18 26 4 19 l 28 29 q 131 78 82 32 q 200 174 179 124 l 328 493 q 426 672 371 603 q 611 758 493 758 q 714 737 674 758 q 754 681 754 715 q 751 660 754 672 q 726 617 749 649 q 698 567 704 585 q 683 553 692 549 q 679 565 674 557 q 704 642 704 601 q 687 713 704 682 q 629 743 669 743 q 490 650 540 743 l 233 176 q 118 46 174 68 q 409 46 304 46 q 528 47 514 46 q 560 49 542 47 q 592 51 579 50 q 617 56 604 53 q 660 111 660 65 q 622 164 660 146 q 619 174 613 168 q 669 140 633 183 q 712 79 706 96 q 718 46 718 63 q 697 12 718 29 q 601 -6 676 -6 q 338 8 526 -6 q 100 22 122 22 q 11 -10 46 22 z "},"M":{"ha":1153,"x_min":8,"x_max":1399,"o":"m 994 -12 q 911 71 911 -12 q 931 165 911 115 q 958 238 950 215 q 1018 363 974 275 q 1128 576 1088 510 l 728 154 q 692 115 724 128 q 643 68 678 110 q 638 67 642 67 q 630 69 633 67 q 628 74 626 72 q 665 200 664 119 l 674 604 q 707 706 674 665 q 624 607 651 664 q 564 461 613 585 q 350 76 453 186 q 261 13 315 39 q 161 -14 207 -14 q 78 11 115 -14 q 8 163 8 58 q 14 182 8 181 q 24 171 24 183 q 55 73 24 107 q 138 39 86 39 q 315 138 226 39 q 453 328 390 218 q 479 374 471 360 q 506 426 488 389 q 529 475 524 464 q 579 583 572 568 q 724 722 631 694 l 725 724 l 649 724 q 385 660 428 724 q 372 622 372 640 q 417 540 372 561 q 416 531 426 536 q 394 531 406 525 q 356 567 382 538 q 318 644 318 611 q 340 703 318 678 q 428 739 361 728 q 646 757 524 757 q 651 757 650 757 l 801 757 q 799 747 813 758 q 783 736 786 736 q 717 617 717 722 q 728 197 717 511 l 728 189 l 1210 697 q 1305 783 1265 756 q 1383 810 1344 810 q 1397 808 1397 810 q 1392 799 1397 806 q 1378 792 1385 792 q 1260 694 1319 792 q 1081 344 1178 560 q 983 54 983 129 q 1010 15 983 15 q 1048 27 1019 15 q 1103 64 1076 39 q 1149 110 1131 89 q 1178 144 1167 131 q 1199 172 1189 158 q 1211 188 1210 186 q 1222 190 1219 200 q 1220 173 1225 179 q 1203 150 1215 167 q 1180 121 1190 133 q 1152 88 1169 108 q 1119 53 1135 68 q 994 -12 1050 -12 z "},"N":{"ha":1001,"x_min":8,"x_max":1308,"o":"m 1308 814 l 1307 764 l 1294 761 q 1282 785 1296 776 q 1254 794 1268 794 q 1097 606 1189 794 q 964 306 1019 449 q 899 140 908 163 q 889 101 889 118 q 894 58 889 82 q 886 24 900 35 q 859 8 872 14 q 829 -14 846 3 q 807 -39 813 -31 q 801 -43 804 -43 q 792 -35 793 -43 q 819 22 807 -14 q 689 493 790 181 q 643 639 656 599 q 608 567 629 629 q 481 261 558 418 q 364 76 429 156 q 272 13 333 39 q 163 -14 210 -14 q 78 11 117 -14 q 8 163 8 56 q 15 183 8 183 q 22 171 22 182 q 58 63 22 106 q 144 19 93 19 q 329 108 244 19 q 442 267 403 188 q 494 381 481 347 q 579 583 521 436 q 639 676 601 638 q 725 724 676 715 l 649 724 q 383 660 428 724 q 371 623 371 640 q 375 592 371 606 q 417 540 388 554 q 415 531 425 536 q 400 528 406 526 q 356 567 382 538 q 318 644 318 611 q 340 703 318 678 q 428 739 361 728 q 644 757 524 757 q 650 757 649 757 l 818 757 q 813 736 831 758 q 790 715 794 714 q 777 715 786 715 q 743 710 768 715 q 707 696 718 704 q 763 428 715 594 q 868 119 811 263 q 950 340 885 161 q 1072 646 1015 519 q 1178 818 1129 772 q 1262 851 1214 851 q 1308 814 1310 851 z "},"O":{"ha":825,"x_min":10,"x_max":900,"o":"m 900 550 q 822 274 900 406 q 610 63 744 143 q 322 -17 476 -17 q 10 203 10 -17 q 103 483 10 336 q 215 624 150 561 q 376 728 281 688 q 581 769 472 769 q 823 716 746 769 q 900 550 900 663 m 821 563 q 583 749 821 749 q 347 654 465 749 q 156 429 228 560 q 83 190 83 299 q 311 4 83 4 q 567 90 447 4 q 754 305 688 176 q 821 563 821 433 z "},"P":{"ha":751,"x_min":1,"x_max":829,"o":"m 581 756 l 636 757 q 728 742 681 757 q 799 693 776 726 q 829 613 829 647 q 742 436 829 517 q 625 361 686 385 q 415 328 536 328 q 368 331 389 328 q 372 346 357 332 q 394 358 388 360 q 436 356 414 356 q 497 360 458 356 q 584 380 536 365 q 675 436 632 394 q 735 526 718 478 q 753 606 753 575 q 742 667 753 638 q 633 735 714 735 q 531 702 557 735 q 477 623 504 669 q 432 542 450 576 q 385 451 414 508 q 350 379 357 393 q 329 340 343 365 q 301 289 315 314 q 269 229 288 264 q 238 164 251 194 q 211 106 224 133 q 193 25 183 43 q 176 21 199 13 q 168 23 174 21 q 159 26 163 25 q 149 27 156 26 q 139 28 143 28 q 88 6 124 28 q 19 -26 36 -26 q 1 -18 1 -26 q 4 -14 1 -15 q 93 53 61 -4 q 202 245 156 158 q 303 431 249 332 q 376 568 357 529 q 411 640 396 607 q 432 682 426 672 q 514 738 450 715 q 442 739 493 739 q 285 719 390 739 q 140 604 140 693 q 163 557 140 571 q 162 549 169 554 q 147 549 154 544 q 121 581 139 554 q 93 657 93 624 q 254 754 93 743 q 331 756 281 756 l 536 757 q 581 756 558 756 z "},"Q":{"ha":832,"x_min":10,"x_max":933,"o":"m 322 -17 q 10 203 10 -17 q 103 483 10 336 q 215 624 150 561 q 376 728 281 688 q 581 769 472 769 q 823 716 746 769 q 900 550 900 663 q 773 205 900 363 q 456 0 646 47 q 636 -276 494 -81 q 740 -331 676 -331 q 872 -276 796 -331 q 917 -239 903 -256 q 932 -243 932 -222 q 919 -262 932 -246 q 861 -308 906 -278 q 690 -375 763 -375 l 658 -372 q 574 -312 604 -362 q 396 -12 458 -126 q 322 -17 361 -17 m 821 563 q 583 749 821 749 q 347 654 465 749 q 156 429 228 560 q 83 190 83 299 q 311 4 83 4 q 567 90 447 4 q 754 305 688 176 q 821 563 821 433 z "},"R":{"ha":836,"x_min":1,"x_max":903,"o":"m 581 756 l 636 757 q 728 742 681 757 q 821 604 821 713 q 787 483 821 528 q 708 406 753 439 q 582 354 663 374 q 425 331 501 335 q 569 96 482 204 q 683 32 622 32 q 892 183 776 32 q 903 182 903 199 q 894 160 903 171 q 656 -33 754 -33 l 608 -24 q 386 278 503 22 q 361 332 363 329 q 399 368 388 368 q 447 368 410 368 q 513 369 483 368 q 585 379 542 371 q 650 406 628 388 q 740 540 710 450 q 753 606 753 575 q 742 667 753 638 q 633 735 714 735 q 531 702 557 735 q 477 623 504 669 q 432 542 450 576 q 385 451 414 508 q 350 379 357 393 q 329 340 343 365 q 301 289 315 314 q 269 229 288 264 q 238 164 251 194 q 211 106 224 133 q 193 25 183 43 q 176 21 199 13 q 168 23 174 21 q 159 26 163 25 q 149 27 156 26 q 139 28 143 28 q 88 6 124 28 q 19 -26 36 -26 q 1 -18 1 -26 q 4 -14 1 -15 q 93 53 61 -4 q 202 245 156 158 q 303 431 249 332 q 376 568 357 529 q 411 640 396 607 q 432 682 426 672 q 514 738 450 715 q 442 739 493 739 q 285 719 390 739 q 140 604 140 693 q 163 557 140 571 q 162 549 169 554 q 147 549 154 544 q 121 581 139 554 q 93 657 93 624 q 254 754 93 743 q 331 756 281 756 l 536 757 q 581 756 558 756 z "},"S":{"ha":626,"x_min":51,"x_max":736,"o":"m 678 647 l 678 675 q 658 714 678 700 q 551 751 618 751 q 418 688 460 751 q 393 617 393 650 q 409 547 393 585 q 499 418 425 510 q 592 279 574 326 q 610 200 610 232 q 538 44 610 111 q 430 -23 492 1 q 294 -47 368 -47 q 147 -10 221 -47 q 56 104 74 28 q 53 144 53 119 q 69 211 53 168 q 119 281 85 254 q 125 278 121 282 q 128 265 133 271 q 101 196 101 235 q 133 97 101 144 q 222 24 165 53 q 351 -8 285 -8 q 497 64 450 -8 q 524 153 524 107 q 507 247 524 200 q 438 380 490 293 q 381 476 386 467 q 353 581 353 529 q 385 679 353 633 q 469 751 418 725 q 588 781 526 781 q 728 721 674 781 q 735 685 735 708 q 725 646 735 663 q 679 558 689 593 q 653 554 660 546 q 678 647 678 604 z "},"T":{"ha":600,"x_min":15,"x_max":1051,"o":"m 1039 754 q 1045 757 1040 757 q 1050 749 1050 757 q 1036 718 1050 740 q 985 672 1010 676 q 937 669 974 669 q 783 685 900 669 q 681 608 722 674 q 621 500 643 549 q 568 378 599 451 q 381 29 457 113 q 206 -54 301 -54 q 122 -28 160 -54 q 53 122 53 18 q 67 168 53 168 q 69 165 69 168 l 68 131 q 99 33 68 67 q 182 -1 131 -1 q 361 97 269 -1 q 436 208 397 138 q 499 336 475 279 q 559 483 524 393 q 608 604 594 572 q 733 690 633 661 l 501 714 q 317 721 361 721 q 193 704 272 721 q 86 646 114 688 q 75 611 75 628 q 119 535 75 557 q 118 525 128 529 q 97 527 108 521 q 58 564 85 533 q 17 647 17 613 q 108 747 17 726 q 242 768 193 768 q 313 765 292 768 q 403 758 335 763 q 654 739 483 753 q 892 725 825 725 q 1039 754 1015 725 z "},"U":{"ha":849,"x_min":10,"x_max":981,"o":"m 156 758 l 297 753 q 617 754 493 754 l 599 733 q 500 694 531 733 q 323 382 422 593 q 211 67 224 171 q 211 58 211 63 q 261 18 211 18 l 315 35 q 472 157 390 72 q 814 678 672 365 q 824 702 817 682 q 839 731 832 722 q 858 737 846 739 q 881 735 869 735 q 913 738 893 735 q 964 769 932 740 q 972 772 968 772 q 981 768 975 772 l 981 764 q 883 650 932 725 q 628 185 676 336 q 608 82 608 122 q 672 8 608 8 q 699 11 685 8 q 824 97 744 18 q 922 207 867 136 q 906 156 932 189 q 738 -1 825 56 q 642 -36 685 -36 q 567 -3 588 -36 q 551 40 551 18 q 556 94 551 63 q 607 264 564 157 q 610 269 610 268 q 480 135 571 224 q 347 17 389 47 q 203 -36 271 -36 q 199 -36 200 -36 q 139 -18 156 -36 q 122 21 122 0 q 247 308 122 69 q 342 501 322 451 q 375 592 361 551 q 403 721 403 664 l 281 721 q 63 621 63 721 q 81 561 63 585 l 65 550 q 46 582 64 553 q 10 650 11 638 q 10 671 10 663 q 156 758 10 758 z "},"V":{"ha":747,"x_min":18,"x_max":1367,"o":"m 164 758 l 306 753 q 625 754 501 754 l 596 718 l 499 718 q 532 475 532 656 q 474 54 532 265 q 864 540 693 365 q 1022 690 950 629 q 1167 787 1094 750 q 1294 824 1240 824 q 1361 797 1351 824 q 1367 771 1367 782 q 1361 743 1367 760 q 1351 715 1356 726 q 1338 686 1346 703 q 1326 662 1329 669 q 1308 657 1322 654 q 1304 661 1306 660 q 1315 725 1315 699 q 1260 783 1315 783 q 1063 681 1188 783 q 640 242 857 517 q 456 -18 515 85 q 451 -31 454 -21 q 444 -44 449 -40 q 416 -58 440 -49 q 382 -68 392 -68 q 367 -64 372 -68 q 371 -25 354 -58 q 457 363 436 190 q 478 613 478 535 q 471 719 478 690 l 289 721 q 71 621 71 721 q 89 561 71 585 l 74 550 q 54 582 72 553 q 19 649 19 638 q 19 667 19 661 q 40 726 19 708 q 164 758 76 758 z "},"W":{"ha":1239,"x_min":18,"x_max":1756,"o":"m 164 758 l 306 753 q 625 754 501 754 l 596 718 q 513 719 568 718 q 431 719 458 719 q 507 619 482 685 q 532 497 532 553 l 531 424 q 531 385 531 403 q 474 54 524 233 q 567 193 489 76 q 946 663 772 497 q 1024 716 974 689 q 1121 743 1075 743 q 1188 729 1164 743 l 1179 714 q 1147 717 1168 717 q 1082 697 1125 717 q 999 638 1039 678 q 931 513 958 597 q 897 353 903 429 q 883 188 890 278 q 863 54 875 99 q 1433 706 1164 481 q 1558 788 1488 751 q 1683 824 1629 824 q 1750 797 1740 824 q 1756 771 1756 782 q 1750 743 1756 760 q 1740 715 1744 726 q 1726 686 1735 703 q 1715 662 1718 669 q 1697 657 1711 654 q 1693 661 1694 660 q 1704 725 1704 699 q 1663 782 1704 775 q 1633 783 1654 783 q 1456 681 1581 783 q 1029 242 1239 508 q 844 -18 904 85 q 840 -31 843 -21 q 833 -44 838 -40 q 805 -58 829 -49 q 771 -68 781 -68 q 756 -64 761 -68 q 760 -25 743 -58 l 783 53 q 810 220 800 113 q 840 417 821 328 q 899 567 858 506 q 772 426 872 553 q 734 379 758 410 q 694 329 710 349 q 469 -18 600 208 q 465 -31 468 -21 q 459 -44 463 -40 q 424 -58 456 -47 q 382 -68 392 -68 q 367 -64 372 -68 q 371 -25 354 -58 q 457 357 436 190 q 463 502 463 464 q 447 610 463 540 q 394 721 431 679 l 289 721 q 71 621 71 721 q 89 561 71 585 l 74 550 q 54 582 72 553 q 19 649 19 638 q 19 667 19 661 q 40 726 19 708 q 164 758 76 758 z "},"X":{"ha":753,"x_min":-156,"x_max":1063,"o":"m 596 718 l 419 719 q 418 683 418 703 q 458 399 418 575 q 865 753 739 683 q 981 786 929 786 q 1038 772 1021 786 q 1058 749 1056 758 q 1061 733 1061 740 q 1058 710 1061 725 q 1051 683 1056 696 q 1035 651 1046 671 q 1022 624 1025 631 q 1007 618 1018 617 q 1003 622 1001 618 q 1011 682 1011 657 q 969 743 1011 736 q 954 744 963 744 q 876 722 918 744 q 468 378 768 669 l 464 369 q 517 210 479 311 q 586 65 554 110 q 661 43 618 21 q 738 100 707 67 q 813 190 769 136 q 826 191 825 206 q 801 143 826 176 q 658 15 738 64 q 589 -7 622 -7 q 513 35 544 -7 q 414 313 457 111 q 347 240 396 293 q 276 163 297 186 q 211 97 254 140 q 141 33 168 54 q 78 -17 114 11 q -56 -79 14 -64 q -90 -82 -69 -82 q -132 -66 -110 -82 q -154 -12 -154 -50 q -137 67 -154 26 q -113 106 -119 107 q -111 94 -107 106 q -126 29 -126 54 q -74 -21 -126 -21 q 141 84 17 -21 q 407 342 265 189 q 379 592 379 499 q 401 719 379 686 q 311 721 364 721 q 229 718 258 721 q 71 621 71 703 q 89 561 71 585 l 74 550 q 54 582 72 553 q 19 649 19 638 q 19 667 19 661 q 40 726 19 708 q 164 758 76 758 l 306 753 q 625 754 501 754 l 596 718 z "},"Y":{"ha":628,"x_min":11,"x_max":1006,"o":"m 418 721 q 506 481 506 664 q 474 281 506 390 q 578 438 483 294 q 721 635 674 581 q 791 713 768 689 q 859 765 814 736 q 940 794 904 794 q 997 757 979 794 q 1004 729 1004 742 q 1001 707 1004 717 q 983 658 996 683 q 976 653 981 651 q 973 663 971 654 q 975 688 975 672 q 967 722 975 704 q 922 751 954 751 q 749 628 856 751 q 531 325 628 488 q 438 166 501 276 q 312 1 375 56 q 163 -54 249 -54 q 81 -29 118 -54 q 11 124 11 15 q 18 143 11 144 q 25 131 25 142 q 57 33 25 68 q 140 -1 89 -1 q 432 214 282 -1 q 406 204 415 204 q 393 206 397 204 q 396 231 388 208 q 444 521 444 379 q 393 721 444 663 l 360 721 q 143 621 143 721 q 160 561 143 597 l 146 550 q 91 653 92 644 q 90 667 90 661 q 111 726 90 707 q 235 758 147 758 l 376 753 q 599 754 475 754 l 569 718 q 418 721 521 718 z "},"Z":{"ha":629,"x_min":-42,"x_max":1046,"o":"m 147 133 q 303 174 226 174 q 363 166 331 174 q 441 122 394 158 q 522 50 488 86 q 628 -74 556 14 q 784 -231 700 -161 q 921 -301 868 -301 q 1007 -247 993 -301 q 1011 -219 1011 -233 q 982 -137 1011 -179 q 944 -90 968 -114 q 951 -81 943 -87 q 963 -76 960 -75 q 1046 -204 1046 -129 q 1024 -275 1046 -239 q 889 -353 976 -351 q 611 -175 769 -353 q 553 -106 590 -150 q 507 -51 517 -62 q 475 -14 497 -40 q 444 22 453 13 q 415 53 435 32 q 385 83 396 74 q 356 105 375 92 q 324 124 338 118 q 253 138 289 138 q 128 99 186 138 q 55 6 69 60 q 29 -62 40 -47 q 6 -76 18 -76 q -24 -67 -7 -76 q -40 -43 -40 -58 q -29 -3 -40 -21 q 740 718 97 200 q 506 721 565 721 q 418 718 447 721 q 261 621 261 703 q 278 561 261 597 l 264 550 q 244 582 263 553 q 209 650 210 638 q 208 671 208 663 q 364 760 208 760 l 501 757 l 825 757 q 826 750 826 756 q 818 729 826 733 q 147 133 460 471 z "},"[":{"ha":503,"x_min":13,"x_max":779,"o":"m 513 819 q 595 828 553 828 q 690 825 638 828 q 779 822 743 822 l 714 772 q 627 785 661 785 q 576 783 593 785 q 538 770 558 782 q 510 742 518 758 q 260 253 426 593 q 88 -100 93 -87 q 268 -101 171 -101 q 421 -96 365 -101 l 346 -139 q 13 -144 289 -144 q 189 243 26 -115 q 433 768 351 601 l 513 819 z "},"\\":{"ha":692,"x_min":0,"x_max":708,"o":"m 708 -41 q 708 -44 708 -41 q 688 -47 708 -47 q 661 -39 668 -47 q 365 356 625 7 l 1 828 q 36 840 1 832 q 78 849 71 849 q 88 847 86 849 q 475 308 214 697 q 615 101 524 236 q 708 -41 708 -35 z "},"]":{"ha":551,"x_min":-76,"x_max":690,"o":"m 190 -142 q 108 -150 150 -150 q 13 -147 65 -150 q -76 -144 -40 -144 l -10 -94 q 80 -107 46 -107 q 129 -106 114 -107 q 165 -92 144 -104 q 194 -64 185 -81 q 615 778 263 57 q 283 774 329 778 l 357 817 q 690 822 414 822 q 269 -90 381 132 l 190 -142 z "},"^":{"ha":435,"x_min":117,"x_max":436,"o":"m 128 350 q 123 350 128 350 q 118 360 118 350 q 197 424 118 369 q 290 482 275 479 l 297 479 q 431 364 336 436 l 436 354 l 429 346 q 347 383 406 347 q 269 440 289 419 q 128 350 139 350 z "},"_":{"ha":1175,"x_min":0,"x_max":0,"o":""},"`":{"ha":310,"x_min":68,"x_max":256,"o":"m 74 574 q 68 598 68 579 q 72 617 68 617 q 144 565 85 617 q 254 475 204 513 q 256 465 254 475 q 160 515 239 468 q 74 574 81 561 z "},"a":{"ha":408,"x_min":4,"x_max":485,"o":"m 482 206 q 485 194 485 203 q 465 160 485 186 q 236 -4 342 -4 q 203 22 203 -4 q 257 156 203 71 q 146 51 208 104 q 29 -3 83 -3 q 4 28 4 -3 q 6 38 4 35 q 69 204 15 117 q 294 379 178 379 l 454 379 q 461 374 461 379 q 449 363 461 363 q 400 317 429 363 q 323 178 371 272 q 275 60 275 85 q 294 36 275 36 q 383 92 326 36 q 429 142 414 124 q 449 165 444 160 q 482 206 454 171 m 333 335 q 298 361 333 361 q 219 321 263 361 q 126 191 176 281 q 75 61 75 101 q 86 44 75 44 q 230 167 126 44 q 333 335 333 290 z "},"b":{"ha":374,"x_min":38,"x_max":710,"o":"m 710 764 q 703 758 710 758 q 697 761 697 758 q 642 799 697 799 q 538 778 586 799 q 451 719 490 758 q 380 639 411 681 q 318 537 349 597 q 268 433 288 476 q 223 328 249 390 q 185 239 197 267 q 186 233 183 233 q 399 378 331 378 q 422 344 422 378 l 422 332 q 310 102 406 217 q 106 -12 215 -12 q 38 25 38 -12 q 111 219 38 51 q 78 183 99 206 q 52 152 58 161 q 44 156 46 143 q 54 183 43 169 q 97 233 65 196 q 144 289 129 271 q 438 729 281 575 q 653 850 561 850 q 692 838 675 850 q 710 804 708 826 l 710 764 m 354 313 q 342 331 354 331 q 274 286 321 331 q 197 207 226 242 q 97 39 97 93 q 132 11 97 11 q 215 60 167 11 q 303 182 251 93 q 354 313 354 271 z "},"c":{"ha":331,"x_min":11,"x_max":406,"o":"m 403 204 q 406 194 406 201 q 392 165 406 186 q 264 44 344 100 q 114 -11 179 -11 q 30 10 49 -11 q 11 49 11 31 q 19 94 11 67 q 86 226 35 151 q 207 340 138 300 q 332 386 281 386 q 374 374 360 386 q 389 344 389 363 q 371 269 389 303 q 353 256 364 254 q 351 265 349 257 q 353 290 353 274 q 344 328 353 306 q 308 363 332 363 q 254 347 283 363 q 211 315 225 331 q 92 117 126 228 q 82 58 82 81 q 101 29 82 35 q 188 37 131 18 q 308 108 244 56 q 403 204 371 160 z "},"d":{"ha":408,"x_min":4,"x_max":828,"o":"m 818 753 q 814 756 817 753 q 772 803 808 789 q 736 808 756 808 q 693 800 717 808 q 546 633 626 776 q 379 300 465 490 q 346 232 378 299 q 275 60 275 85 q 292 36 275 36 q 387 99 322 36 q 482 206 451 163 q 485 194 485 203 q 465 160 485 185 q 236 -4 342 -4 q 203 22 203 -4 q 257 156 203 71 q 156 58 208 104 q 29 -3 81 -3 q 4 28 4 -3 q 6 38 4 35 q 70 204 15 115 q 190 343 125 293 q 297 379 235 379 q 361 379 329 379 q 432 509 383 417 q 501 636 481 601 q 781 850 628 850 q 815 839 800 850 q 828 808 829 828 l 825 758 q 818 753 825 753 m 333 335 q 298 361 333 361 q 219 321 263 361 q 126 191 176 281 q 75 61 75 101 q 86 44 75 44 q 230 167 126 44 q 333 335 333 290 z "},"e":{"ha":346,"x_min":22,"x_max":419,"o":"m 117 165 q 96 65 96 111 q 153 18 96 18 q 207 31 174 18 q 319 100 261 49 q 415 200 378 151 q 419 189 419 196 q 410 168 419 182 q 282 43 358 97 q 126 -11 206 -11 q 24 64 24 -11 q 88 229 24 124 q 190 335 124 286 q 318 385 257 385 q 379 326 379 385 q 331 234 379 265 q 223 184 283 203 q 117 165 163 165 m 128 193 q 159 193 136 193 q 214 203 182 193 q 317 292 293 226 q 324 328 324 311 q 313 353 324 346 q 293 361 301 361 q 128 193 203 360 z "},"f":{"ha":253,"x_min":-418,"x_max":665,"o":"m 610 800 q 568 808 589 808 q 528 804 547 808 q 381 651 456 789 q 258 379 361 617 l 358 379 q 399 382 386 379 q 378 364 399 372 q 263 343 339 343 q 243 343 253 343 q 132 74 161 138 q 76 -36 103 11 q 10 -136 50 -83 q -70 -226 -29 -189 q -165 -289 -111 -264 q -275 -314 -219 -314 q -415 -244 -390 -314 q -418 -228 -418 -235 q -417 -215 -418 -222 q -414 -201 -415 -207 q -408 -182 -412 -194 q -403 -165 -404 -169 q -395 -144 -401 -160 q -387 -124 -389 -129 q -380 -117 -385 -118 q -372 -119 -375 -115 q -376 -138 -369 -124 q -382 -172 -382 -153 q -375 -208 -382 -192 q -247 -283 -347 -275 q -235 -283 -242 -283 q -162 -264 -197 -283 q 18 -54 -68 -215 q 110 160 60 24 q 178 343 160 297 l 146 343 q 115 339 144 343 l 113 340 q 139 367 115 354 q 178 379 163 379 l 194 379 q 461 799 340 718 q 618 849 532 849 q 651 838 636 849 q 665 807 667 826 l 661 757 q 657 753 661 754 q 651 754 653 751 q 610 800 646 788 z "},"g":{"ha":368,"x_min":-392,"x_max":464,"o":"m -371 -268 l -374 -303 q -334 -399 -374 -365 q -238 -433 -294 -433 q -137 -415 -182 -433 q -57 -374 -92 -396 q 10 -317 -22 -351 q 65 -256 42 -282 q 117 -181 89 -231 q 160 -107 146 -131 q 201 -22 175 -83 q 235 56 228 39 q 269 140 243 74 q 299 215 296 207 q 169 69 253 140 q 32 -3 85 -3 q 7 28 7 -3 l 7 38 q 72 206 17 115 q 297 379 181 379 l 457 379 q 464 374 464 379 q 451 363 464 363 q 401 326 421 363 q 270 48 364 267 q 139 -237 176 -171 q 39 -368 101 -303 q -201 -486 -72 -486 q -306 -461 -257 -486 q -392 -310 -392 -415 l -392 -286 q -374 -265 -392 -265 q -371 -268 -371 -265 m 335 335 q 300 361 335 361 q 222 321 265 361 q 128 191 179 281 q 76 61 76 101 q 89 44 76 44 q 232 167 129 44 q 335 335 335 290 z "},"h":{"ha":408,"x_min":-8,"x_max":733,"o":"m 383 390 q 411 368 411 390 q 393 317 411 350 q 316 176 363 268 q 269 63 269 85 q 278 37 269 42 q 297 35 286 32 q 336 53 321 40 q 471 192 394 97 l 472 185 q 452 141 471 165 q 399 78 433 117 q 253 -8 324 -8 q 199 28 199 -8 q 203 55 199 42 q 267 191 208 68 q 326 321 326 314 q 321 328 326 328 q 257 288 306 328 q 138 156 194 229 q 58 17 82 83 q 22 -2 53 1 q -8 6 -8 -6 q -2 23 -8 8 q 53 158 4 38 q 136 350 103 279 q 403 753 261 628 q 650 854 518 854 q 732 794 726 854 q 733 775 733 788 q 728 743 733 763 q 721 738 726 738 l 714 738 q 714 742 713 738 q 715 751 715 746 q 633 806 715 806 q 403 714 508 806 q 176 340 275 601 q 138 235 163 303 q 103 142 113 167 q 383 390 290 390 z "},"i":{"ha":267,"x_min":43,"x_max":386,"o":"m 258 82 q 185 24 232 53 q 101 -4 139 -4 q 63 22 63 -4 q 76 78 63 47 q 188 314 86 100 q 54 156 114 235 q 44 158 44 142 q 51 178 44 169 q 203 376 150 300 q 286 399 272 386 q 301 400 300 411 q 295 387 301 394 q 182 178 289 379 q 135 56 135 89 q 154 36 135 36 q 310 169 197 36 l 340 204 q 258 82 357 188 m 336 531 q 303 567 303 531 q 322 596 303 583 q 355 608 340 608 q 378 597 369 608 q 386 578 386 585 q 368 542 386 553 q 336 531 350 531 z "},"j":{"ha":188,"x_min":-582,"x_max":321,"o":"m 315 593 q 321 578 321 585 q 317 560 321 571 q 299 539 314 549 q 267 531 283 529 q 243 544 251 532 q 240 572 235 556 q 259 597 244 588 q 281 606 274 606 q 298 605 289 606 q 315 593 307 604 m -561 -268 l -565 -303 q -526 -399 -565 -365 q -430 -433 -486 -433 q -321 -412 -374 -433 q -119 -250 -203 -361 q 125 285 18 -62 q 140 331 138 328 q 192 365 158 350 q 248 382 228 382 q 272 374 268 382 q 260 363 272 363 q 213 336 231 363 q 25 -79 179 289 q -51 -236 -14 -169 q -151 -368 -89 -303 q -276 -460 -214 -433 q -393 -486 -337 -486 q -497 -461 -449 -486 q -582 -310 -582 -417 l -582 -286 q -565 -265 -582 -265 q -561 -268 -561 -265 z "},"k":{"ha":450,"x_min":11,"x_max":671,"o":"m 406 390 q 436 367 436 390 q 425 329 436 349 q 410 303 414 310 q 405 294 407 297 q 399 294 403 292 q 394 299 394 296 q 351 325 394 325 q 242 256 308 325 q 299 53 271 96 q 339 35 310 35 q 522 204 392 36 q 526 188 528 197 q 506 157 524 179 q 378 24 438 71 q 303 -7 340 -7 q 243 17 265 -7 q 188 194 219 49 q 79 17 103 88 q 42 -2 72 0 q 11 6 11 -4 q 17 20 11 8 q 53 102 22 32 q 95 198 83 172 q 133 283 107 224 q 178 378 160 342 q 276 563 249 513 q 433 765 342 681 q 614 850 525 850 q 653 838 636 850 q 671 804 671 826 l 671 764 q 665 758 671 758 q 658 761 658 758 q 606 799 658 799 q 503 778 553 799 q 417 719 453 758 q 340 618 381 681 q 124 142 249 476 q 183 217 156 185 q 192 256 181 240 q 217 284 204 271 q 233 303 229 297 l 238 279 q 406 390 346 390 z "},"l":{"ha":297,"x_min":43,"x_max":582,"o":"m 546 851 q 581 807 581 851 q 460 569 581 733 q 174 261 357 426 q 119 118 138 194 q 115 89 115 103 q 167 35 115 35 q 185 36 175 35 q 371 206 243 47 q 374 194 374 203 q 338 140 374 185 q 283 76 301 94 q 140 -3 204 -3 q 68 67 68 -3 q 113 219 68 122 l 54 156 q 44 158 44 142 q 55 183 44 169 q 97 233 65 196 q 144 289 129 271 q 224 446 164 325 q 413 785 350 701 q 473 821 428 790 q 546 851 518 851 m 436 583 q 535 810 535 744 q 522 826 535 826 q 342 585 476 826 q 197 317 228 379 q 436 583 335 431 z "},"m":{"ha":653,"x_min":43,"x_max":728,"o":"m 663 360 q 639 307 663 342 q 567 178 615 272 q 519 60 519 85 q 539 36 519 36 q 609 77 564 36 q 688 157 654 118 q 725 204 721 196 q 728 192 728 200 q 710 160 728 183 q 489 -6 593 3 q 460 1 472 -7 q 447 22 447 8 q 454 56 447 35 q 468 93 461 78 q 523 207 497 158 q 576 317 549 256 q 557 328 590 346 q 372 139 468 272 q 310 24 324 74 q 276 13 290 7 q 261 41 261 18 q 307 164 261 64 q 382 317 354 256 q 363 328 396 346 q 253 235 317 299 q 161 104 190 171 q 117 -3 149 75 q 84 -12 108 -3 q 56 -21 60 -21 q 56 -8 50 -21 q 80 47 63 6 q 122 153 97 89 q 188 314 171 275 q 54 156 114 235 q 44 158 44 142 q 51 178 44 169 q 203 376 150 300 q 283 396 272 386 q 297 406 294 406 q 301 400 300 406 q 292 384 301 394 q 183 188 283 374 q 257 271 192 197 q 339 342 289 304 q 438 383 396 383 q 464 363 464 383 q 449 322 464 344 l 386 206 l 451 271 q 533 342 483 304 q 626 383 590 383 q 663 360 663 383 z "},"n":{"ha":458,"x_min":43,"x_max":533,"o":"m 468 360 q 445 308 468 342 q 376 183 422 275 q 331 66 331 90 q 351 42 331 42 q 403 67 371 42 q 462 122 436 93 q 531 204 488 151 q 533 192 533 200 q 515 160 533 183 q 396 26 444 64 q 308 -11 347 -11 q 264 33 264 -11 q 309 166 264 76 q 382 317 354 256 q 363 328 396 346 q 117 -3 204 229 q 84 -12 108 -3 q 56 -21 60 -21 q 56 -8 50 -21 q 80 47 63 6 q 122 153 97 89 q 188 314 171 275 q 54 156 114 235 q 44 158 44 142 q 51 178 44 169 q 203 376 150 300 q 283 396 272 386 q 297 406 294 406 q 301 400 300 406 q 292 384 301 394 q 183 188 283 374 q 339 342 250 275 q 432 383 396 383 q 468 360 468 383 z "},"o":{"ha":368,"x_min":13,"x_max":436,"o":"m 388 332 q 313 149 388 257 q 260 88 283 110 q 429 190 351 88 q 436 185 436 197 q 431 167 436 174 q 269 68 360 68 q 244 69 257 68 q 69 -3 167 -3 q 13 46 13 -3 q 89 231 13 125 q 207 340 138 300 q 332 386 281 386 q 388 332 388 386 m 321 331 q 296 364 321 364 q 264 355 288 364 q 205 309 240 346 q 138 215 169 272 q 78 69 78 117 q 103 21 78 21 q 146 34 122 21 q 183 61 169 47 q 274 185 226 107 q 321 331 321 264 z "},"p":{"ha":354,"x_min":-582,"x_max":415,"o":"m -561 -268 l -565 -303 q -526 -399 -565 -365 q -430 -433 -486 -433 q -321 -412 -374 -433 q 32 24 -111 -322 q 81 146 49 64 q 192 408 151 329 q 381 581 276 581 q 406 573 394 581 q 415 551 417 565 l 413 513 q 409 508 413 508 q 406 510 406 508 q 371 539 406 539 q 143 211 233 539 q 168 237 144 213 q 214 281 192 261 q 267 325 236 300 q 376 378 329 378 q 400 347 400 378 q 399 332 400 340 q 288 103 383 218 q 83 -12 193 -12 q 50 -8 54 -12 q -289 -465 -74 -374 q -393 -486 -337 -486 q -497 -461 -449 -486 q -582 -310 -582 -417 l -582 -286 q -565 -265 -582 -265 q -561 -268 -561 -265 m 332 313 q 319 331 332 331 q 249 285 299 331 q 172 207 200 240 q 75 39 75 92 q 110 11 75 11 q 193 60 144 11 q 281 183 229 93 q 332 313 332 272 z "},"q":{"ha":388,"x_min":-12,"x_max":464,"o":"m 460 204 q 463 192 463 200 q 449 164 463 183 q 299 -35 346 29 q 175 -223 251 -99 q 72 -432 99 -347 q 37 -462 67 -447 q -2 -476 7 -476 q -11 -462 -11 -476 q 116 -159 -11 -447 q 260 156 243 129 q 153 55 218 113 q 32 -3 88 -3 q 7 28 7 -3 l 7 38 q 72 204 17 117 q 193 343 128 292 q 297 379 238 379 l 457 379 q 464 374 464 379 q 451 363 464 363 q 401 317 431 363 q 246 34 332 208 q 117 -261 160 -140 q 460 204 203 -118 m 335 335 q 300 361 335 361 q 222 321 265 361 q 128 191 179 281 q 76 61 76 101 q 89 44 76 44 q 232 167 129 44 q 335 335 335 290 z "},"r":{"ha":378,"x_min":43,"x_max":453,"o":"m 408 275 q 369 339 408 339 q 256 255 329 339 q 146 75 183 171 l 117 -3 q 83 -11 108 -3 q 57 -19 58 -19 q 56 -7 50 -19 q 80 47 63 6 q 122 153 97 89 q 188 314 171 275 q 54 156 114 235 q 44 158 44 142 q 51 178 44 169 q 203 376 150 300 q 283 396 272 386 q 297 406 294 406 q 301 400 300 406 q 293 385 301 394 q 200 219 285 375 q 295 332 238 276 q 394 388 353 388 q 447 353 435 388 q 453 338 453 346 q 450 316 453 329 q 444 294 447 303 q 422 253 429 260 q 408 244 418 246 q 406 247 407 246 q 408 275 408 263 z "},"s":{"ha":322,"x_min":-1,"x_max":340,"o":"m 304 256 q 301 265 299 256 q 304 291 304 275 q 296 326 304 307 q 251 364 282 364 q 201 345 219 364 q 182 311 182 326 q 184 285 182 296 q 200 257 186 275 q 233 219 214 239 q 286 122 286 164 q 264 47 286 79 q 131 -22 217 -22 q 47 -4 86 -22 q -1 64 -1 18 q 7 103 -1 79 q 31 140 15 128 q 40 138 39 144 q 31 89 31 108 q 90 10 31 46 q 126 -1 107 -1 q 215 23 194 -1 q 235 82 235 47 q 190 164 235 117 q 138 263 138 222 q 68 174 121 239 q 56 171 57 158 q 67 199 54 183 q 175 350 90 224 q 261 390 211 390 q 340 336 339 390 q 321 269 340 308 q 304 256 314 256 z "},"t":{"ha":275,"x_min":43,"x_max":408,"o":"m 161 381 l 204 379 q 313 572 258 453 q 351 588 325 574 q 390 615 378 603 q 405 626 401 626 q 408 623 408 626 q 397 607 408 619 q 342 524 386 594 q 263 379 299 454 l 375 379 q 390 375 389 379 q 381 367 392 371 q 362 361 371 364 q 322 356 353 358 q 238 328 254 351 q 183 211 222 306 q 161 36 111 36 q 319 169 204 36 l 346 203 q 349 190 349 199 q 333 160 349 181 q 103 -4 206 -4 q 69 22 69 -4 q 124 164 69 56 l 199 332 q 54 156 57 160 q 44 158 44 142 q 51 178 44 169 q 182 343 146 296 q 107 336 169 343 q 117 358 93 336 q 151 381 142 381 l 161 381 z "},"u":{"ha":546,"x_min":43,"x_max":621,"o":"m 542 365 q 447 237 500 353 q 393 78 393 121 q 414 36 393 36 q 496 81 439 36 q 606 192 557 128 q 618 206 617 204 q 621 188 622 197 q 603 160 619 179 q 374 -4 481 -4 q 325 33 325 -4 q 343 110 325 58 q 376 192 361 163 q 125 -4 240 -4 q 92 22 92 -4 q 146 164 92 56 q 179 232 158 189 q 208 289 200 275 q 215 309 215 303 q 211 315 215 315 q 157 275 201 315 q 54 156 113 235 q 44 158 44 142 q 51 178 44 169 q 144 294 108 254 q 183 338 179 333 q 198 352 186 342 q 217 367 210 363 q 276 383 244 383 q 307 360 307 383 q 283 307 307 342 q 212 178 260 272 q 164 60 164 85 q 183 36 164 36 q 267 90 210 36 q 447 351 354 174 q 464 374 460 374 l 483 374 q 553 386 528 374 q 557 388 554 388 q 560 382 560 388 q 542 365 560 371 z "},"v":{"ha":408,"x_min":43,"x_max":454,"o":"m 235 18 q 131 3 165 -25 q 114 58 113 18 q 156 289 114 178 q 96 209 136 261 q 54 156 56 157 q 44 158 44 142 q 51 178 44 169 q 181 363 129 282 q 249 386 231 369 q 258 392 254 392 q 261 386 261 392 q 257 375 261 381 q 200 233 232 338 q 168 80 168 129 q 192 31 168 31 q 336 172 247 31 q 403 336 400 276 q 392 375 403 368 q 384 383 381 379 q 392 388 388 388 q 404 385 396 388 q 419 379 413 382 q 449 356 443 368 q 454 328 454 344 q 365 161 454 278 q 235 18 276 44 z "},"w":{"ha":694,"x_min":43,"x_max":750,"o":"m 396 3 q 375 58 375 18 q 403 238 378 144 q 383 203 396 226 q 364 169 371 181 q 229 15 278 44 q 131 3 167 -25 q 114 58 113 18 q 156 289 114 178 q 96 209 136 261 q 54 156 56 157 q 44 158 44 142 q 51 178 44 169 q 181 363 129 282 q 246 383 231 369 q 261 386 261 397 q 257 375 261 381 q 200 233 232 338 q 168 80 168 129 q 193 31 168 31 q 340 183 244 31 q 394 282 361 217 q 438 363 428 347 q 502 383 486 369 q 518 386 518 397 q 515 375 519 381 q 461 234 490 339 q 432 80 432 129 q 461 31 432 31 q 500 42 475 31 q 551 79 525 53 q 685 283 644 174 q 694 381 710 350 q 677 395 688 392 q 674 404 667 399 q 687 410 682 410 q 694 410 692 410 q 750 349 750 396 q 739 300 750 328 q 642 139 708 221 q 505 15 576 57 q 396 3 433 -26 z "},"x":{"ha":415,"x_min":-18,"x_max":501,"o":"m 454 368 l 497 367 q 501 356 501 367 q 496 346 501 346 q 217 175 413 342 q 248 79 225 122 q 294 36 271 36 q 342 77 317 36 q 378 158 367 118 q 388 166 382 172 q 392 151 393 160 q 346 42 379 93 q 269 -8 313 -8 q 194 53 226 -8 q 164 131 172 96 q 90 57 133 104 q 35 -1 46 10 q 4 -7 25 -11 q -17 3 -17 -3 q -8 17 -17 10 q 160 151 97 100 q 135 300 135 271 q 167 348 135 329 q 220 367 199 367 q 243 358 242 367 q 232 351 239 353 q 201 279 201 351 q 211 196 201 243 q 414 357 250 229 q 454 368 431 368 z "},"y":{"ha":478,"x_min":-285,"x_max":569,"o":"m 307 360 q 283 307 307 342 q 212 178 260 272 q 164 60 164 85 q 183 36 164 36 q 274 97 210 36 q 391 249 338 158 q 456 346 444 340 q 529 379 515 376 q 556 382 543 382 q 569 372 569 382 q 557 363 569 363 q 510 336 528 363 q 322 -79 476 289 q 246 -237 283 -171 q 146 -368 208 -303 q -96 -486 33 -486 q -200 -461 -151 -486 q -285 -310 -285 -417 l -285 -286 q -268 -265 -285 -265 q -265 -268 -265 -265 l -268 -303 q -228 -399 -268 -365 q -133 -433 -189 -433 q -24 -412 -76 -433 q 177 -249 94 -361 q 329 24 260 -137 q 400 217 363 106 q 281 75 335 128 q 125 -4 199 -4 q 92 22 92 -4 q 146 164 92 56 q 179 232 158 189 q 208 289 200 275 q 215 309 215 303 q 211 315 215 315 q 157 275 201 315 q 54 156 113 235 q 44 156 46 143 q 51 178 43 169 q 144 294 108 254 q 183 338 179 333 q 198 352 186 342 q 217 367 210 363 q 276 383 244 383 q 307 360 307 383 z "},"z":{"ha":325,"x_min":-24,"x_max":519,"o":"m 68 63 q 131 81 103 81 q 174 78 160 81 q 214 57 188 76 q 297 -17 242 36 q 451 -119 400 -119 q 490 -106 476 -117 q 497 -81 503 -96 q 464 -32 489 -50 q 467 -23 458 -26 q 479 -22 475 -19 q 519 -89 519 -42 q 504 -134 519 -111 q 465 -167 489 -157 q 424 -176 442 -176 l 397 -172 q 342 -135 374 -165 q 275 -63 311 -104 q 228 -9 239 -22 q 213 8 217 4 q 200 24 210 13 q 185 38 190 35 q 170 49 179 42 q 154 58 161 56 q 113 65 138 65 q 59 46 88 65 q 24 2 31 26 q 11 -32 17 -22 q -11 -37 0 -47 q -22 -20 -22 -28 q -12 3 -22 -12 q 50 76 -3 19 q 131 156 103 132 q 230 243 160 181 q 344 342 300 306 q 132 313 153 342 q 110 300 119 297 q 111 313 101 303 q 147 368 121 322 q 192 365 151 365 l 376 369 q 396 353 388 369 q 406 325 404 338 q 203 178 225 196 q 68 63 181 160 z "},"{":{"ha":492,"x_min":108,"x_max":746,"o":"m 658 778 q 707 779 683 779 q 738 770 731 779 q 746 756 746 761 q 711 760 728 760 q 661 757 694 760 q 529 672 578 750 q 486 579 513 643 q 433 467 460 515 q 368 392 406 419 q 225 322 307 342 q 315 238 315 301 q 267 90 315 188 q 215 -44 219 -7 q 220 -95 211 -82 q 242 -111 229 -108 q 294 -119 267 -119 q 338 -117 321 -119 q 313 -140 326 -140 q 139 -103 174 -140 q 125 -74 125 -87 q 175 85 125 -15 q 233 238 233 197 q 203 295 233 279 q 108 317 172 311 l 126 335 q 263 369 211 336 q 351 475 315 401 q 385 557 356 482 q 658 778 461 749 z "},"|":{"ha":506,"x_min":89,"x_max":479,"o":"m 89 0 q 414 801 103 39 l 479 801 q 305 391 461 776 q 147 0 149 6 l 89 0 z "},"}":{"ha":571,"x_min":-49,"x_max":590,"o":"m 39 -140 q -12 -144 10 -144 q -40 -137 -33 -144 q -49 -119 -46 -129 q -14 -124 -31 -124 q 168 -36 118 -124 q 211 57 185 -7 q 329 246 269 197 q 472 314 394 294 q 382 399 382 335 q 430 546 382 449 q 482 681 478 643 q 478 731 486 718 q 457 747 469 744 q 404 756 431 756 q 360 753 378 756 q 385 778 374 778 q 558 739 522 778 q 572 710 572 724 q 522 553 572 653 q 465 399 465 439 q 496 342 465 358 q 590 319 526 325 l 572 301 q 434 267 486 300 q 347 161 382 235 q 313 79 335 135 q 39 -140 236 -114 z "},"~":{"ha":385,"x_min":104,"x_max":413,"o":"m 413 489 q 376 460 401 476 q 329 443 351 443 q 254 462 307 443 q 176 481 201 481 q 115 451 150 481 l 104 465 q 179 508 156 508 q 254 489 203 508 q 328 469 306 469 q 360 472 350 469 q 374 478 369 475 q 389 488 379 481 q 404 499 399 496 l 413 489 z "},"":{"ha":1175,"x_min":0,"x_max":0,"o":""},"":{"ha":231,"x_min":0,"x_max":0,"o":""},"":{"ha":340,"x_min":-54,"x_max":383,"o":"m -42 -164 q -43 -164 -42 -164 q -53 -143 -53 -164 q -53 -139 -53 -140 q -24 -97 -44 -133 q 251 442 11 -39 q 281 461 258 456 q 288 457 288 460 q 76 -94 82 -78 q 68 -117 71 -111 q -42 -164 -4 -133 m 328 575 q 292 592 300 592 q 277 590 283 592 q 271 596 271 589 q 279 610 272 601 q 331 642 318 642 q 332 642 332 642 q 382 610 382 642 q 369 599 382 607 q 350 586 357 592 q 328 575 333 575 z "},"":{"ha":521,"x_min":74,"x_max":563,"o":"m 521 524 q 447 593 521 593 q 438 593 442 593 q 271 132 331 304 q 279 132 275 132 q 413 174 344 132 q 524 279 481 215 q 534 278 531 289 q 535 263 538 267 q 414 142 488 188 q 257 94 340 96 q 211 -47 222 -6 q 158 -69 160 -69 q 156 -68 156 -69 q 214 99 169 -25 q 192 103 213 99 q 102 165 131 118 q 74 264 74 211 q 117 411 74 335 q 235 543 161 488 q 414 610 308 599 l 454 710 q 481 724 458 721 q 486 719 486 722 l 444 611 q 527 594 492 611 q 563 550 563 578 q 546 510 563 536 q 526 475 529 485 q 511 465 524 465 q 508 468 510 468 q 521 524 521 490 m 150 254 q 229 139 150 165 q 406 589 310 356 q 283 525 336 569 q 154 303 178 432 q 150 254 150 276 z "},"":{"ha":863,"x_min":-1,"x_max":858,"o":"m 124 25 l 539 13 q 685 35 667 13 q 704 72 704 58 q 669 132 704 113 q 667 142 660 136 q 717 106 683 153 q 754 42 750 58 q 758 8 758 26 q 735 -28 758 -10 q 656 -47 711 -47 q 368 -25 578 -47 q 103 0 128 0 q 7 -31 46 0 q 1 -28 3 -35 q 0 -11 0 -21 q 10 4 0 -1 q 28 10 21 10 q 141 58 85 11 q 224 157 197 104 l 311 333 q 181 329 235 333 q 194 350 172 328 q 224 372 215 372 q 328 368 251 368 q 449 596 426 561 q 600 740 519 708 q 704 760 647 760 q 824 731 772 760 q 857 678 857 711 q 853 653 857 667 q 822 606 849 639 q 786 554 794 574 q 769 539 778 535 q 768 553 761 543 q 801 654 801 599 q 790 706 801 682 q 725 743 774 743 q 575 650 636 743 l 393 367 q 597 371 493 367 q 592 360 600 371 q 554 326 569 326 q 383 333 478 333 l 372 333 l 258 158 q 124 25 185 43 z "},"":{"ha":592,"x_min":119,"x_max":800,"o":"m 125 133 q 121 164 121 133 q 125 218 121 194 q 135 246 129 242 q 251 338 153 257 q 213 472 213 399 q 250 601 213 544 q 135 694 182 656 q 122 733 122 700 q 128 807 122 807 l 297 657 q 460 718 368 718 q 624 654 553 718 l 793 807 q 800 771 800 807 q 785 694 800 701 q 668 603 778 688 q 707 469 707 542 q 668 338 707 396 q 785 246 769 254 q 800 174 800 235 q 794 135 800 133 l 624 286 q 460 224 554 224 q 294 286 365 224 l 125 133 m 336 594 q 310 568 336 594 q 283 468 283 542 q 336 342 283 394 q 463 289 389 289 q 589 342 536 289 q 642 468 642 394 q 589 594 642 542 q 463 647 536 647 q 336 594 389 647 z "},"":{"ha":628,"x_min":11,"x_max":1006,"o":"m 418 721 q 506 481 506 664 q 474 281 506 390 q 578 438 483 294 q 721 635 674 581 q 791 713 768 689 q 859 765 814 736 q 940 794 904 794 q 997 757 979 794 q 1004 729 1004 742 q 1001 707 1004 717 q 983 658 996 683 q 976 653 981 651 q 973 663 971 654 q 975 688 975 672 q 967 722 975 704 q 922 751 954 751 q 749 628 856 751 q 471 225 610 465 q 614 229 539 225 q 610 219 617 229 q 578 192 590 192 l 456 197 l 428 149 q 312 1 375 56 q 163 -54 249 -54 q 81 -29 118 -54 q 11 124 11 15 q 18 143 11 144 q 25 131 25 142 q 57 33 25 68 q 140 -1 89 -1 q 421 197 276 -1 q 258 193 304 197 q 269 212 250 192 q 294 231 288 232 q 394 226 319 226 q 444 521 444 379 q 393 721 444 663 l 360 721 q 143 621 143 721 q 160 561 143 597 l 146 550 q 91 653 92 644 q 90 667 90 661 q 111 726 90 707 q 235 758 147 758 l 376 753 q 599 754 475 754 l 569 718 q 418 721 521 718 z "},"":{"ha":518,"x_min":89,"x_max":479,"o":"m 224 336 l 283 339 l 147 0 l 89 0 q 224 336 103 40 m 343 485 l 285 485 q 414 801 399 760 l 479 801 q 343 485 463 775 z "},"":{"ha":753,"x_min":10,"x_max":822,"o":"m 567 -10 q 461 -165 554 -103 q 274 -228 368 -228 q 106 -191 179 -228 q 14 -76 32 -154 q 11 -37 11 -61 q 27 31 11 -12 q 78 100 43 74 q 83 97 79 101 q 86 83 93 90 q 60 14 60 53 q 92 -85 60 -37 q 181 -158 124 -129 q 310 -190 243 -190 q 456 -117 408 -190 q 482 -27 482 -74 q 465 65 482 19 q 397 197 449 111 q 339 294 346 282 q 311 399 311 347 q 346 500 311 451 q 440 575 382 549 q 472 680 440 635 q 556 751 504 725 q 674 781 613 781 q 813 721 760 781 q 821 685 821 708 q 797 625 821 663 q 765 558 774 588 q 751 553 761 556 q 739 554 742 551 q 763 650 763 601 q 744 714 763 699 q 638 751 704 751 q 504 688 546 751 q 479 617 479 650 q 492 557 479 585 q 596 428 513 506 q 704 303 679 351 q 729 225 729 256 q 683 83 729 139 q 567 -10 625 13 m 363 479 q 351 427 351 453 q 364 375 351 401 q 458 237 383 328 q 549 101 532 146 q 569 19 567 57 q 578 26 571 22 q 646 163 646 72 q 622 260 646 214 q 542 373 599 306 q 466 478 486 440 q 442 557 446 517 q 363 479 385 533 z "},"":{"ha":346,"x_min":104,"x_max":379,"o":"m 157 513 q 106 544 106 513 q 131 564 106 549 q 158 579 156 579 q 174 571 160 579 q 196 563 188 563 q 210 564 204 563 q 217 558 217 565 q 208 544 215 553 q 157 513 169 513 m 318 513 q 267 544 267 513 q 303 571 267 549 l 321 579 q 357 563 349 563 q 372 564 365 563 q 378 558 378 565 q 369 544 376 553 q 318 513 331 513 z "},"":{"ha":993,"x_min":54,"x_max":946,"o":"m 946 483 q 908 301 946 393 q 795 137 869 208 q 624 30 721 65 q 435 -6 528 -6 q 389 -4 413 -6 q 56 239 69 19 q 56 277 56 247 q 72 373 56 307 q 133 511 89 439 q 241 641 178 583 q 390 728 304 699 q 561 757 475 757 q 606 756 583 757 q 856 685 775 743 q 946 483 946 621 m 586 736 q 421 690 507 736 q 269 565 335 643 q 167 398 204 486 q 131 239 131 310 q 376 18 131 36 q 410 17 393 17 q 584 56 497 17 q 735 170 671 96 q 831 333 799 244 q 864 506 864 422 q 863 532 864 518 q 608 735 851 715 q 586 736 597 736 m 672 482 q 685 534 685 504 q 672 585 685 564 q 611 608 660 608 q 447 539 524 608 q 317 317 340 446 q 313 269 313 290 q 389 154 313 181 q 457 144 417 144 q 550 172 497 144 q 688 293 635 217 q 697 292 693 303 q 699 276 701 281 q 547 139 642 185 q 437 108 486 108 q 347 118 388 108 q 275 163 306 128 q 239 272 239 204 q 300 456 239 369 q 494 606 376 564 q 604 625 554 625 q 690 608 654 625 q 725 564 725 592 q 709 524 725 550 q 689 486 693 499 q 672 482 683 482 z "},"":{"ha":408,"x_min":4,"x_max":485,"o":"m 482 626 q 485 615 485 624 q 465 581 485 607 q 236 417 342 417 q 203 443 203 417 q 257 576 203 492 q 146 472 208 525 q 29 418 83 418 q 4 449 4 418 q 6 458 4 456 q 69 625 15 538 q 294 800 178 800 l 454 800 q 461 794 461 800 q 449 783 461 783 q 400 738 429 783 q 323 599 371 693 q 275 481 275 506 q 294 457 275 457 q 383 514 326 457 q 429 563 414 544 q 449 586 444 581 q 482 626 454 592 m 333 756 q 298 782 333 782 q 219 742 263 782 q 126 612 176 701 q 75 482 75 522 q 86 465 75 465 q 230 588 126 465 q 333 756 333 711 z "},"":{"ha":493,"x_min":147,"x_max":515,"o":"m 313 274 q 383 358 314 285 q 474 452 453 432 q 505 472 494 472 q 515 467 515 472 q 371 303 513 456 q 411 244 376 297 q 460 160 463 169 q 444 144 457 144 l 436 149 q 395 199 415 182 q 369 222 375 217 q 340 246 364 228 q 314 267 317 264 q 313 274 311 272 m 318 461 q 341 472 332 472 q 350 467 350 472 q 288 392 349 458 q 206 303 228 325 q 221 281 208 299 q 245 247 233 264 q 269 211 257 231 q 294 160 297 171 q 279 144 292 144 l 271 149 q 204 222 249 190 q 175 246 196 229 q 149 267 154 263 q 148 277 147 269 q 218 358 149 285 q 318 461 288 432 z "},"":{"ha":575,"x_min":85,"x_max":521,"o":"m 460 314 q 386 315 439 315 q 85 310 156 315 l 101 342 l 296 342 q 511 344 475 342 l 521 340 q 461 208 482 278 l 403 210 q 460 314 406 217 z "},"":{"ha":346,"x_min":103,"x_max":338,"o":"m 224 206 l 104 203 q 117 223 104 207 q 136 239 131 239 l 226 233 q 299 235 261 233 q 338 236 338 238 q 333 226 338 235 q 319 209 328 218 q 304 200 310 200 q 283 203 299 200 q 224 206 260 206 z "},"":{"ha":982,"x_min":54,"x_max":946,"o":"m 946 481 q 795 138 946 281 q 438 -6 644 -6 q 389 -4 414 -6 q 56 239 69 19 q 56 277 56 247 q 72 373 56 307 q 133 511 89 439 q 241 641 178 583 q 390 728 304 699 q 561 757 475 757 q 606 756 583 757 q 856 685 775 743 q 946 481 946 621 m 421 690 q 378 666 421 690 q 269 565 335 643 q 167 398 204 486 q 131 238 131 310 q 163 115 131 167 l 164 115 q 225 163 204 124 q 396 471 263 224 q 457 588 443 554 q 458 632 471 621 q 426 643 436 632 q 454 653 419 651 q 547 654 489 654 l 614 656 q 681 643 646 656 q 746 549 746 622 q 619 386 746 438 q 493 358 557 361 q 594 194 532 271 q 667 156 626 156 q 751 200 707 156 q 788 244 772 219 q 864 499 864 357 q 863 532 864 515 q 608 735 851 715 q 586 736 597 736 q 421 690 507 736 m 724 158 q 619 115 667 115 q 532 167 571 115 q 438 329 479 236 q 425 357 426 354 q 453 382 443 382 q 457 382 456 382 q 577 416 514 382 q 665 521 640 450 q 672 559 672 540 q 667 594 672 578 q 618 633 653 629 q 593 635 604 635 q 541 614 557 635 q 506 560 525 593 q 474 505 486 528 q 442 440 463 482 q 414 385 421 397 q 306 149 306 185 q 307 140 306 144 q 294 140 308 136 q 270 144 281 144 q 231 129 260 144 q 168 108 176 103 q 376 18 224 31 q 411 17 394 17 q 724 158 589 17 z "},"":{"ha":347,"x_min":156,"x_max":396,"o":"m 388 539 l 174 526 q 161 536 168 526 q 156 554 151 547 q 272 561 182 561 q 396 547 371 561 q 396 543 397 547 q 388 539 394 539 z "},"":{"ha":294,"x_min":125,"x_max":343,"o":"m 301 414 q 280 398 301 414 q 217 382 260 382 q 150 408 174 382 q 126 463 126 433 q 166 544 126 513 q 249 575 206 575 q 317 550 293 575 q 342 494 342 525 q 301 414 342 446 m 184 438 q 191 430 184 438 q 224 422 199 422 q 273 441 249 422 q 297 494 297 460 q 283 521 297 506 q 243 536 268 536 q 197 519 218 536 q 169 476 169 499 q 184 438 169 453 z "},"":{"ha":515,"x_min":35,"x_max":633,"o":"m 631 415 q 633 412 633 415 q 613 386 633 408 q 582 365 592 364 q 392 372 474 371 l 390 367 q 321 185 328 218 q 281 161 317 169 q 244 156 244 153 q 343 372 268 200 q 128 367 189 372 q 142 392 118 367 q 176 417 167 418 q 358 411 208 411 q 417 569 404 525 q 478 597 422 585 q 490 600 486 600 q 494 597 494 600 q 408 411 442 488 q 631 415 531 411 m 83 58 l 268 51 q 427 54 346 51 q 508 55 508 57 q 500 43 508 53 q 460 11 474 11 q 265 18 286 18 l 35 14 q 55 38 35 18 q 83 58 75 58 z "},"":{"ha":306,"x_min":-8,"x_max":378,"o":"m 283 831 q 378 760 378 831 q 331 656 378 707 q 197 539 283 604 q 94 460 110 474 q 85 446 75 446 q 151 443 85 446 q 239 453 219 443 q 278 486 258 464 q 303 521 297 508 l 322 514 q 283 451 307 499 q 221 403 260 403 l 136 406 q 88 403 115 406 q -8 397 60 401 q 167 557 150 540 q 319 758 319 700 q 307 788 319 774 q 261 803 294 803 q 242 803 260 803 q 201 788 225 803 q 167 742 176 772 l 161 703 l 128 686 q 153 794 150 764 q 247 829 153 829 q 283 831 274 831 z "},"":{"ha":306,"x_min":28,"x_max":375,"o":"m 285 831 q 374 763 374 831 q 350 700 374 725 q 258 642 319 663 l 261 640 q 319 610 303 636 q 335 567 335 585 q 331 526 335 550 q 303 468 326 503 q 124 393 253 393 q 48 405 67 393 q 29 425 29 417 q 33 438 29 429 q 57 514 38 446 l 81 524 q 77 504 81 519 q 72 478 74 489 q 128 422 65 422 q 224 456 189 422 q 267 522 258 489 q 276 572 276 554 q 255 603 276 590 q 208 619 233 617 q 146 622 183 622 l 167 647 l 185 650 q 317 735 299 678 q 321 759 321 746 q 308 788 321 772 q 263 803 296 803 q 242 803 260 803 q 201 789 224 803 q 169 743 179 775 q 161 703 160 711 l 128 686 q 151 788 150 764 q 247 829 154 829 q 285 831 275 831 z "},"":{"ha":179,"x_min":38,"x_max":225,"o":"m 221 617 q 225 598 225 617 q 219 574 225 579 q 133 515 213 561 q 38 465 54 468 q 39 475 36 465 q 149 565 89 513 q 221 617 208 617 z "},"":{"ha":349,"x_min":-229,"x_max":386,"o":"m 288 7 q 247 56 247 7 q 272 178 247 86 q 63 4 210 94 q -112 -287 -74 -203 q -164 -462 -164 -400 q -110 -525 -164 -525 q 4 -489 -62 -525 q -44 -523 -8 -508 q -104 -537 -79 -537 q -196 -502 -162 -537 q -229 -428 -229 -467 q -122 -199 -229 -357 q -43 -85 -93 -154 q 35 26 7 -15 q 83 99 63 67 q 129 186 103 131 q 164 289 156 242 q 106 208 154 268 q 32 124 57 149 q 28 122 31 124 q 24 126 24 122 q 26 132 24 129 q 38 147 28 135 q 59 172 47 158 q 74 189 71 185 q 167 332 139 272 q 200 361 179 361 q 215 343 215 361 q 210 298 215 325 q 185 224 206 271 q 130 118 164 178 q 85 35 96 58 q 269 193 179 94 l 279 203 q 326 301 303 281 q 354 308 335 308 q 372 297 374 308 q 339 239 367 267 q 286 63 286 121 q 314 31 286 31 q 360 49 338 31 q 384 67 382 67 q 386 61 386 67 l 385 58 q 288 7 336 7 z "},"":{"ha":686,"x_min":-267,"x_max":938,"o":"m 913 793 q 743 661 829 793 q 648 472 704 601 q 576 308 592 342 q 540 231 561 275 q 481 114 519 186 q 406 -12 442 42 q 321 -126 371 -65 q 115 -289 226 -243 q 3 -312 58 -312 l -4 -312 l -15 -312 q -219 -381 -110 -381 q -267 -362 -267 -381 q -236 -351 -268 -351 q -98 -307 -169 -351 q 30 -200 -26 -262 q 142 -53 86 -137 q 297 219 233 82 q 147 269 210 226 q 79 401 79 315 q 121 525 79 464 q 331 679 192 631 q 626 728 471 728 q 728 736 696 728 q 900 833 811 833 q 938 815 938 833 q 932 798 939 803 q 913 793 925 793 m 688 683 l 649 682 q 425 350 551 614 q 314 123 372 239 q 176 -108 256 7 q 11 -293 97 -222 q 141 -239 75 -287 q 261 -117 207 -190 q 421 147 364 24 q 688 683 624 561 z "},"":{"ha":819,"x_min":249,"x_max":660,"o":"m 575 297 q 423 243 507 243 q 294 291 339 243 q 250 394 250 339 q 335 556 250 489 q 486 610 403 610 q 615 562 569 610 q 660 456 660 514 q 575 297 660 363 z "},"":{"ha":264,"x_min":-32,"x_max":194,"o":"m 194 1 q 143 -26 164 -6 q 122 -69 122 -47 q 147 -125 122 -92 q 171 -185 171 -158 q 171 -193 171 -189 q 100 -272 161 -244 q -24 -299 39 -299 q -32 -287 -35 -299 q -19 -279 -32 -279 q 101 -244 69 -279 q 119 -204 119 -224 q 97 -148 119 -185 q 74 -83 74 -111 q 101 -26 74 -54 q 167 1 128 1 l 194 1 z "},"":{"ha":236,"x_min":-1,"x_max":289,"o":"m 269 840 q 283 844 278 844 q 289 838 289 844 q 272 799 289 832 q 203 593 249 751 q 161 449 168 493 q 206 424 158 428 q 232 424 222 422 l 213 400 q 121 408 199 404 q -1 400 86 407 l 15 424 q 31 422 21 422 q 65 428 40 422 q 99 451 89 433 q 150 597 119 492 q 196 749 196 735 q 189 764 196 764 q 136 728 179 764 l 114 713 q 119 739 115 731 q 122 750 122 747 l 269 840 z "},"":{"ha":368,"x_min":13,"x_max":436,"o":"m 388 758 q 313 575 388 683 q 260 514 283 536 q 429 617 351 514 q 436 612 436 624 q 431 593 436 600 q 269 494 360 494 q 244 496 257 494 q 69 424 167 424 q 13 472 13 424 q 89 657 13 551 q 207 767 138 726 q 332 813 281 813 q 388 758 388 813 m 321 757 q 296 790 321 790 q 264 781 288 790 q 205 735 240 772 q 138 642 169 699 q 78 495 78 543 q 103 447 78 447 q 146 460 122 447 q 183 488 169 474 q 274 613 226 533 q 321 757 321 692 z "},"":{"ha":493,"x_min":125,"x_max":510,"o":"m 339 149 q 315 138 325 138 q 308 144 306 138 q 453 308 310 156 q 363 448 363 431 q 378 465 363 465 l 386 461 q 454 386 413 419 q 508 343 483 364 q 510 333 511 340 q 439 251 508 325 q 339 149 369 178 m 156 149 q 132 138 142 138 q 125 144 122 138 q 269 308 126 156 q 179 448 179 431 q 194 465 179 465 l 203 461 q 271 386 229 419 q 325 343 300 364 q 326 333 328 340 q 256 251 325 325 q 156 149 186 178 z "},"":{"ha":1368,"x_min":338,"x_max":1131,"o":"m 1035 847 q 1063 853 1039 853 q 1131 847 1104 853 q 761 417 1036 747 q 397 -36 486 86 q 376 -46 392 -46 q 338 -35 339 -46 q 713 459 492 181 q 1035 847 933 738 z "},"":{"ha":913,"x_min":-46,"x_max":899,"o":"m 204 597 q 250 749 250 735 q 243 764 250 764 q 190 728 233 764 l 168 713 q 173 739 169 731 q 176 750 176 747 q 313 833 288 818 q 342 843 338 849 q 328 800 346 838 q 257 593 303 751 q 215 449 222 493 q 261 424 213 428 q 286 424 276 422 l 267 400 q 175 408 253 404 q 53 400 140 407 l 69 424 q 85 422 75 422 q 119 428 94 422 q 153 451 143 433 q 204 597 174 492 m 833 847 q 854 853 839 853 q 899 847 882 853 q 463 427 793 756 q 7 -36 133 99 q -14 -46 -1 -46 q -44 -39 -43 -46 l -43 -35 q 432 458 154 179 q 833 847 710 738 m 746 428 q 840 357 840 428 q 793 253 840 304 q 659 136 746 201 q 557 57 572 71 q 547 43 538 43 l 614 40 q 701 51 682 40 q 740 83 721 61 q 765 118 760 106 l 785 111 q 746 48 769 96 q 683 0 722 0 l 599 3 q 550 1 578 3 q 454 -6 522 -1 q 629 154 613 138 q 782 356 782 297 q 769 385 782 371 q 724 400 757 400 q 719 400 722 400 q 629 339 649 400 l 624 300 l 590 283 q 615 392 613 361 q 710 426 615 426 q 746 428 736 428 z "},"":{"ha":969,"x_min":21,"x_max":965,"o":"m 900 847 q 921 853 906 853 q 965 847 949 853 q 530 427 860 756 q 74 -36 200 99 q 53 -46 65 -46 q 22 -39 24 -46 l 24 -35 q 499 458 221 179 q 900 847 776 738 m 285 831 q 374 763 374 831 q 350 700 374 725 q 258 642 319 663 l 261 640 q 319 610 303 636 q 335 567 335 585 q 331 526 335 550 q 303 468 326 503 q 124 393 253 393 q 48 405 67 393 q 29 425 29 417 q 33 438 29 429 q 57 514 38 446 l 81 524 q 77 504 81 519 q 72 478 74 489 q 128 422 65 422 q 224 456 189 422 q 267 522 258 489 q 276 572 276 554 q 255 603 276 590 q 208 619 233 617 q 146 622 183 622 l 167 647 l 185 650 q 317 735 299 678 q 321 759 321 746 q 308 788 321 772 q 263 803 296 803 q 242 803 260 803 q 201 789 224 803 q 169 743 179 775 q 161 703 160 711 l 128 686 q 151 788 150 764 q 247 829 154 829 q 285 831 275 831 m 774 121 q 769 121 772 121 l 744 121 q 727 50 729 65 q 742 28 725 35 q 799 21 771 17 l 776 -3 q 685 6 765 1 q 564 -3 650 4 l 582 21 q 596 19 586 19 q 629 25 606 19 q 663 47 653 31 q 693 122 674 63 l 646 122 q 517 118 586 121 q 500 124 500 118 q 510 138 500 129 q 592 218 532 150 q 748 385 731 364 q 778 411 765 407 q 815 426 792 415 q 846 436 839 436 q 853 433 853 436 q 838 397 854 431 q 782 238 821 363 l 758 167 q 801 176 790 169 q 833 203 811 182 q 860 238 854 225 l 874 233 l 876 225 q 857 199 872 221 q 836 164 842 176 q 774 121 814 121 m 607 199 q 582 166 582 169 q 638 163 582 163 q 704 164 694 163 l 708 171 l 747 294 q 765 364 767 350 q 607 199 740 343 z "},"":{"ha":619,"x_min":11,"x_max":540,"o":"m 539 611 q 513 590 539 604 q 486 575 488 575 q 450 592 458 592 q 435 590 442 592 q 428 596 428 589 q 438 610 429 601 q 488 642 476 642 q 489 642 489 642 q 539 611 539 642 m 429 475 q 464 376 464 435 q 388 256 464 318 l 157 72 q 101 -33 101 28 q 154 -115 101 -93 q 199 -125 176 -125 q 253 -121 221 -125 q 313 -98 286 -117 q 363 -38 339 -79 q 396 38 388 3 q 410 57 396 53 q 424 50 425 63 q 399 -76 399 -60 q 399 -94 399 -93 q 239 -156 399 -144 q 165 -160 182 -160 q 11 -47 11 -160 q 51 71 11 25 q 135 141 90 117 q 226 186 181 165 q 385 304 343 239 q 428 403 428 369 q 414 453 428 436 l 429 475 z "},"":{"ha":1067,"x_min":28,"x_max":1353,"o":"m 1351 789 q 1332 782 1351 782 q 1306 781 1313 782 q 1257 747 1283 776 q 1113 528 1211 701 q 953 219 1014 356 q 951 215 953 218 q 901 58 901 100 q 929 15 901 15 q 1022 67 967 15 q 1121 181 1076 118 q 1134 186 1128 192 q 1132 169 1140 181 q 1107 136 1113 143 q 1089 113 1101 129 q 1067 87 1076 97 q 1042 62 1057 76 q 1015 36 1028 47 q 911 -12 956 -12 q 831 72 831 -12 q 883 247 831 136 q 1023 518 935 357 q 1154 736 1111 679 q 1053 697 1119 735 q 946 617 988 660 q 826 488 904 574 q 715 365 749 401 q 849 363 799 363 q 943 383 900 363 q 912 342 935 361 q 851 322 889 324 q 764 319 813 319 q 672 321 715 319 q 121 -35 328 -35 q 52 -11 76 -35 q 28 49 28 13 q 29 74 28 57 q 48 126 31 90 q 69 163 65 163 q 74 151 81 164 q 56 89 56 111 q 63 56 56 67 q 133 24 81 24 q 621 324 299 24 q 436 332 463 332 q 296 297 331 332 q 271 231 271 272 q 274 210 271 219 q 245 218 253 214 q 235 232 238 222 q 233 249 236 243 q 237 264 231 256 q 245 277 243 272 q 256 288 247 282 q 270 298 265 294 q 285 307 275 301 q 301 315 296 313 q 318 322 307 317 q 526 372 433 372 q 668 368 583 372 q 872 576 760 457 q 1094 724 985 694 l 1018 724 q 681 592 707 724 q 679 566 679 582 q 696 540 679 550 q 690 531 703 536 q 674 528 678 525 q 651 564 660 538 q 642 600 642 590 q 666 672 642 643 q 731 716 690 701 q 804 740 771 731 q 892 753 838 749 q 1038 757 968 757 l 1189 757 q 1190 756 1192 757 q 1318 801 1292 801 q 1351 789 1351 801 m 1054 964 q 1049 988 1049 969 q 1053 1007 1049 1007 q 1125 955 1065 1007 q 1235 865 1185 903 q 1236 856 1235 865 q 1140 905 1219 858 q 1054 964 1061 951 z "},"":{"ha":1067,"x_min":28,"x_max":1353,"o":"m 1351 789 q 1332 782 1351 782 q 1306 781 1313 782 q 1257 747 1283 776 q 1113 528 1211 701 q 953 219 1014 356 q 951 215 953 218 q 901 58 901 100 q 929 15 901 15 q 1022 67 967 15 q 1121 181 1076 118 q 1134 186 1128 192 q 1132 169 1140 181 q 1107 136 1113 143 q 1089 113 1101 129 q 1067 87 1076 97 q 1042 62 1057 76 q 1015 36 1028 47 q 911 -12 956 -12 q 831 72 831 -12 q 883 247 831 136 q 1023 518 935 357 q 1154 736 1111 679 q 1053 697 1119 735 q 946 617 988 660 q 826 488 904 574 q 715 365 749 401 q 849 363 799 363 q 943 383 900 363 q 912 342 935 361 q 851 322 889 324 q 764 319 813 319 q 672 321 715 319 q 121 -35 328 -35 q 52 -11 76 -35 q 28 49 28 13 q 29 74 28 57 q 48 126 31 90 q 69 163 65 163 q 74 151 81 164 q 56 89 56 111 q 63 56 56 67 q 133 24 81 24 q 621 324 299 24 q 436 332 463 332 q 296 297 331 332 q 271 231 271 272 q 274 210 271 219 q 245 218 253 214 q 235 232 238 222 q 233 249 236 243 q 237 264 231 256 q 245 277 243 272 q 256 288 247 282 q 270 298 265 294 q 285 307 275 301 q 301 315 296 313 q 318 322 307 317 q 526 372 433 372 q 668 368 583 372 q 872 576 760 457 q 1094 724 985 694 l 1018 724 q 681 592 707 724 q 679 566 679 582 q 696 540 679 550 q 690 531 703 536 q 674 528 678 525 q 651 564 660 538 q 642 600 642 590 q 666 672 642 643 q 731 716 690 701 q 804 740 771 731 q 892 753 838 749 q 1038 757 968 757 l 1189 757 q 1190 756 1192 757 q 1318 801 1292 801 q 1351 789 1351 801 m 1342 1007 q 1346 988 1346 1007 q 1340 964 1346 969 q 1254 905 1333 951 q 1158 856 1175 858 q 1160 865 1157 856 q 1269 955 1210 903 q 1342 1007 1329 1007 z "},"":{"ha":1067,"x_min":28,"x_max":1369,"o":"m 912 342 q 900 333 912 342 q 851 322 889 324 q 764 319 813 319 q 672 321 715 319 q 121 -35 328 -35 q 52 -11 76 -35 q 28 49 28 13 q 29 74 28 57 q 48 126 31 90 q 69 163 65 163 q 74 151 81 164 q 56 89 56 111 q 63 56 56 67 q 133 24 81 24 q 621 324 299 24 q 436 332 463 332 q 296 297 331 332 q 271 231 271 272 q 274 210 271 219 q 245 218 253 214 q 235 232 238 222 q 233 249 236 243 q 237 264 231 256 q 245 277 243 272 q 256 288 247 282 q 270 298 265 294 q 285 307 275 301 q 301 315 296 313 q 318 322 307 317 q 526 372 433 372 q 668 368 583 372 q 872 576 760 457 q 1094 724 985 694 l 1018 724 q 681 592 707 724 q 679 566 679 582 q 696 540 679 550 q 690 531 703 536 q 674 528 678 525 q 651 564 660 538 q 642 600 642 590 q 666 672 642 643 q 731 716 690 701 q 804 740 771 731 q 892 753 838 749 q 1038 757 968 757 l 1189 757 q 1190 756 1192 757 q 1319 801 1292 801 q 1350 794 1346 801 q 1346 784 1354 786 q 1325 782 1338 782 q 1306 781 1313 782 q 1257 747 1283 776 q 1113 528 1211 701 q 953 219 1014 356 q 951 215 953 218 q 901 58 901 100 q 929 15 901 15 q 1022 67 967 15 q 1121 181 1076 118 q 1134 186 1128 192 q 1132 169 1140 181 q 1107 136 1113 143 q 1089 113 1101 129 q 1067 87 1076 97 q 1042 62 1057 76 q 1015 36 1028 47 q 911 -12 956 -12 q 831 72 831 -12 q 883 247 831 136 q 1023 518 935 357 q 1154 736 1111 679 q 1053 697 1119 735 q 946 617 988 660 q 826 488 904 574 q 715 365 749 401 q 849 363 799 363 q 943 383 900 363 q 912 342 935 361 m 1335 856 q 1228 946 1303 856 q 1219 946 1228 950 q 1160 902 1204 932 q 1102 867 1115 872 q 1076 865 1089 863 q 1233 982 1178 933 l 1250 982 q 1344 885 1283 926 q 1369 874 1363 874 l 1369 869 l 1335 856 z "},"":{"ha":1067,"x_min":28,"x_max":1358,"o":"m 912 342 q 900 333 912 342 q 851 322 889 324 q 764 319 813 319 q 672 321 715 319 q 121 -35 328 -35 q 52 -11 76 -35 q 28 49 28 13 q 29 74 28 57 q 48 126 31 90 q 69 163 65 163 q 74 151 81 164 q 56 89 56 111 q 63 56 56 67 q 133 24 81 24 q 621 324 299 24 q 436 332 463 332 q 296 297 331 332 q 271 231 271 272 q 274 210 271 219 q 245 218 253 214 q 235 232 238 222 q 233 249 236 243 q 237 264 231 256 q 245 277 243 272 q 256 288 247 282 q 270 298 265 294 q 285 307 275 301 q 301 315 296 313 q 318 322 307 317 q 526 372 433 372 q 668 368 583 372 q 872 576 760 457 q 1094 724 985 694 l 1018 724 q 681 592 707 724 q 679 566 679 582 q 696 540 679 550 q 690 531 703 536 q 674 528 678 525 q 651 564 660 538 q 642 600 642 590 q 666 672 642 643 q 731 716 690 701 q 804 740 771 731 q 892 753 838 749 q 1038 757 968 757 l 1189 757 q 1190 756 1192 757 q 1319 801 1292 801 q 1350 794 1346 801 q 1346 784 1354 786 q 1325 782 1338 782 q 1306 781 1313 782 q 1257 747 1283 776 q 1113 528 1211 701 q 953 219 1014 356 q 951 215 953 218 q 901 58 901 100 q 929 15 901 15 q 1022 67 967 15 q 1121 181 1076 118 q 1134 186 1128 192 q 1132 169 1140 181 q 1107 136 1113 143 q 1089 113 1101 129 q 1067 87 1076 97 q 1042 62 1057 76 q 1015 36 1028 47 q 911 -12 956 -12 q 831 72 831 -12 q 883 247 831 136 q 1023 518 935 357 q 1154 736 1111 679 q 1053 697 1119 735 q 946 617 988 660 q 826 488 904 574 q 715 365 749 401 q 849 363 799 363 q 943 383 900 363 q 912 342 935 361 m 1358 947 q 1331 898 1350 918 q 1289 878 1313 878 q 1222 895 1265 878 q 1151 913 1178 913 q 1113 888 1124 913 l 1096 888 q 1124 928 1103 910 q 1167 947 1144 947 q 1224 933 1189 947 q 1294 917 1267 917 q 1344 947 1322 917 l 1358 947 z "},"":{"ha":1067,"x_min":28,"x_max":1353,"o":"m 1351 789 q 1332 782 1351 782 q 1306 781 1313 782 q 1257 747 1283 776 q 1113 528 1211 701 q 953 219 1014 356 q 951 215 953 218 q 901 58 901 100 q 929 15 901 15 q 1022 67 967 15 q 1121 181 1076 118 q 1134 186 1128 192 q 1132 169 1140 181 q 1107 136 1113 143 q 1089 113 1101 129 q 1067 87 1076 97 q 1042 62 1057 76 q 1015 36 1028 47 q 911 -12 956 -12 q 831 72 831 -12 q 883 247 831 136 q 1023 518 935 357 q 1154 736 1111 679 q 1053 697 1119 735 q 946 617 988 660 q 826 488 904 574 q 715 365 749 401 q 849 363 799 363 q 943 383 900 363 q 912 342 935 361 q 851 322 889 324 q 764 319 813 319 q 672 321 715 319 q 121 -35 328 -35 q 52 -11 76 -35 q 28 49 28 13 q 29 74 28 57 q 48 126 31 90 q 69 163 65 163 q 74 151 81 164 q 56 89 56 111 q 63 56 56 67 q 133 24 81 24 q 621 324 299 24 q 436 332 463 332 q 296 297 331 332 q 271 231 271 272 q 274 210 271 219 q 245 218 253 214 q 235 232 238 222 q 233 249 236 243 q 237 264 231 256 q 245 277 243 272 q 256 288 247 282 q 270 298 265 294 q 285 307 275 301 q 301 315 296 313 q 318 322 307 317 q 526 372 433 372 q 668 368 583 372 q 872 576 760 457 q 1094 724 985 694 l 1018 724 q 681 592 707 724 q 679 566 679 582 q 696 540 679 550 q 690 531 703 536 q 674 528 678 525 q 651 564 660 538 q 642 600 642 590 q 666 672 642 643 q 731 716 690 701 q 804 740 771 731 q 892 753 838 749 q 1038 757 968 757 l 1189 757 q 1190 756 1192 757 q 1318 801 1292 801 q 1351 789 1351 801 m 1278 903 q 1226 933 1250 903 q 1233 941 1226 936 q 1246 950 1240 946 q 1257 958 1251 954 q 1267 964 1263 961 q 1281 969 1278 969 q 1317 953 1308 953 q 1331 954 1325 953 q 1338 949 1338 956 q 1329 935 1336 943 q 1278 903 1290 903 m 1117 903 q 1065 935 1065 903 q 1091 956 1065 942 q 1118 969 1117 969 q 1133 961 1119 969 q 1156 953 1147 953 q 1170 954 1164 953 q 1176 949 1176 956 q 1168 935 1175 943 q 1117 903 1129 903 z "},"":{"ha":1067,"x_min":28,"x_max":1365,"o":"m 912 342 q 900 333 912 342 q 851 322 889 324 q 764 319 813 319 q 672 321 715 319 q 121 -35 328 -35 q 52 -11 76 -35 q 28 49 28 13 q 29 74 28 57 q 48 126 31 90 q 69 163 65 163 q 74 151 81 164 q 56 89 56 111 q 63 56 56 67 q 133 24 81 24 q 621 324 299 24 q 436 332 463 332 q 296 297 331 332 q 271 231 271 272 q 274 210 271 219 q 245 218 253 214 q 235 232 238 222 q 233 249 236 243 q 237 264 231 256 q 245 277 243 272 q 256 288 247 282 q 270 298 265 294 q 285 307 275 301 q 301 315 296 313 q 318 322 307 317 q 526 372 433 372 q 668 368 583 372 q 872 576 760 457 q 1094 724 985 694 l 1018 724 q 681 592 707 724 q 679 566 679 582 q 696 540 679 550 q 690 531 703 536 q 674 528 678 525 q 651 564 660 538 q 642 600 642 590 q 666 672 642 643 q 731 716 690 701 q 804 740 771 731 q 892 753 838 749 q 1038 757 968 757 l 1189 757 q 1190 756 1192 757 q 1319 801 1292 801 q 1350 794 1346 801 q 1346 784 1354 786 q 1325 782 1338 782 q 1306 781 1313 782 q 1257 747 1283 776 q 1113 528 1211 701 q 953 219 1014 356 q 951 215 953 218 q 901 58 901 100 q 929 15 901 15 q 1022 67 967 15 q 1121 181 1076 118 q 1134 186 1128 192 q 1132 169 1140 181 q 1107 136 1113 143 q 1089 113 1101 129 q 1067 87 1076 97 q 1042 62 1057 76 q 1015 36 1028 47 q 911 -12 956 -12 q 831 72 831 -12 q 883 247 831 136 q 1023 518 935 357 q 1154 736 1111 679 q 1053 697 1119 735 q 946 617 988 660 q 826 488 904 574 q 715 365 749 401 q 849 363 799 363 q 943 383 900 363 q 912 342 935 361 m 1250 853 q 1197 888 1197 853 q 1217 939 1197 908 q 1257 974 1238 969 q 1322 1010 1281 1010 q 1356 994 1346 1010 q 1365 969 1365 979 q 1323 888 1365 922 q 1250 853 1281 853 m 1317 989 q 1281 975 1303 989 l 1292 969 q 1263 935 1286 961 q 1240 892 1240 910 q 1256 874 1240 874 q 1308 900 1283 874 q 1338 960 1338 931 q 1317 989 1338 989 z "},"":{"ha":1499,"x_min":28,"x_max":1554,"o":"m 1268 758 l 1383 761 q 1542 742 1521 761 q 1554 722 1554 732 q 1551 701 1554 713 q 1511 610 1546 661 q 1488 593 1501 592 q 1487 613 1482 593 q 1492 658 1492 633 q 1447 731 1492 717 q 1385 736 1428 736 q 1292 733 1342 736 q 1224 706 1243 731 q 1054 426 1181 644 q 1065 411 1049 411 l 1226 408 q 1374 428 1336 408 q 1385 425 1386 436 q 1360 385 1383 403 q 1318 368 1336 368 l 1100 374 q 1045 372 1067 374 q 1017 359 1024 371 q 994 317 1011 347 q 900 88 900 139 q 1039 11 900 14 q 1465 185 1329 11 q 1474 183 1471 193 q 1472 167 1476 172 q 1442 127 1468 161 q 1406 83 1415 93 q 1375 50 1396 72 q 1300 0 1340 13 q 1113 -17 1242 -17 q 902 -8 985 -17 q 800 29 819 0 q 793 61 793 40 q 814 124 793 82 l 881 243 q 1026 523 939 367 q 1154 736 1113 679 q 1053 697 1119 735 q 946 617 988 660 q 826 488 904 574 q 715 365 749 401 q 849 363 799 363 q 943 383 900 363 q 912 342 935 361 q 851 322 889 324 q 764 319 813 319 q 672 321 715 319 q 121 -35 328 -35 q 52 -11 76 -35 q 28 49 28 13 q 29 74 28 57 q 48 126 31 90 q 69 163 65 163 q 74 151 81 164 q 56 89 56 111 q 63 56 56 67 q 133 24 81 24 q 621 324 299 24 q 436 332 463 332 q 296 297 331 332 q 271 231 271 272 q 274 210 271 219 q 245 218 253 214 q 235 232 238 222 q 233 249 236 243 q 237 264 231 256 q 245 277 243 272 q 256 288 247 282 q 270 298 265 294 q 285 307 275 301 q 301 315 296 313 q 318 322 307 317 q 526 372 433 372 q 668 368 583 372 q 872 576 760 457 q 1094 724 985 694 l 1018 724 q 681 592 707 724 q 679 566 679 582 q 696 540 679 550 q 690 531 703 536 q 674 528 678 525 q 651 564 660 538 q 642 600 642 590 q 666 672 642 643 q 731 716 690 701 q 804 740 771 731 q 892 753 838 749 q 1038 757 968 757 l 1194 757 q 1329 801 1289 801 q 1350 794 1346 801 q 1346 784 1354 786 q 1327 782 1338 782 q 1310 781 1317 782 q 1268 758 1292 779 z "},"":{"ha":732,"x_min":53,"x_max":819,"o":"m 731 533 q 754 621 754 572 q 739 697 754 669 q 636 742 713 742 q 360 628 494 742 q 198 419 261 540 q 135 202 135 297 q 178 59 135 107 q 290 1 222 11 q 361 -4 326 -4 q 561 33 467 -4 q 804 206 713 92 q 818 206 818 222 q 807 181 818 196 q 572 3 719 64 q 344 -40 467 -40 q 310 -90 310 -64 q 334 -150 310 -117 q 358 -210 358 -183 q 358 -218 358 -214 q 288 -297 349 -269 q 164 -324 226 -324 q 156 -312 153 -324 q 168 -304 156 -304 q 289 -269 257 -304 q 307 -229 307 -249 q 284 -173 307 -210 q 261 -115 261 -136 q 304 -37 261 -67 q 123 25 193 -29 q 53 199 53 79 q 125 442 53 318 q 311 653 197 567 q 626 763 457 763 q 759 735 703 763 q 815 664 815 708 q 790 602 815 644 q 757 540 764 560 q 736 529 754 531 q 731 533 731 531 z "},"":{"ha":664,"x_min":46,"x_max":808,"o":"m 340 756 l 658 761 q 796 742 774 761 q 808 722 808 732 q 806 701 808 713 q 765 610 800 661 q 742 593 756 592 q 741 613 736 593 q 746 658 746 633 q 701 731 746 717 q 639 736 682 736 q 547 733 596 736 q 478 706 497 731 q 308 426 435 644 q 319 411 303 411 l 481 408 q 628 428 590 408 q 639 425 640 436 q 614 385 638 403 q 572 368 590 368 l 354 374 q 299 372 321 374 q 272 359 278 371 q 250 317 265 347 q 154 88 154 139 q 293 11 154 14 q 719 185 583 11 q 728 183 725 193 q 726 167 731 172 q 696 127 722 161 q 660 83 669 93 q 631 50 650 72 q 554 0 594 13 q 367 -17 496 -17 q 156 -8 239 -17 q 54 29 74 0 q 47 61 47 40 q 68 124 47 82 q 183 326 108 196 q 302 535 258 457 q 381 668 346 614 q 467 735 415 722 q 234 703 288 725 q 166 655 181 681 q 151 600 151 629 q 174 557 151 571 q 172 549 179 554 q 157 549 165 544 q 131 581 149 554 q 104 657 104 621 q 263 754 104 743 q 333 756 289 756 l 340 756 m 503 964 q 497 988 497 969 q 501 1007 497 1007 q 574 955 514 1007 q 683 865 633 903 q 685 856 683 865 q 589 905 668 858 q 503 964 510 951 z "},"":{"ha":664,"x_min":46,"x_max":808,"o":"m 340 756 l 658 761 q 796 742 774 761 q 808 722 808 732 q 806 701 808 713 q 765 610 800 661 q 742 593 756 592 q 741 613 736 593 q 746 658 746 633 q 701 731 746 717 q 639 736 682 736 q 547 733 596 736 q 478 706 497 731 q 308 426 435 644 q 319 411 303 411 l 481 408 q 628 428 590 408 q 639 425 640 436 q 614 385 638 403 q 572 368 590 368 l 354 374 q 299 372 321 374 q 272 359 278 371 q 250 317 265 347 q 154 88 154 139 q 293 11 154 14 q 719 185 583 11 q 728 183 725 193 q 726 167 731 172 q 696 127 722 161 q 660 83 669 93 q 631 50 650 72 q 554 0 594 13 q 367 -17 496 -17 q 156 -8 239 -17 q 54 29 74 0 q 47 61 47 40 q 68 124 47 82 q 183 326 108 196 q 302 535 258 457 q 381 668 346 614 q 467 735 415 722 q 234 703 288 725 q 166 655 181 681 q 151 600 151 629 q 174 557 151 571 q 172 549 179 554 q 157 549 165 544 q 131 581 149 554 q 104 657 104 621 q 263 754 104 743 q 333 756 289 756 l 340 756 m 796 1007 q 800 988 800 1007 q 794 964 800 969 q 708 905 788 951 q 613 856 629 858 q 614 865 611 856 q 724 955 664 903 q 796 1007 783 1007 z "},"":{"ha":664,"x_min":46,"x_max":808,"o":"m 340 756 l 658 761 q 796 742 774 761 q 808 722 808 732 q 806 701 808 713 q 765 610 800 661 q 742 593 756 592 q 741 613 736 593 q 746 658 746 633 q 701 731 746 717 q 639 736 682 736 q 547 733 596 736 q 478 706 497 731 q 308 426 435 644 q 319 411 303 411 l 481 408 q 628 428 590 408 q 639 425 640 436 q 614 385 638 403 q 572 368 590 368 l 354 374 q 299 372 321 374 q 272 359 278 371 q 250 317 265 347 q 154 88 154 139 q 293 11 154 14 q 719 185 583 11 q 728 183 725 193 q 726 167 731 172 q 696 127 722 161 q 660 83 669 93 q 631 50 650 72 q 554 0 594 13 q 367 -17 496 -17 q 156 -8 239 -17 q 54 29 74 0 q 47 61 47 40 q 68 124 47 82 q 183 326 108 196 q 302 535 258 457 q 381 668 346 614 q 467 735 415 722 q 234 703 288 725 q 166 655 181 681 q 151 600 151 629 q 174 557 151 571 q 172 549 179 554 q 157 549 165 544 q 131 581 149 554 q 104 657 104 621 q 263 754 104 743 q 333 756 289 756 l 340 756 m 742 856 q 635 946 710 856 q 626 946 635 950 q 567 902 611 932 q 509 867 522 872 q 483 865 496 863 q 640 982 585 933 l 657 982 q 751 885 690 926 q 776 874 769 874 l 776 869 l 742 856 z "},"":{"ha":664,"x_min":46,"x_max":808,"o":"m 340 756 l 658 761 q 796 742 774 761 q 808 722 808 732 q 806 701 808 713 q 765 610 800 661 q 742 593 756 592 q 741 613 736 593 q 746 658 746 633 q 701 731 746 717 q 639 736 682 736 q 547 733 596 736 q 478 706 497 731 q 308 426 435 644 q 319 411 303 411 l 481 408 q 628 428 590 408 q 639 425 640 436 q 614 385 638 403 q 572 368 590 368 l 354 374 q 299 372 321 374 q 272 359 278 371 q 250 317 265 347 q 154 88 154 139 q 293 11 154 14 q 719 185 583 11 q 728 183 725 193 q 726 167 731 172 q 696 127 722 161 q 660 83 669 93 q 631 50 650 72 q 554 0 594 13 q 367 -17 496 -17 q 156 -8 239 -17 q 54 29 74 0 q 47 61 47 40 q 68 124 47 82 q 183 326 108 196 q 302 535 258 457 q 381 668 346 614 q 467 735 415 722 q 234 703 288 725 q 166 655 181 681 q 151 600 151 629 q 174 557 151 571 q 172 549 179 554 q 157 549 165 544 q 131 581 149 554 q 104 657 104 621 q 263 754 104 743 q 333 756 289 756 l 340 756 m 550 903 q 499 933 522 903 q 506 941 499 936 q 518 950 513 946 q 529 958 524 954 q 539 964 535 961 q 553 969 550 969 q 589 953 581 953 q 603 954 597 953 q 610 949 610 956 q 601 935 608 943 q 550 903 563 903 m 711 903 q 660 933 683 903 q 667 941 660 936 q 679 950 674 946 q 690 958 685 954 q 700 964 696 961 q 714 969 711 969 q 750 953 742 953 q 765 954 758 953 q 771 949 771 956 q 763 935 769 943 q 711 903 724 903 z "},"":{"ha":507,"x_min":14,"x_max":893,"o":"m 529 758 l 671 753 l 893 754 l 875 733 q 789 726 832 733 q 703 685 746 718 q 632 604 661 653 l 619 583 q 574 474 610 561 q 513 329 538 386 q 443 197 488 272 q 360 80 399 122 q 267 12 321 38 q 167 -14 214 -14 q 83 11 121 -14 q 14 163 14 58 q 19 182 14 181 q 29 171 29 183 q 60 73 29 107 q 143 39 92 39 q 367 192 253 39 q 404 240 389 219 q 441 297 419 260 q 471 349 463 335 q 502 409 479 363 q 528 463 525 456 q 558 525 532 469 q 585 583 583 581 q 696 721 629 676 l 654 721 q 438 621 438 721 q 454 561 438 597 l 440 550 q 385 653 386 644 q 385 667 385 661 q 406 726 385 707 q 529 758 442 758 m 529 964 q 524 988 524 969 q 528 1007 524 1007 q 600 955 540 1007 q 710 865 660 903 q 711 856 710 865 q 615 905 694 858 q 529 964 536 951 z "},"":{"ha":507,"x_min":14,"x_max":893,"o":"m 529 758 l 671 753 l 893 754 l 875 733 q 789 726 832 733 q 703 685 746 718 q 632 604 661 653 l 619 583 q 574 474 610 561 q 513 329 538 386 q 443 197 488 272 q 360 80 399 122 q 267 12 321 38 q 167 -14 214 -14 q 83 11 121 -14 q 14 163 14 58 q 19 182 14 181 q 29 171 29 183 q 60 73 29 107 q 143 39 92 39 q 367 192 253 39 q 404 240 389 219 q 441 297 419 260 q 471 349 463 335 q 502 409 479 363 q 528 463 525 456 q 558 525 532 469 q 585 583 583 581 q 696 721 629 676 l 654 721 q 438 621 438 721 q 454 561 438 597 l 440 550 q 385 653 386 644 q 385 667 385 661 q 406 726 385 707 q 529 758 442 758 m 851 1007 q 856 988 856 1007 q 850 964 856 969 q 764 905 843 951 q 668 856 685 858 q 669 865 667 856 q 779 955 719 903 q 851 1007 839 1007 z "},"":{"ha":507,"x_min":14,"x_max":893,"o":"m 529 758 l 671 753 l 893 754 l 875 733 q 789 726 832 733 q 703 685 746 718 q 632 604 661 653 l 619 583 q 574 474 610 561 q 513 329 538 386 q 443 197 488 272 q 360 80 399 122 q 267 12 321 38 q 167 -14 214 -14 q 83 11 121 -14 q 14 163 14 58 q 19 182 14 181 q 29 171 29 183 q 60 73 29 107 q 143 39 92 39 q 367 192 253 39 q 404 240 389 219 q 441 297 419 260 q 471 349 463 335 q 502 409 479 363 q 528 463 525 456 q 558 525 532 469 q 585 583 583 581 q 696 721 629 676 l 654 721 q 438 621 438 721 q 454 561 438 597 l 440 550 q 385 653 386 644 q 385 667 385 661 q 406 726 385 707 q 529 758 442 758 m 811 856 q 704 946 779 856 q 696 946 704 950 q 636 902 681 932 q 578 867 592 872 q 553 865 565 863 q 710 982 654 933 l 726 982 q 821 885 760 926 q 846 874 839 874 l 846 869 l 811 856 z "},"":{"ha":507,"x_min":14,"x_max":893,"o":"m 529 758 l 671 753 l 893 754 l 875 733 q 789 726 832 733 q 703 685 746 718 q 632 604 661 653 l 619 583 q 574 474 610 561 q 513 329 538 386 q 443 197 488 272 q 360 80 399 122 q 267 12 321 38 q 167 -14 214 -14 q 83 11 121 -14 q 14 163 14 58 q 19 182 14 181 q 29 171 29 183 q 60 73 29 107 q 143 39 92 39 q 367 192 253 39 q 404 240 389 219 q 441 297 419 260 q 471 349 463 335 q 502 409 479 363 q 528 463 525 456 q 558 525 532 469 q 585 583 583 581 q 696 721 629 676 l 654 721 q 438 621 438 721 q 454 561 438 597 l 440 550 q 385 653 386 644 q 385 667 385 661 q 406 726 385 707 q 529 758 442 758 m 738 949 q 742 951 738 949 q 753 959 746 954 q 767 967 761 964 q 774 969 772 969 q 789 961 775 969 q 811 953 803 953 q 826 954 819 953 q 832 949 832 956 q 824 935 831 943 q 772 903 785 903 q 721 933 744 903 q 724 939 719 935 q 738 949 729 943 m 611 903 q 560 935 560 903 q 585 956 560 942 q 613 969 611 969 q 628 961 614 969 q 650 953 642 953 q 665 954 658 953 q 671 949 671 956 q 663 935 669 943 q 611 903 624 903 z "},"":{"ha":869,"x_min":-3,"x_max":950,"o":"m 317 756 l 593 763 q 875 694 786 763 q 929 622 908 668 q 950 515 950 576 q 856 232 950 374 q 381 -22 686 -22 q 192 19 274 -22 q 146 32 167 32 q 79 3 125 32 q 15 -26 33 -26 q -3 -18 -3 -26 l 0 -14 l 8 -11 q 18 -10 8 -12 q 89 53 63 6 q 244 331 161 174 q 140 325 181 328 q 153 348 132 324 q 182 371 174 372 q 263 364 200 367 l 396 617 q 428 682 415 661 q 510 738 449 717 l 476 738 q 280 719 385 738 q 150 653 175 700 q 136 608 136 628 q 142 576 136 588 q 155 560 149 565 q 161 554 161 556 q 150 546 161 546 q 118 578 139 546 q 89 657 89 624 q 317 756 89 756 m 406 324 l 319 331 l 211 115 q 203 77 203 96 q 238 29 203 58 q 364 -3 279 -3 q 641 85 518 -3 q 824 318 764 174 q 865 519 865 424 q 800 674 865 614 q 626 733 735 733 q 528 705 553 733 q 472 622 503 676 q 421 530 440 568 q 378 443 401 492 q 338 364 347 381 q 446 369 393 364 q 433 346 454 369 q 406 324 413 322 z "},"":{"ha":1001,"x_min":8,"x_max":1308,"o":"m 1308 814 l 1307 764 l 1294 761 q 1282 785 1296 776 q 1254 794 1268 794 q 1097 606 1189 794 q 964 306 1019 449 q 899 140 908 163 q 889 101 889 118 q 894 58 889 82 q 886 24 900 35 q 859 8 872 14 q 829 -14 846 3 q 807 -39 813 -31 q 801 -43 804 -43 q 792 -35 793 -43 q 819 22 807 -14 q 689 493 790 181 q 643 639 656 599 q 608 567 629 629 q 481 261 558 418 q 364 76 429 156 q 272 13 333 39 q 163 -14 210 -14 q 78 11 117 -14 q 8 163 8 56 q 15 183 8 183 q 22 171 22 182 q 58 63 22 106 q 144 19 93 19 q 329 108 244 19 q 442 267 403 188 q 494 381 481 347 q 579 583 521 436 q 639 676 601 638 q 725 724 676 715 l 649 724 q 383 660 428 724 q 371 623 371 640 q 375 592 371 606 q 417 540 388 554 q 415 531 425 536 q 400 528 406 526 q 356 567 382 538 q 318 644 318 611 q 340 703 318 678 q 428 739 361 728 q 644 757 524 757 q 650 757 649 757 l 818 757 q 813 736 831 758 q 790 715 794 714 q 777 715 786 715 q 743 710 768 715 q 707 696 718 704 q 763 428 715 594 q 868 119 811 263 q 950 340 885 161 q 1072 646 1015 519 q 1178 818 1129 772 q 1262 851 1214 851 q 1308 814 1310 851 m 1110 947 q 1083 898 1101 918 q 1040 878 1064 878 q 973 895 1017 878 q 902 913 929 913 q 864 888 875 913 l 847 888 q 875 928 854 910 q 918 947 896 947 q 975 933 940 947 q 1046 917 1018 917 q 1096 947 1074 917 l 1110 947 z "},"":{"ha":825,"x_min":10,"x_max":900,"o":"m 900 550 q 822 274 900 406 q 610 63 744 143 q 322 -17 476 -17 q 10 203 10 -17 q 103 483 10 336 q 215 624 150 561 q 376 728 281 688 q 581 769 472 769 q 823 716 746 769 q 900 550 900 663 m 821 563 q 583 749 821 749 q 347 654 465 749 q 156 429 228 560 q 83 190 83 299 q 311 4 83 4 q 567 90 447 4 q 754 305 688 176 q 821 563 821 433 m 542 964 q 536 988 536 969 q 540 1007 536 1007 q 613 955 553 1007 q 722 865 672 903 q 724 856 722 865 q 628 905 707 858 q 542 964 549 951 z "},"":{"ha":825,"x_min":10,"x_max":900,"o":"m 900 550 q 822 274 900 406 q 610 63 744 143 q 322 -17 476 -17 q 10 203 10 -17 q 103 483 10 336 q 215 624 150 561 q 376 728 281 688 q 581 769 472 769 q 823 716 746 769 q 900 550 900 663 m 821 563 q 583 749 821 749 q 347 654 465 749 q 156 429 228 560 q 83 190 83 299 q 311 4 83 4 q 567 90 447 4 q 754 305 688 176 q 821 563 821 433 m 821 1007 q 825 988 825 1007 q 819 964 825 969 q 733 905 813 951 q 638 856 654 858 q 639 865 636 856 q 749 955 689 903 q 821 1007 808 1007 z "},"":{"ha":825,"x_min":10,"x_max":900,"o":"m 900 550 q 822 274 900 406 q 610 63 744 143 q 322 -17 476 -17 q 10 203 10 -17 q 103 483 10 336 q 215 624 150 561 q 376 728 281 688 q 581 769 472 769 q 823 716 746 769 q 900 550 900 663 m 821 563 q 583 749 821 749 q 347 654 465 749 q 156 429 228 560 q 83 190 83 299 q 311 4 83 4 q 567 90 447 4 q 754 305 688 176 q 821 563 821 433 m 792 856 q 685 946 760 856 q 676 946 685 950 q 617 902 661 932 q 559 867 572 872 q 533 865 546 863 q 690 982 635 933 l 707 982 q 801 885 740 926 q 826 874 819 874 l 826 869 l 792 856 z "},"":{"ha":825,"x_min":10,"x_max":900,"o":"m 900 550 q 822 274 900 406 q 610 63 744 143 q 322 -17 476 -17 q 10 203 10 -17 q 103 483 10 336 q 215 624 150 561 q 376 728 281 688 q 581 769 472 769 q 823 716 746 769 q 900 550 900 663 m 821 563 q 583 749 821 749 q 347 654 465 749 q 156 429 228 560 q 83 190 83 299 q 311 4 83 4 q 567 90 447 4 q 754 305 688 176 q 821 563 821 433 m 826 947 q 799 898 818 918 q 757 878 781 878 q 690 895 733 878 q 619 913 646 913 q 581 888 592 913 l 564 888 q 592 928 571 910 q 635 947 613 947 q 692 933 657 947 q 763 917 735 917 q 813 947 790 917 l 826 947 z "},"":{"ha":825,"x_min":10,"x_max":900,"o":"m 900 550 q 822 274 900 406 q 610 63 744 143 q 322 -17 476 -17 q 10 203 10 -17 q 103 483 10 336 q 215 624 150 561 q 376 728 281 688 q 581 769 472 769 q 823 716 746 769 q 900 550 900 663 m 821 563 q 583 749 821 749 q 347 654 465 749 q 156 429 228 560 q 83 190 83 299 q 311 4 83 4 q 567 90 447 4 q 754 305 688 176 q 821 563 821 433 m 619 903 q 568 933 592 903 q 575 941 568 936 q 588 950 582 946 q 599 958 593 954 q 608 964 604 961 q 622 969 619 969 q 658 953 650 953 q 673 954 667 953 q 679 949 679 956 q 671 935 678 943 q 619 903 632 903 m 781 903 q 729 935 729 903 q 755 956 729 942 q 782 969 781 969 q 797 961 783 969 q 819 953 811 953 q 834 954 828 953 q 840 949 840 956 q 832 935 839 943 q 781 903 793 903 z "},"":{"ha":592,"x_min":75,"x_max":522,"o":"m 517 576 q 522 535 522 560 q 513 503 522 510 q 329 356 390 408 q 513 208 492 221 q 522 179 522 201 q 518 135 522 135 l 299 329 q 79 135 272 307 q 76 175 76 149 q 85 208 76 201 q 268 356 106 221 q 166 438 240 379 q 84 502 92 497 q 76 528 76 507 q 81 576 76 560 q 187 483 113 547 q 299 382 261 418 q 517 576 418 483 z "},"":{"ha":825,"x_min":4,"x_max":900,"o":"m 54 -39 q 26 -49 46 -49 q 6 -44 6 -49 q 82 42 6 -39 q 10 203 10 96 q 103 483 10 336 q 215 624 150 561 q 376 728 281 688 q 588 769 472 769 q 775 740 703 769 l 831 790 q 850 796 835 796 q 892 790 876 796 q 815 721 856 760 q 900 550 900 667 q 822 274 900 406 q 610 63 744 143 q 334 -17 476 -17 q 113 24 192 -17 q 54 -39 100 11 m 821 563 q 779 686 821 643 q 139 50 497 418 q 320 4 193 4 q 567 90 447 4 q 754 305 688 176 q 821 563 821 433 m 83 190 q 114 76 83 119 q 746 713 485 467 q 577 749 689 749 q 347 654 465 749 q 156 429 228 560 q 83 190 83 299 z "},"":{"ha":849,"x_min":10,"x_max":981,"o":"m 156 758 l 297 753 q 617 754 493 754 l 599 733 q 500 694 531 733 q 323 382 422 593 q 211 67 224 171 q 211 58 211 63 q 261 18 211 18 l 315 35 q 472 157 390 72 q 814 678 672 365 q 824 702 817 682 q 839 731 832 722 q 858 737 846 739 q 881 735 869 735 q 913 738 893 735 q 964 769 932 740 q 981 768 972 775 l 981 764 q 883 650 932 725 q 628 185 676 336 q 608 82 608 122 q 672 8 608 8 q 699 11 685 8 q 824 97 744 18 q 922 207 867 136 q 906 156 932 189 q 738 -1 825 56 q 642 -36 685 -36 q 567 -3 588 -36 q 551 40 551 18 q 556 94 551 63 q 607 264 564 157 q 610 269 610 268 q 480 135 571 224 q 347 17 389 47 q 203 -36 271 -36 q 199 -36 200 -36 q 139 -18 156 -36 q 122 21 122 0 q 247 308 122 69 q 342 501 322 451 q 375 592 361 551 q 403 721 403 664 l 281 721 q 63 621 63 721 q 81 561 63 585 l 65 550 q 46 582 64 553 q 10 650 11 638 q 10 671 10 663 q 156 758 10 758 m 603 964 q 597 988 597 969 q 601 1007 597 1007 q 674 955 614 1007 q 783 865 733 903 q 785 856 783 865 q 689 905 768 858 q 603 964 610 951 z "},"":{"ha":849,"x_min":10,"x_max":981,"o":"m 156 758 l 297 753 q 617 754 493 754 l 599 733 q 500 694 531 733 q 323 382 422 593 q 211 67 224 171 q 211 58 211 63 q 261 18 211 18 l 315 35 q 472 157 390 72 q 814 678 672 365 q 824 702 817 682 q 839 731 832 722 q 858 737 846 739 q 881 735 869 735 q 913 738 893 735 q 964 769 932 740 q 981 768 972 775 l 981 764 q 883 650 932 725 q 628 185 676 336 q 608 82 608 122 q 672 8 608 8 q 699 11 685 8 q 824 97 744 18 q 922 207 867 136 q 906 156 932 189 q 738 -1 825 56 q 642 -36 685 -36 q 567 -3 588 -36 q 551 40 551 18 q 556 94 551 63 q 607 264 564 157 q 610 269 610 268 q 480 135 571 224 q 347 17 389 47 q 203 -36 271 -36 q 199 -36 200 -36 q 139 -18 156 -36 q 122 21 122 0 q 247 308 122 69 q 342 501 322 451 q 375 592 361 551 q 403 721 403 664 l 281 721 q 63 621 63 721 q 81 561 63 585 l 65 550 q 46 582 64 553 q 10 650 11 638 q 10 671 10 663 q 156 758 10 758 m 857 1007 q 861 988 861 1007 q 856 964 861 969 q 769 905 849 951 q 674 856 690 858 q 675 865 672 856 q 785 955 725 903 q 857 1007 844 1007 z "},"":{"ha":849,"x_min":10,"x_max":981,"o":"m 156 758 l 297 753 q 617 754 493 754 l 599 733 q 500 694 531 733 q 323 382 422 593 q 211 67 224 171 q 211 58 211 63 q 261 18 211 18 l 315 35 q 472 157 390 72 q 814 678 672 365 q 824 702 817 682 q 839 731 832 722 q 858 737 846 739 q 881 735 869 735 q 913 738 893 735 q 964 769 932 740 q 981 768 972 775 l 981 764 q 883 650 932 725 q 628 185 676 336 q 608 82 608 122 q 672 8 608 8 q 699 11 685 8 q 824 97 744 18 q 922 207 867 136 q 906 156 932 189 q 738 -1 825 56 q 642 -36 685 -36 q 567 -3 588 -36 q 551 40 551 18 q 556 94 551 63 q 607 264 564 157 q 610 269 610 268 q 480 135 571 224 q 347 17 389 47 q 203 -36 271 -36 q 199 -36 200 -36 q 139 -18 156 -36 q 122 21 122 0 q 247 308 122 69 q 342 501 322 451 q 375 592 361 551 q 403 721 403 664 l 281 721 q 63 621 63 721 q 81 561 63 585 l 65 550 q 46 582 64 553 q 10 650 11 638 q 10 671 10 663 q 156 758 10 758 m 864 856 q 757 946 832 856 q 749 946 757 950 q 689 902 733 932 q 631 867 644 872 q 606 865 618 863 q 763 982 707 933 l 779 982 q 874 885 813 926 q 899 874 892 874 l 899 869 l 864 856 z "},"":{"ha":849,"x_min":10,"x_max":981,"o":"m 156 758 l 297 753 q 617 754 493 754 l 599 733 q 500 694 531 733 q 323 382 422 593 q 211 67 224 171 q 211 58 211 63 q 261 18 211 18 l 315 35 q 472 157 390 72 q 814 678 672 365 q 824 702 817 682 q 839 731 832 722 q 858 737 846 739 q 881 735 869 735 q 913 738 893 735 q 964 769 932 740 q 981 768 972 775 l 981 764 q 883 650 932 725 q 628 185 676 336 q 608 82 608 122 q 672 8 608 8 q 699 11 685 8 q 824 97 744 18 q 922 207 867 136 q 906 156 932 189 q 738 -1 825 56 q 642 -36 685 -36 q 567 -3 588 -36 q 551 40 551 18 q 556 94 551 63 q 607 264 564 157 q 610 269 610 268 q 480 135 571 224 q 347 17 389 47 q 203 -36 271 -36 q 199 -36 200 -36 q 139 -18 156 -36 q 122 21 122 0 q 247 308 122 69 q 342 501 322 451 q 375 592 361 551 q 403 721 403 664 l 281 721 q 63 621 63 721 q 81 561 63 585 l 65 550 q 46 582 64 553 q 10 650 11 638 q 10 671 10 663 q 156 758 10 758 m 667 903 q 615 935 615 903 q 641 956 615 942 q 668 969 667 969 q 683 961 669 969 q 706 953 697 953 q 720 954 714 953 q 726 949 726 956 q 718 935 725 943 q 667 903 679 903 m 828 903 q 776 935 776 903 q 802 956 776 942 q 829 969 828 969 q 844 961 831 969 q 867 953 858 953 q 881 954 875 953 q 888 949 888 956 q 879 935 886 943 q 828 903 840 903 z "},"":{"ha":628,"x_min":11,"x_max":1006,"o":"m 418 721 q 506 481 506 664 q 474 281 506 390 q 578 438 483 294 q 721 635 674 581 q 791 713 768 689 q 859 765 814 736 q 940 794 904 794 q 997 757 979 794 q 1004 729 1004 742 q 1001 707 1004 717 q 983 658 996 683 q 976 653 981 651 q 973 663 971 654 q 975 688 975 672 q 967 722 975 704 q 922 751 954 751 q 749 628 856 751 q 531 325 628 488 q 438 166 501 276 q 312 1 375 56 q 163 -54 249 -54 q 81 -29 118 -54 q 11 124 11 15 q 18 143 11 144 q 25 131 25 142 q 57 33 25 68 q 140 -1 89 -1 q 432 214 282 -1 q 406 204 415 204 q 393 206 397 204 q 396 231 388 208 q 444 521 444 379 q 393 721 444 663 l 360 721 q 143 621 143 721 q 160 561 143 597 l 146 550 q 91 653 92 644 q 90 667 90 661 q 111 726 90 707 q 235 758 147 758 l 376 753 q 599 754 475 754 l 569 718 q 418 721 521 718 m 833 1007 q 838 988 838 1007 q 832 964 838 969 q 746 905 825 951 q 650 856 667 858 q 651 865 649 856 q 761 955 701 903 q 833 1007 821 1007 z "},"":{"ha":751,"x_min":-78,"x_max":750,"o":"m 717 841 q 713 840 717 841 q 696 839 708 839 q 676 838 683 839 q 624 804 653 833 q 468 589 576 761 q 651 572 604 589 q 719 525 699 556 q 750 444 750 479 q 663 268 750 349 q 543 192 608 218 q 294 156 456 156 q 235 160 256 156 q 113 -131 113 -69 q 114 -143 113 -137 q 97 -147 119 -156 q 60 -142 76 -142 q 37 -146 44 -142 q 0 -168 29 -150 q -60 -194 -43 -194 q -78 -186 -78 -194 q -75 -182 -78 -183 q 14 -115 -18 -172 q 123 77 76 -10 q 220 256 169 164 q 393 574 271 349 q 529 800 515 800 q 581 822 538 803 q 692 858 665 858 q 722 851 718 858 q 717 841 725 843 m 251 189 q 295 185 271 185 q 365 190 319 185 q 471 211 410 196 q 586 269 532 226 q 661 372 640 311 q 674 438 674 407 q 663 497 674 469 q 551 567 635 567 q 450 533 474 567 q 274 229 435 513 l 251 189 z "},"":{"ha":640,"x_min":-418,"x_max":807,"o":"m 753 802 q 780 779 753 802 q 807 690 807 756 q 753 553 807 624 q 554 460 683 474 q 494 396 471 446 q 552 318 514 358 q 599 267 590 278 q 639 165 639 214 q 603 68 639 115 q 442 -28 546 -7 q 388 -33 414 -33 q 265 21 311 -33 q 233 88 233 60 q 244 149 233 117 q 278 200 256 181 q 290 198 288 203 q 289 186 293 193 q 279 138 279 171 q 324 39 279 78 q 430 0 368 0 q 526 29 492 0 q 567 133 567 63 q 492 294 567 204 q 436 394 436 363 q 514 469 436 440 q 717 578 658 501 q 758 690 758 632 q 724 788 758 747 q 612 828 689 828 q 466 762 535 828 q 338 575 397 696 q 215 286 279 454 q 127 65 151 118 q 76 -36 103 11 q 10 -136 50 -83 q -70 -226 -29 -189 q -165 -289 -111 -264 q -275 -314 -219 -314 q -415 -244 -390 -314 q -418 -228 -418 -235 q -417 -215 -418 -222 q -414 -201 -415 -207 q -408 -182 -412 -194 q -403 -165 -404 -169 q -395 -144 -401 -160 q -387 -124 -389 -129 q -380 -117 -385 -118 q -372 -119 -375 -115 q -376 -138 -369 -124 q -382 -172 -382 -153 q -375 -208 -382 -192 q -237 -278 -344 -278 q -162 -258 -199 -278 q 74 67 -28 -187 q 130 215 100 133 q 178 343 160 297 l 146 343 q 115 339 144 343 l 113 340 q 139 367 115 354 q 178 379 163 379 l 194 379 q 431 772 308 663 q 617 849 513 844 q 753 802 700 849 z "},"":{"ha":408,"x_min":4,"x_max":485,"o":"m 482 206 q 485 194 485 203 q 465 160 485 186 q 236 -4 342 -4 q 203 22 203 -4 q 257 156 203 71 q 146 51 208 104 q 29 -3 83 -3 q 4 28 4 -3 q 6 38 4 35 q 69 204 15 117 q 294 379 178 379 l 454 379 q 461 374 461 379 q 449 363 461 363 q 400 317 429 363 q 323 178 371 272 q 275 60 275 85 q 294 36 275 36 q 383 92 326 36 q 429 142 414 124 q 449 165 444 160 q 482 206 454 171 m 333 335 q 298 361 333 361 q 219 321 263 361 q 126 191 176 281 q 75 61 75 101 q 86 44 75 44 q 230 167 126 44 q 333 335 333 290 m 232 574 q 226 598 226 579 q 231 617 226 617 q 303 565 243 617 q 413 475 363 513 q 414 465 413 475 q 318 515 397 468 q 232 574 239 561 z "},"":{"ha":408,"x_min":4,"x_max":524,"o":"m 482 206 q 485 194 485 203 q 465 160 485 186 q 236 -4 342 -4 q 203 22 203 -4 q 257 156 203 71 q 146 51 208 104 q 29 -3 83 -3 q 4 28 4 -3 q 6 38 4 35 q 69 204 15 117 q 294 379 178 379 l 454 379 q 461 374 461 379 q 449 363 461 363 q 400 317 429 363 q 323 178 371 272 q 275 60 275 85 q 294 36 275 36 q 383 92 326 36 q 429 142 414 124 q 449 165 444 160 q 482 206 454 171 m 333 335 q 298 361 333 361 q 219 321 263 361 q 126 191 176 281 q 75 61 75 101 q 86 44 75 44 q 230 167 126 44 q 333 335 333 290 m 519 617 q 524 598 524 617 q 518 574 524 579 q 432 515 511 561 q 336 465 353 468 q 338 475 335 465 q 447 565 388 513 q 519 617 507 617 z "},"":{"ha":408,"x_min":4,"x_max":513,"o":"m 482 206 q 485 194 485 203 q 465 160 485 186 q 236 -4 342 -4 q 203 22 203 -4 q 257 156 203 71 q 146 51 208 104 q 29 -3 83 -3 q 4 28 4 -3 q 6 38 4 35 q 69 204 15 117 q 294 379 178 379 l 454 379 q 461 374 461 379 q 449 363 461 363 q 400 317 429 363 q 323 178 371 272 q 275 60 275 85 q 294 36 275 36 q 383 92 326 36 q 429 142 414 124 q 449 165 444 160 q 482 206 454 171 m 333 335 q 298 361 333 361 q 219 321 263 361 q 126 191 176 281 q 75 61 75 101 q 86 44 75 44 q 230 167 126 44 q 333 335 333 290 m 478 465 q 371 556 446 465 q 363 556 371 560 q 303 512 347 542 q 245 477 258 482 q 219 475 232 472 q 376 592 321 543 l 393 592 q 488 494 426 536 q 513 483 506 483 l 513 479 l 478 465 z "},"":{"ha":408,"x_min":4,"x_max":519,"o":"m 482 206 q 485 194 485 203 q 465 160 485 186 q 236 -4 342 -4 q 203 22 203 -4 q 257 156 203 71 q 146 51 208 104 q 29 -3 83 -3 q 4 28 4 -3 q 6 38 4 35 q 69 204 15 117 q 294 379 178 379 l 454 379 q 461 374 461 379 q 449 363 461 363 q 400 317 429 363 q 323 178 371 272 q 275 60 275 85 q 294 36 275 36 q 383 92 326 36 q 429 142 414 124 q 449 165 444 160 q 482 206 454 171 m 333 335 q 298 361 333 361 q 219 321 263 361 q 126 191 176 281 q 75 61 75 101 q 86 44 75 44 q 230 167 126 44 q 333 335 333 290 m 519 557 q 492 508 511 528 q 450 488 474 488 q 383 505 426 488 q 312 522 339 522 q 274 497 285 522 l 257 497 q 285 538 264 519 q 328 557 306 557 q 385 543 350 557 q 456 526 428 526 q 506 557 483 526 l 519 557 z "},"":{"ha":408,"x_min":4,"x_max":518,"o":"m 482 206 q 485 194 485 203 q 465 160 485 186 q 236 -4 342 -4 q 203 22 203 -4 q 257 156 203 71 q 146 51 208 104 q 29 -3 83 -3 q 4 28 4 -3 q 6 38 4 35 q 69 204 15 117 q 294 379 178 379 l 454 379 q 461 374 461 379 q 449 363 461 363 q 400 317 429 363 q 323 178 371 272 q 275 60 275 85 q 294 36 275 36 q 383 92 326 36 q 429 142 414 124 q 449 165 444 160 q 482 206 454 171 m 333 335 q 298 361 333 361 q 219 321 263 361 q 126 191 176 281 q 75 61 75 101 q 86 44 75 44 q 230 167 126 44 q 333 335 333 290 m 296 513 q 244 544 244 513 q 281 571 244 549 l 299 579 q 335 563 326 563 q 349 564 343 563 q 356 558 356 565 q 347 544 354 553 q 296 513 308 513 m 457 513 q 406 544 406 513 q 442 571 406 549 l 460 579 q 496 563 488 563 q 510 564 504 563 q 517 558 517 565 q 508 544 515 553 q 457 513 469 513 z "},"":{"ha":408,"x_min":4,"x_max":499,"o":"m 482 206 q 485 194 485 203 q 465 160 485 186 q 236 -4 342 -4 q 203 22 203 -4 q 257 156 203 71 q 146 51 208 104 q 29 -3 83 -3 q 4 28 4 -3 q 6 38 4 35 q 69 204 15 117 q 294 379 178 379 l 454 379 q 461 374 461 379 q 449 363 461 363 q 400 317 429 363 q 323 178 371 272 q 275 60 275 85 q 294 36 275 36 q 383 92 326 36 q 429 142 414 124 q 449 165 444 160 q 482 206 454 171 m 333 335 q 298 361 333 361 q 219 321 263 361 q 126 191 176 281 q 75 61 75 101 q 86 44 75 44 q 230 167 126 44 q 333 335 333 290 m 383 463 q 331 497 331 463 q 351 549 331 518 q 390 583 371 579 q 456 619 414 619 q 489 604 479 619 q 499 579 499 589 q 456 497 499 532 q 383 463 414 463 m 450 599 q 414 585 436 599 l 425 579 q 397 545 419 571 q 374 501 374 519 q 389 483 374 483 q 442 508 417 483 q 471 569 471 540 q 450 599 471 599 z "},"":{"ha":551,"x_min":4,"x_max":625,"o":"m 322 165 q 301 65 301 111 q 358 18 301 18 q 413 31 379 18 q 525 100 467 49 q 621 200 583 151 q 625 189 625 196 q 615 168 625 182 q 488 43 564 97 q 332 -11 411 -11 q 229 65 229 -11 q 250 149 229 99 q 29 -3 110 -3 q 4 28 4 -3 q 6 38 4 35 q 69 204 15 117 q 190 343 124 292 q 294 379 235 376 l 447 386 q 460 383 454 386 q 461 372 467 381 q 521 385 496 385 q 585 326 585 385 q 537 234 585 265 q 428 184 489 203 q 322 165 368 165 m 333 335 q 298 361 333 361 q 219 321 263 361 q 126 191 176 281 q 75 61 75 101 q 86 44 75 44 q 230 167 126 44 q 333 335 333 290 m 333 193 q 365 193 342 193 q 419 203 388 193 q 522 292 499 226 q 529 328 529 311 q 518 353 529 346 q 499 361 507 361 q 333 193 408 360 z "},"":{"ha":331,"x_min":-76,"x_max":406,"o":"m 403 204 q 406 194 406 201 q 392 165 406 186 q 268 49 346 103 q 121 -10 190 -4 q 78 -72 78 -36 q 102 -125 78 -92 q 126 -185 126 -158 q 126 -193 126 -189 q 56 -272 117 -244 q -68 -299 -6 -299 q -76 -287 -79 -299 q -64 -279 -76 -279 q 57 -244 25 -279 q 75 -204 75 -224 q 52 -148 75 -185 q 29 -90 29 -111 q 79 -10 29 -37 q 19 24 35 -4 q 11 56 11 39 q 19 101 11 72 q 88 231 39 161 q 207 340 138 300 q 332 386 281 386 q 374 374 360 386 q 389 344 389 363 q 371 269 389 303 q 353 256 364 254 q 351 265 349 257 q 353 290 353 274 q 344 328 353 306 q 308 363 332 363 q 254 347 283 363 q 211 315 225 331 q 92 117 126 228 q 82 58 82 81 q 101 29 82 35 q 188 37 131 18 q 308 108 244 56 q 403 204 371 160 z "},"":{"ha":346,"x_min":22,"x_max":419,"o":"m 117 165 q 96 65 96 111 q 153 18 96 18 q 207 31 174 18 q 319 100 261 49 q 415 200 378 151 q 419 189 419 196 q 410 168 419 182 q 282 43 358 97 q 126 -11 206 -11 q 24 64 24 -11 q 88 229 24 124 q 190 335 124 286 q 318 385 257 385 q 379 326 379 385 q 331 234 379 265 q 223 184 283 203 q 117 165 163 165 m 128 193 q 159 193 136 193 q 214 203 182 193 q 317 292 293 226 q 324 328 324 311 q 313 353 324 346 q 293 361 301 361 q 128 193 203 360 m 208 574 q 203 598 203 579 q 207 617 203 617 q 279 565 219 617 q 389 475 339 513 q 390 465 389 475 q 294 515 374 468 q 208 574 215 561 z "},"":{"ha":346,"x_min":22,"x_max":521,"o":"m 117 165 q 96 65 96 111 q 153 18 96 18 q 207 31 174 18 q 319 100 261 49 q 415 200 378 151 q 410 168 425 190 q 282 43 358 97 q 126 -11 206 -11 q 24 64 24 -11 q 88 229 24 124 q 190 335 124 286 q 318 385 257 385 q 379 326 379 385 q 331 234 379 265 q 223 184 283 203 q 117 165 163 165 m 128 193 q 159 193 136 193 q 214 203 182 193 q 317 292 293 226 q 324 328 324 311 q 313 353 324 346 q 293 361 301 361 q 128 193 203 360 m 517 617 q 521 598 521 617 q 515 574 521 579 q 429 515 508 561 q 333 465 350 468 q 335 475 332 465 q 444 565 385 513 q 517 617 504 617 z "},"":{"ha":346,"x_min":22,"x_max":489,"o":"m 117 165 q 96 65 96 111 q 153 18 96 18 q 207 31 174 18 q 319 100 261 49 q 415 200 378 151 q 410 168 425 190 q 282 43 358 97 q 126 -11 206 -11 q 24 64 24 -11 q 88 229 24 124 q 190 335 124 286 q 318 385 257 385 q 379 326 379 385 q 331 234 379 265 q 223 184 283 203 q 117 165 163 165 m 128 193 q 159 193 136 193 q 214 203 182 193 q 317 292 293 226 q 324 328 324 311 q 313 353 324 346 q 293 361 301 361 q 128 193 203 360 m 454 465 q 347 556 422 465 q 339 556 347 560 q 279 512 324 542 q 222 477 235 482 q 196 475 208 472 q 353 592 297 543 l 369 592 q 464 494 403 536 q 489 483 482 483 l 489 479 l 454 465 z "},"":{"ha":346,"x_min":22,"x_max":490,"o":"m 117 165 q 96 65 96 111 q 153 18 96 18 q 207 31 174 18 q 319 100 261 49 q 415 200 378 151 q 410 168 425 190 q 282 43 358 97 q 126 -11 206 -11 q 24 64 24 -11 q 88 229 24 124 q 190 335 124 286 q 318 385 257 385 q 379 326 379 385 q 331 234 379 265 q 223 184 283 203 q 117 165 163 165 m 128 193 q 159 193 136 193 q 214 203 182 193 q 317 292 293 226 q 324 328 324 311 q 313 353 324 346 q 293 361 301 361 q 128 193 203 360 m 268 513 q 217 544 217 513 q 253 571 217 549 l 271 579 q 307 563 299 563 q 322 564 315 563 q 328 558 328 565 q 319 544 326 553 q 268 513 281 513 m 429 513 q 378 544 378 513 q 414 571 378 549 l 432 579 q 468 563 460 563 q 483 564 476 563 q 489 558 489 565 q 481 544 488 553 q 429 513 442 513 z "},"":{"ha":267,"x_min":43,"x_max":340,"o":"m 258 82 q 185 24 232 53 q 101 -4 139 -4 q 63 22 63 -4 q 76 78 63 47 q 188 314 86 100 q 54 156 114 235 q 44 158 44 142 q 51 178 44 169 q 203 376 150 300 q 286 399 272 386 q 301 400 300 411 q 295 387 301 394 q 182 178 289 379 q 135 56 135 89 q 154 36 135 36 q 310 169 197 36 l 340 204 q 258 82 357 188 m 150 574 q 144 598 144 579 q 149 617 144 617 q 221 565 161 617 q 331 475 281 513 q 332 465 331 475 q 236 515 315 468 q 150 574 157 561 z "},"":{"ha":267,"x_min":43,"x_max":451,"o":"m 258 82 q 185 24 232 53 q 101 -4 139 -4 q 63 22 63 -4 q 76 78 63 47 q 188 314 86 100 q 54 156 114 235 q 44 158 44 142 q 51 178 44 169 q 203 376 150 300 q 286 399 272 386 q 301 400 300 411 q 295 387 301 394 q 182 178 289 379 q 135 56 135 89 q 154 36 135 36 q 310 169 197 36 l 340 204 q 258 82 357 188 m 447 617 q 451 598 451 617 q 446 574 451 579 q 360 515 439 561 q 264 465 281 468 q 265 475 263 465 q 375 565 315 513 q 447 617 435 617 z "},"":{"ha":267,"x_min":43,"x_max":436,"o":"m 258 82 q 185 24 232 53 q 101 -4 139 -4 q 63 22 63 -4 q 76 78 63 47 q 188 314 86 100 q 54 156 114 235 q 44 158 44 142 q 51 178 44 169 q 203 376 150 300 q 286 399 272 386 q 301 400 300 411 q 295 387 301 394 q 182 178 289 379 q 135 56 135 89 q 154 36 135 36 q 310 169 197 36 l 340 204 q 258 82 357 188 m 401 465 q 294 556 369 465 q 286 556 294 560 q 226 512 271 542 q 169 477 182 482 q 143 475 156 472 q 300 592 244 543 l 317 592 q 411 494 350 536 q 436 483 429 483 l 436 479 l 401 465 z "},"":{"ha":267,"x_min":43,"x_max":429,"o":"m 258 82 q 185 24 232 53 q 101 -4 139 -4 q 63 22 63 -4 q 76 78 63 47 q 188 314 86 100 q 54 156 114 235 q 44 158 44 142 q 51 178 44 169 q 203 376 150 300 q 286 399 272 386 q 301 400 300 411 q 295 387 301 394 q 182 178 289 379 q 135 56 135 89 q 154 36 135 36 q 310 169 197 36 l 340 204 q 258 82 357 188 m 368 513 q 317 544 317 513 q 342 564 317 549 q 369 579 367 579 q 385 571 371 579 q 407 563 399 563 q 422 564 415 563 q 428 558 428 565 q 419 544 426 553 q 368 513 381 513 m 207 513 q 156 544 156 513 q 192 571 156 549 l 210 579 q 246 563 238 563 q 260 564 254 563 q 267 558 267 565 q 258 544 265 553 q 207 513 219 513 z "},"":{"ha":458,"x_min":4,"x_max":542,"o":"m 539 753 q 542 735 542 754 q 534 706 542 717 q 518 692 526 696 q 447 661 474 674 q 454 569 454 617 q 389 297 454 428 q 194 64 324 167 q 49 -3 107 -3 q 19 6 33 -3 q 4 25 4 15 q 6 38 4 35 q 70 204 15 115 q 190 343 125 293 q 297 379 235 379 q 361 379 329 379 q 397 560 397 463 q 393 633 397 596 q 289 571 324 596 l 288 582 q 304 632 292 625 q 386 668 325 638 q 304 785 365 761 q 292 800 286 792 q 327 815 300 815 q 388 791 354 815 q 440 694 421 767 q 497 728 464 708 q 539 753 529 747 m 349 332 q 317 358 349 358 q 208 306 267 358 q 113 183 150 253 q 75 61 75 113 q 86 44 75 44 q 241 151 133 44 q 349 332 349 258 z "},"":{"ha":458,"x_min":43,"x_max":533,"o":"m 468 360 q 445 308 468 342 q 376 183 422 275 q 331 66 331 90 q 351 42 331 42 q 403 67 371 42 q 462 122 436 93 q 531 204 488 151 q 533 192 533 200 q 515 160 533 183 q 396 26 444 64 q 308 -11 347 -11 q 264 33 264 -11 q 309 166 264 76 q 382 317 354 256 q 363 328 396 346 q 117 -3 204 229 q 84 -12 108 -3 q 56 -21 60 -21 q 56 -8 50 -21 q 80 47 63 6 q 122 153 97 89 q 188 314 171 275 q 54 156 114 235 q 44 158 44 142 q 51 178 44 169 q 203 376 150 300 q 286 399 272 386 q 301 400 300 411 q 292 384 301 394 q 183 188 283 374 q 339 342 250 275 q 432 383 396 383 q 468 360 468 383 m 533 557 q 506 508 525 528 q 464 488 488 488 q 397 505 440 488 q 326 522 353 522 q 288 497 299 522 l 271 497 q 299 538 278 519 q 342 557 319 557 q 399 543 364 557 q 469 526 442 526 q 519 557 497 526 l 533 557 z "},"":{"ha":368,"x_min":13,"x_max":436,"o":"m 388 332 q 313 149 388 257 q 260 88 283 110 q 429 190 351 88 q 436 185 436 197 q 431 167 436 174 q 269 68 360 68 q 244 69 257 68 q 69 -3 167 -3 q 13 46 13 -3 q 89 231 13 125 q 207 340 138 300 q 332 386 281 386 q 388 332 388 386 m 321 331 q 296 364 321 364 q 264 355 288 364 q 205 309 240 346 q 138 215 169 272 q 78 69 78 117 q 103 21 78 21 q 146 34 122 21 q 183 61 169 47 q 274 185 226 107 q 321 331 321 264 m 239 574 q 233 598 233 579 q 238 617 233 617 q 310 565 250 617 q 419 475 369 513 q 421 465 419 475 q 325 515 404 468 q 239 574 246 561 z "},"":{"ha":368,"x_min":13,"x_max":528,"o":"m 388 332 q 313 149 388 257 q 260 88 283 110 q 429 190 351 88 q 436 185 436 197 q 431 167 436 174 q 269 68 360 68 q 244 69 257 68 q 69 -3 167 -3 q 13 46 13 -3 q 89 231 13 125 q 207 340 138 300 q 332 386 281 386 q 388 332 388 386 m 321 331 q 296 364 321 364 q 264 355 288 364 q 205 309 240 346 q 138 215 169 272 q 78 69 78 117 q 103 21 78 21 q 146 34 122 21 q 183 61 169 47 q 274 185 226 107 q 321 331 321 264 m 524 617 q 528 598 528 617 q 522 574 528 579 q 436 515 515 561 q 340 465 357 468 q 342 475 339 465 q 451 565 392 513 q 524 617 511 617 z "},"":{"ha":368,"x_min":13,"x_max":513,"o":"m 388 332 q 313 149 388 257 q 260 88 283 110 q 429 190 351 88 q 436 185 436 197 q 431 167 436 174 q 269 68 360 68 q 244 69 257 68 q 69 -3 167 -3 q 13 46 13 -3 q 89 231 13 125 q 207 340 138 300 q 332 386 281 386 q 388 332 388 386 m 321 331 q 296 364 321 364 q 264 355 288 364 q 205 309 240 346 q 138 215 169 272 q 78 69 78 117 q 103 21 78 21 q 146 34 122 21 q 183 61 169 47 q 274 185 226 107 q 321 331 321 264 m 478 465 q 371 556 446 465 q 363 556 371 560 q 303 512 347 542 q 245 477 258 482 q 219 475 232 472 q 376 592 321 543 l 393 592 q 488 494 426 536 q 513 483 506 483 l 513 479 l 478 465 z "},"":{"ha":368,"x_min":13,"x_max":510,"o":"m 388 332 q 313 149 388 257 q 260 88 283 110 q 429 190 351 88 q 436 185 436 197 q 431 167 436 174 q 269 68 360 68 q 244 69 257 68 q 69 -3 167 -3 q 13 46 13 -3 q 89 231 13 125 q 207 340 138 300 q 332 386 281 386 q 388 332 388 386 m 321 331 q 296 364 321 364 q 264 355 288 364 q 205 309 240 346 q 138 215 169 272 q 78 69 78 117 q 103 21 78 21 q 146 34 122 21 q 183 61 169 47 q 274 185 226 107 q 321 331 321 264 m 510 557 q 483 508 501 528 q 440 488 464 488 q 373 505 417 488 q 302 522 329 522 q 264 497 275 522 l 247 497 q 275 538 254 519 q 318 557 296 557 q 375 543 340 557 q 446 526 418 526 q 496 557 474 526 l 510 557 z "},"":{"ha":368,"x_min":13,"x_max":532,"o":"m 388 332 q 313 149 388 257 q 260 88 283 110 q 429 190 351 88 q 436 185 436 197 q 431 167 436 174 q 269 68 360 68 q 244 69 257 68 q 69 -3 167 -3 q 13 46 13 -3 q 89 231 13 125 q 207 340 138 300 q 332 386 281 386 q 388 332 388 386 m 321 331 q 296 364 321 364 q 264 355 288 364 q 205 309 240 346 q 138 215 169 272 q 78 69 78 117 q 103 21 78 21 q 146 34 122 21 q 183 61 169 47 q 274 185 226 107 q 321 331 321 264 m 310 513 q 258 544 258 513 q 294 571 258 549 l 313 579 q 349 563 340 563 q 363 564 357 563 q 369 558 369 565 q 361 544 368 553 q 310 513 322 513 m 471 513 q 419 543 443 513 q 426 551 419 546 q 439 560 433 556 q 450 567 444 564 q 461 574 456 571 q 474 579 469 579 q 510 563 501 563 q 524 564 518 563 q 531 558 531 565 q 522 544 529 553 q 471 513 483 513 z "},"":{"ha":389,"x_min":14,"x_max":467,"o":"m 299 436 q 335 419 326 419 q 350 421 343 419 q 357 415 357 422 q 347 401 356 410 q 296 369 308 369 q 294 369 294 369 q 246 399 272 369 q 256 410 244 400 q 283 428 268 419 q 299 436 297 436 m 199 89 q 235 72 226 72 q 249 73 243 72 q 257 69 256 74 q 235 42 258 64 q 192 22 211 21 q 146 51 172 22 q 156 63 144 53 q 183 81 168 72 q 199 89 197 89 m 61 239 l 238 232 q 408 234 351 232 q 465 235 465 236 q 447 212 465 231 q 421 193 429 193 l 233 200 q 47 197 79 200 q 15 196 15 194 q 34 219 15 200 q 61 239 53 239 z "},"":{"ha":368,"x_min":13,"x_max":436,"o":"m 13 46 q 89 231 13 125 q 207 340 138 300 q 303 382 254 369 l 331 422 q 343 426 333 426 q 369 422 361 426 q 343 385 358 410 q 388 332 388 379 q 313 149 388 257 q 260 88 283 110 q 429 190 351 88 q 436 185 436 197 q 431 167 436 174 q 269 68 360 68 q 244 69 257 68 q 90 -1 174 6 l 72 -32 q 64 -37 69 -37 q 49 -32 51 -37 l 65 -3 q 13 46 13 0 m 107 21 q 185 64 143 21 q 274 185 226 107 q 321 331 321 264 q 319 350 321 342 q 104 21 213 194 q 107 21 106 21 m 78 61 q 85 31 78 38 q 290 364 203 232 q 138 215 211 346 q 78 61 78 117 z "},"":{"ha":546,"x_min":43,"x_max":621,"o":"m 542 365 q 447 237 500 353 q 393 78 393 121 q 414 36 393 36 q 496 81 439 36 q 606 192 557 128 q 618 206 617 204 q 621 188 622 197 q 603 160 619 179 q 374 -4 481 -4 q 325 33 325 -4 q 343 110 325 58 q 376 192 361 163 q 125 -4 240 -4 q 92 22 92 -4 q 146 164 92 56 q 179 232 158 189 q 208 289 200 275 q 215 309 215 303 q 211 315 215 315 q 157 275 201 315 q 54 156 113 235 q 44 158 44 142 q 51 178 44 169 q 144 294 108 254 q 183 338 179 333 q 198 352 186 342 q 217 367 210 363 q 276 383 244 383 q 307 360 307 383 q 283 307 307 342 q 212 178 260 272 q 164 60 164 85 q 183 36 164 36 q 267 90 210 36 q 447 351 354 174 q 464 374 460 374 l 483 374 q 553 386 528 374 q 560 382 558 389 q 542 365 560 371 m 290 574 q 285 598 285 579 q 289 617 285 617 q 361 565 301 617 q 471 475 421 513 q 472 465 471 475 q 376 515 456 468 q 290 574 297 561 z "},"":{"ha":546,"x_min":43,"x_max":621,"o":"m 542 365 q 447 237 500 353 q 393 78 393 121 q 414 36 393 36 q 496 81 439 36 q 606 192 557 128 q 618 206 617 204 q 621 188 622 197 q 603 160 619 179 q 374 -4 481 -4 q 325 33 325 -4 q 343 110 325 58 q 376 192 361 163 q 125 -4 240 -4 q 92 22 92 -4 q 146 164 92 56 q 179 232 158 189 q 208 289 200 275 q 215 309 215 303 q 211 315 215 315 q 157 275 201 315 q 54 156 113 235 q 44 158 44 142 q 51 178 44 169 q 144 294 108 254 q 183 338 179 333 q 198 352 186 342 q 217 367 210 363 q 276 383 244 383 q 307 360 307 383 q 283 307 307 342 q 212 178 260 272 q 164 60 164 85 q 183 36 164 36 q 267 90 210 36 q 447 351 354 174 q 464 374 460 374 l 483 374 q 553 386 528 374 q 560 382 558 389 q 542 365 560 371 m 586 617 q 590 598 590 617 q 585 574 590 579 q 499 515 578 561 q 403 465 419 468 q 404 475 401 465 q 514 565 454 513 q 586 617 574 617 z "},"":{"ha":546,"x_min":43,"x_max":621,"o":"m 542 365 q 447 237 500 353 q 393 78 393 121 q 414 36 393 36 q 496 81 439 36 q 606 192 557 128 q 618 206 617 204 q 621 188 622 197 q 603 160 619 179 q 374 -4 481 -4 q 325 33 325 -4 q 343 110 325 58 q 376 192 361 163 q 125 -4 240 -4 q 92 22 92 -4 q 146 164 92 56 q 179 232 158 189 q 208 289 200 275 q 215 309 215 303 q 211 315 215 315 q 157 275 201 315 q 54 156 113 235 q 44 158 44 142 q 51 178 44 169 q 144 294 108 254 q 183 338 179 333 q 198 352 186 342 q 217 367 210 363 q 276 383 244 383 q 307 360 307 383 q 283 307 307 342 q 212 178 260 272 q 164 60 164 85 q 183 36 164 36 q 267 90 210 36 q 447 351 354 174 q 464 374 460 374 l 483 374 q 553 386 528 374 q 560 382 558 389 q 542 365 560 371 m 553 465 q 446 556 521 465 q 438 556 446 560 q 378 512 422 542 q 320 477 333 482 q 294 475 307 472 q 451 592 396 543 l 468 592 q 563 494 501 536 q 588 483 581 483 l 588 479 l 553 465 z "},"":{"ha":546,"x_min":43,"x_max":621,"o":"m 542 365 q 447 237 500 353 q 393 78 393 121 q 414 36 393 36 q 496 81 439 36 q 606 192 557 128 q 618 206 617 204 q 621 188 622 197 q 603 160 619 179 q 374 -4 481 -4 q 325 33 325 -4 q 343 110 325 58 q 376 192 361 163 q 125 -4 240 -4 q 92 22 92 -4 q 146 164 92 56 q 179 232 158 189 q 208 289 200 275 q 215 309 215 303 q 211 315 215 315 q 157 275 201 315 q 54 156 113 235 q 44 158 44 142 q 51 178 44 169 q 144 294 108 254 q 183 338 179 333 q 198 352 186 342 q 217 367 210 363 q 276 383 244 383 q 307 360 307 383 q 283 307 307 342 q 212 178 260 272 q 164 60 164 85 q 183 36 164 36 q 267 90 210 36 q 447 351 354 174 q 464 374 460 374 l 483 374 q 553 386 528 374 q 560 382 558 389 q 542 365 560 371 m 351 513 q 300 544 300 513 q 336 571 300 549 l 354 579 q 390 563 382 563 q 405 564 399 563 q 411 558 411 565 q 403 544 410 553 q 351 513 364 513 m 513 513 q 461 544 461 513 q 487 565 461 551 q 514 579 513 579 q 529 571 515 579 q 551 563 543 563 q 566 564 560 563 q 572 558 572 565 q 564 544 571 553 q 513 513 525 513 z "},"":{"ha":478,"x_min":-285,"x_max":597,"o":"m 307 360 q 283 307 307 342 q 212 178 260 272 q 164 60 164 85 q 183 36 164 36 q 274 97 210 36 q 391 249 338 158 q 456 346 444 340 q 529 379 515 376 q 556 382 543 382 q 569 372 569 382 q 557 363 569 363 q 510 336 528 363 q 322 -79 476 289 q 246 -237 283 -171 q 146 -368 208 -303 q -96 -486 33 -486 q -200 -461 -151 -486 q -285 -310 -285 -417 l -285 -286 q -268 -265 -285 -265 q -265 -268 -265 -265 l -268 -303 q -228 -399 -268 -365 q -133 -433 -189 -433 q -24 -412 -76 -433 q 177 -249 94 -361 q 329 24 260 -137 q 400 217 363 106 q 281 75 335 128 q 125 -4 199 -4 q 92 22 92 -4 q 146 164 92 56 q 179 232 158 189 q 208 289 200 275 q 215 309 215 303 q 211 315 215 315 q 157 275 201 315 q 54 156 113 235 q 44 156 46 143 q 51 178 43 169 q 144 294 108 254 q 183 338 179 333 q 198 352 186 342 q 217 367 210 363 q 276 383 244 383 q 307 360 307 383 m 593 617 q 597 598 597 617 q 592 574 597 579 q 506 515 585 561 q 410 465 426 468 q 411 475 408 465 q 521 565 461 513 q 593 617 581 617 z "},"":{"ha":506,"x_min":-290,"x_max":600,"o":"m 465 808 q 585 831 493 831 q 600 824 600 831 q 554 806 600 818 q 404 685 489 789 q 140 239 256 503 q 142 233 139 233 q 354 378 286 378 q 378 344 378 378 l 378 332 q 266 102 361 217 q 61 -12 171 -12 q 25 -8 44 -12 q -49 -164 0 -67 q -115 -294 -97 -261 q -201 -435 -165 -385 q -268 -460 -219 -460 q -289 -450 -289 -460 q -283 -437 -289 -444 q -148 -216 -240 -387 q 38 157 -56 -44 q 465 808 279 679 m 310 313 q 297 331 310 331 q 229 286 276 331 q 153 207 182 242 q 53 39 53 93 q 88 11 53 11 q 171 60 122 11 q 258 182 207 93 q 310 313 310 271 z "},"":{"ha":478,"x_min":-285,"x_max":579,"o":"m 307 360 q 283 307 307 342 q 212 178 260 272 q 164 60 164 85 q 183 36 164 36 q 274 97 210 36 q 391 249 338 158 q 456 346 444 340 q 529 379 515 376 q 556 382 543 382 q 569 372 569 382 q 557 363 569 363 q 510 336 528 363 q 322 -79 476 289 q 246 -237 283 -171 q 146 -368 208 -303 q -96 -486 33 -486 q -200 -461 -151 -486 q -285 -310 -285 -417 l -285 -286 q -268 -265 -285 -265 q -265 -268 -265 -265 l -268 -303 q -228 -399 -268 -365 q -133 -433 -189 -433 q -24 -412 -76 -433 q 177 -249 94 -361 q 329 24 260 -137 q 400 217 363 106 q 281 75 335 128 q 125 -4 199 -4 q 92 22 92 -4 q 146 164 92 56 q 179 232 158 189 q 208 289 200 275 q 215 309 215 303 q 211 315 215 315 q 157 275 201 315 q 54 156 113 235 q 44 156 46 143 q 51 178 43 169 q 144 294 108 254 q 183 338 179 333 q 198 352 186 342 q 217 367 210 363 q 276 383 244 383 q 307 360 307 383 m 357 513 q 306 544 306 513 q 331 564 306 549 q 358 579 356 579 q 374 571 360 579 q 396 563 388 563 q 410 564 404 563 q 417 558 417 565 q 408 544 415 553 q 357 513 369 513 m 518 513 q 467 544 467 513 q 503 571 467 549 l 521 579 q 557 563 549 563 q 572 564 565 563 q 578 558 578 565 q 569 544 576 553 q 518 513 531 513 z "},"":{"ha":1067,"x_min":28,"x_max":1390,"o":"m 912 342 q 900 333 912 342 q 851 322 889 324 q 764 319 813 319 q 672 321 715 319 q 121 -35 328 -35 q 52 -11 76 -35 q 28 49 28 13 q 29 74 28 57 q 48 126 31 90 q 69 163 65 163 q 74 151 81 164 q 56 89 56 111 q 63 56 56 67 q 133 24 81 24 q 621 324 299 24 q 436 332 463 332 q 296 297 331 332 q 271 231 271 272 q 274 210 271 219 q 245 218 253 214 q 235 232 238 222 q 233 249 236 243 q 237 264 231 256 q 245 277 243 272 q 256 288 247 282 q 270 298 265 294 q 285 307 275 301 q 301 315 296 313 q 318 322 307 317 q 526 372 433 372 q 668 368 583 372 q 872 576 760 457 q 1094 724 985 694 l 1018 724 q 681 592 707 724 q 679 566 679 582 q 696 540 679 550 q 690 531 703 536 q 674 528 678 525 q 651 564 660 538 q 642 600 642 590 q 666 672 642 643 q 731 716 690 701 q 804 740 771 731 q 892 753 838 749 q 1038 757 968 757 l 1189 757 q 1190 756 1192 757 q 1319 801 1292 801 q 1350 794 1346 801 q 1346 784 1354 786 q 1325 782 1338 782 q 1306 781 1313 782 q 1257 747 1283 776 q 1113 528 1211 701 q 953 219 1014 356 q 951 215 953 218 q 901 58 901 100 q 929 15 901 15 q 1022 67 967 15 q 1121 181 1076 118 q 1134 186 1128 192 q 1132 169 1140 181 q 1107 136 1113 143 q 1089 113 1101 129 q 1067 87 1076 97 q 1042 62 1057 76 q 1015 36 1028 47 q 911 -12 956 -12 q 831 72 831 -12 q 883 247 831 136 q 1023 518 935 357 q 1154 736 1111 679 q 1053 697 1119 735 q 946 617 988 660 q 826 488 904 574 q 715 365 749 401 q 849 363 799 363 q 943 383 900 363 q 912 342 935 361 m 1382 878 l 1168 865 q 1156 875 1163 865 q 1150 893 1146 886 q 1267 900 1176 900 q 1390 886 1365 900 q 1390 882 1392 886 q 1382 878 1389 878 z "},"":{"ha":408,"x_min":4,"x_max":515,"o":"m 482 206 q 485 194 485 203 q 465 160 485 186 q 236 -4 342 -4 q 203 22 203 -4 q 257 156 203 71 q 146 51 208 104 q 29 -3 83 -3 q 4 28 4 -3 q 6 38 4 35 q 69 204 15 117 q 294 379 178 379 l 454 379 q 461 374 461 379 q 449 363 461 363 q 400 317 429 363 q 323 178 371 272 q 275 60 275 85 q 294 36 275 36 q 383 92 326 36 q 429 142 414 124 q 449 165 444 160 q 482 206 454 171 m 333 335 q 298 361 333 361 q 219 321 263 361 q 126 191 176 281 q 75 61 75 101 q 86 44 75 44 q 230 167 126 44 q 333 335 333 290 m 507 497 l 293 485 q 281 494 288 485 q 275 513 271 506 q 392 519 301 519 q 515 506 490 519 q 515 501 517 506 q 507 497 514 497 z "},"":{"ha":1067,"x_min":28,"x_max":1358,"o":"m 912 342 q 900 333 912 342 q 851 322 889 324 q 764 319 813 319 q 672 321 715 319 q 121 -35 328 -35 q 52 -11 76 -35 q 28 49 28 13 q 29 74 28 57 q 48 126 31 90 q 69 163 65 163 q 74 151 81 164 q 56 89 56 111 q 63 56 56 67 q 133 24 81 24 q 621 324 299 24 q 436 332 463 332 q 296 297 331 332 q 271 231 271 272 q 274 210 271 219 q 245 218 253 214 q 235 232 238 222 q 233 249 236 243 q 237 264 231 256 q 245 277 243 272 q 256 288 247 282 q 270 298 265 294 q 285 307 275 301 q 301 315 296 313 q 318 322 307 317 q 526 372 433 372 q 668 368 583 372 q 872 576 760 457 q 1094 724 985 694 l 1018 724 q 681 592 707 724 q 679 566 679 582 q 696 540 679 550 q 690 531 703 536 q 674 528 678 525 q 651 564 660 538 q 642 600 642 590 q 666 672 642 643 q 731 716 690 701 q 804 740 771 731 q 892 753 838 749 q 1038 757 968 757 l 1189 757 q 1190 756 1192 757 q 1319 801 1292 801 q 1350 794 1346 801 q 1346 784 1354 786 q 1325 782 1338 782 q 1306 781 1313 782 q 1257 747 1283 776 q 1113 528 1211 701 q 953 219 1014 356 q 951 215 953 218 q 901 58 901 100 q 929 15 901 15 q 1022 67 967 15 q 1121 181 1076 118 q 1134 186 1128 192 q 1132 169 1140 181 q 1107 136 1113 143 q 1089 113 1101 129 q 1067 87 1076 97 q 1042 62 1057 76 q 1015 36 1028 47 q 911 -12 956 -12 q 831 72 831 -12 q 883 247 831 136 q 1023 518 935 357 q 1154 736 1111 679 q 1053 697 1119 735 q 946 617 988 660 q 826 488 904 574 q 715 365 749 401 q 849 363 799 363 q 943 383 900 363 q 912 342 935 361 m 1207 835 q 1126 879 1126 835 q 1132 897 1126 886 q 1143 907 1138 907 l 1164 907 q 1167 869 1149 882 q 1223 856 1186 856 q 1336 901 1260 856 l 1358 901 q 1293 856 1338 876 q 1207 835 1249 835 z "},"":{"ha":408,"x_min":4,"x_max":508,"o":"m 482 206 q 485 194 485 203 q 465 160 485 186 q 236 -4 342 -4 q 203 22 203 -4 q 257 156 203 71 q 146 51 208 104 q 29 -3 83 -3 q 4 28 4 -3 q 6 38 4 35 q 69 204 15 117 q 294 379 178 379 l 454 379 q 461 374 461 379 q 449 363 461 363 q 400 317 429 363 q 323 178 371 272 q 275 60 275 85 q 294 36 275 36 q 383 92 326 36 q 429 142 414 124 q 449 165 444 160 q 482 206 454 171 m 333 335 q 298 361 333 361 q 219 321 263 361 q 126 191 176 281 q 75 61 75 101 q 86 44 75 44 q 230 167 126 44 q 333 335 333 290 m 357 444 q 276 489 276 444 q 282 506 276 496 q 293 517 288 517 l 314 517 q 317 478 299 492 q 373 465 336 465 q 486 511 410 465 l 508 511 q 443 465 488 486 q 357 444 399 444 z "},"":{"ha":1067,"x_min":28,"x_max":1353,"o":"m 1351 789 q 1332 782 1351 782 q 1306 781 1313 782 q 1257 747 1283 776 q 1113 528 1211 701 q 953 219 1014 356 q 951 215 953 218 q 901 58 901 100 q 929 15 901 15 q 1022 67 967 15 q 1121 181 1076 118 q 1134 186 1128 192 q 1132 169 1140 181 q 1107 136 1113 143 q 1089 113 1101 129 q 1067 87 1076 97 q 1042 62 1057 76 q 1015 36 1028 47 q 915 -11 961 -8 q 874 -78 892 -32 q 856 -160 856 -125 q 879 -196 856 -196 q 923 -178 900 -196 q 968 -139 946 -160 q 997 -112 990 -118 l 997 -122 l 990 -140 q 860 -239 946 -203 q 824 -247 839 -247 q 790 -205 790 -247 q 824 -101 790 -162 q 889 -11 857 -39 q 831 67 831 -3 q 883 247 831 136 q 1023 518 935 357 q 1154 736 1111 679 q 1053 697 1119 735 q 946 617 988 660 q 826 488 904 574 q 715 365 749 401 q 849 363 799 363 q 943 383 900 363 q 912 342 935 361 q 851 322 889 324 q 764 319 813 319 q 672 321 715 319 q 121 -35 328 -35 q 52 -11 76 -35 q 28 49 28 13 q 29 74 28 57 q 48 126 31 90 q 69 163 65 163 q 74 151 81 164 q 56 89 56 111 q 63 56 56 67 q 133 24 81 24 q 621 324 299 24 q 436 332 463 332 q 296 297 331 332 q 271 231 271 272 q 274 210 271 219 q 245 218 253 214 q 235 232 238 222 q 233 249 236 243 q 237 264 231 256 q 245 277 243 272 q 256 288 247 282 q 270 298 265 294 q 285 307 275 301 q 301 315 296 313 q 318 322 307 317 q 526 372 433 372 q 668 368 583 372 q 872 576 760 457 q 1094 724 985 694 l 1018 724 q 681 592 707 724 q 679 566 679 582 q 696 540 679 550 q 690 531 703 536 q 674 528 678 525 q 651 564 660 538 q 642 600 642 590 q 666 672 642 643 q 731 716 690 701 q 804 740 771 731 q 892 753 838 749 q 1038 757 968 757 l 1189 757 q 1190 756 1192 757 q 1318 801 1292 801 q 1351 789 1351 801 z "},"":{"ha":408,"x_min":4,"x_max":485,"o":"m 150 -237 q 117 -195 117 -237 q 150 -90 117 -153 q 215 0 183 -28 q 203 22 203 4 q 257 156 203 71 q 146 51 208 104 q 29 -3 83 -3 q 4 28 4 -3 q 6 38 4 35 q 69 204 15 117 q 294 379 178 379 l 454 379 q 461 374 461 379 q 449 363 461 363 q 400 317 429 363 q 323 178 371 272 q 275 60 275 85 q 294 36 275 36 q 383 92 326 36 q 429 142 414 124 q 449 165 444 160 q 482 206 454 171 q 485 194 485 203 q 465 160 485 186 q 239 -4 344 -1 q 199 -71 217 -25 q 182 -151 182 -117 q 206 -186 182 -186 q 249 -168 226 -186 q 294 -129 272 -150 q 324 -103 317 -108 l 324 -112 l 317 -131 q 186 -229 272 -193 q 150 -237 165 -237 m 333 335 q 298 361 333 361 q 219 321 263 361 q 126 191 176 281 q 75 61 75 101 q 86 44 75 44 q 230 167 126 44 q 333 335 333 290 z "},"":{"ha":732,"x_min":53,"x_max":819,"o":"m 731 533 q 754 621 754 572 q 739 697 754 669 q 636 742 713 742 q 360 628 494 742 q 198 419 261 540 q 135 202 135 297 q 178 59 135 107 q 290 1 222 11 q 361 -4 326 -4 q 561 33 467 -4 q 804 206 713 92 q 818 206 818 222 q 807 181 818 196 q 572 3 719 64 q 351 -40 468 -40 q 90 60 163 -40 q 53 188 53 111 q 125 442 53 318 q 311 653 197 567 q 626 763 457 763 q 759 735 703 763 q 815 664 815 708 q 790 602 815 644 q 757 540 764 560 q 736 529 754 531 q 731 533 731 531 m 813 1007 q 817 988 817 1007 q 811 964 817 969 q 725 905 804 951 q 629 856 646 858 q 631 865 628 856 q 740 955 681 903 q 813 1007 800 1007 z "},"":{"ha":331,"x_min":11,"x_max":497,"o":"m 114 -11 q 81 -11 114 -11 q 30 10 49 -11 q 11 49 11 31 q 19 94 11 67 q 86 226 35 151 q 207 340 138 300 q 332 386 281 386 q 374 374 360 386 q 389 344 389 363 q 371 269 389 303 q 353 256 364 254 q 351 265 349 257 q 353 290 353 274 q 344 328 353 306 q 308 363 332 363 q 254 347 283 363 q 211 315 225 331 q 92 117 126 228 q 82 58 82 81 q 101 29 82 35 q 188 37 131 18 q 308 108 244 56 q 403 204 371 160 q 392 165 411 196 q 264 44 344 100 q 114 -11 179 -11 m 493 617 q 497 598 497 617 q 492 574 497 579 q 406 515 485 561 q 310 465 326 468 q 311 475 308 465 q 421 565 361 513 q 493 617 481 617 z "},"":{"ha":732,"x_min":53,"x_max":822,"o":"m 731 533 q 754 621 754 572 q 739 697 754 669 q 636 742 713 742 q 360 628 494 742 q 198 419 261 540 q 135 202 135 297 q 178 59 135 107 q 290 1 222 11 q 361 -4 326 -4 q 561 33 467 -4 q 804 206 713 92 q 818 210 815 219 q 807 181 821 200 q 572 3 719 64 q 351 -40 468 -40 q 90 60 163 -40 q 53 188 53 111 q 125 442 53 318 q 311 653 197 567 q 626 763 457 763 q 759 735 703 763 q 815 664 815 708 q 790 602 815 644 q 757 540 764 560 q 736 529 754 531 q 731 533 731 531 m 788 824 q 681 914 756 824 q 672 914 681 918 q 613 870 657 900 q 555 835 568 840 q 529 833 542 831 q 686 950 631 901 l 703 950 q 797 853 736 894 q 822 842 815 842 l 822 838 l 788 824 z "},"":{"ha":331,"x_min":11,"x_max":489,"o":"m 114 -11 q 81 -11 114 -11 q 30 10 49 -11 q 11 49 11 31 q 19 94 11 67 q 86 226 35 151 q 207 340 138 300 q 332 386 281 386 q 374 374 360 386 q 389 344 389 363 q 371 269 389 303 q 353 256 364 254 q 351 265 349 257 q 353 290 353 274 q 344 328 353 306 q 308 363 332 363 q 254 347 283 363 q 211 315 225 331 q 92 117 126 228 q 82 58 82 81 q 101 29 82 35 q 188 37 131 18 q 308 108 244 56 q 403 204 371 160 q 392 165 411 196 q 264 44 344 100 q 114 -11 179 -11 m 454 465 q 347 556 422 465 q 339 556 347 560 q 279 512 324 542 q 222 477 235 482 q 196 475 208 472 q 353 592 297 543 l 369 592 q 464 494 403 536 q 489 483 482 483 l 489 479 l 454 465 z "},"":{"ha":732,"x_min":53,"x_max":819,"o":"m 731 533 q 754 621 754 572 q 739 697 754 669 q 636 742 713 742 q 360 628 494 742 q 198 419 261 540 q 135 202 135 297 q 178 59 135 107 q 290 1 222 11 q 361 -4 326 -4 q 561 33 467 -4 q 804 206 713 92 q 818 206 818 222 q 807 181 818 196 q 572 3 719 64 q 351 -40 468 -40 q 90 60 163 -40 q 53 188 53 111 q 125 442 53 318 q 311 653 197 567 q 626 763 457 763 q 759 735 703 763 q 815 664 815 708 q 790 602 815 644 q 757 540 764 560 q 736 529 754 531 q 731 533 731 531 m 693 825 q 642 856 665 825 q 649 863 642 858 q 661 872 656 868 q 672 880 667 876 q 683 886 678 883 q 696 892 692 892 q 732 875 724 875 q 747 876 740 875 q 753 871 753 878 q 744 857 751 865 q 693 825 706 825 z "},"":{"ha":331,"x_min":11,"x_max":418,"o":"m 114 -11 q 81 -11 114 -11 q 30 10 49 -11 q 11 49 11 31 q 19 94 11 67 q 86 226 35 151 q 207 340 138 300 q 332 386 281 386 q 374 374 360 386 q 389 344 389 363 q 371 269 389 303 q 353 256 364 254 q 351 265 349 257 q 353 290 353 274 q 344 328 353 306 q 308 363 332 363 q 254 347 283 363 q 211 315 225 331 q 92 117 126 228 q 82 58 82 81 q 101 29 82 35 q 188 37 131 18 q 308 108 244 56 q 403 204 371 160 q 392 165 411 196 q 264 44 344 100 q 114 -11 179 -11 m 357 453 q 306 485 306 453 q 331 504 306 489 q 358 519 356 519 q 374 511 360 519 q 396 503 388 503 q 410 504 404 503 q 417 499 417 506 q 408 485 415 493 q 357 453 369 453 z "},"":{"ha":732,"x_min":53,"x_max":819,"o":"m 731 533 q 754 621 754 572 q 739 697 754 669 q 636 742 713 742 q 360 628 494 742 q 198 419 261 540 q 135 202 135 297 q 178 59 135 107 q 290 1 222 11 q 361 -4 326 -4 q 561 33 467 -4 q 804 206 713 92 q 818 206 818 222 q 807 181 818 196 q 572 3 719 64 q 351 -40 468 -40 q 90 60 163 -40 q 53 188 53 111 q 125 442 53 318 q 311 653 197 567 q 626 763 457 763 q 759 735 703 763 q 815 664 815 708 q 790 602 815 644 q 757 540 764 560 q 736 529 754 531 q 731 533 731 531 m 551 933 q 658 843 583 933 q 667 843 658 839 q 726 887 682 857 q 784 922 771 917 q 810 924 797 926 q 653 807 708 856 l 636 807 q 542 904 603 863 q 517 915 524 915 l 517 919 l 551 933 z "},"":{"ha":331,"x_min":11,"x_max":456,"o":"m 114 -11 q 81 -11 114 -11 q 30 10 49 -11 q 11 49 11 31 q 19 94 11 67 q 86 226 35 151 q 207 340 138 300 q 332 386 281 386 q 374 374 360 386 q 389 344 389 363 q 371 269 389 303 q 353 256 364 254 q 351 265 349 257 q 353 290 353 274 q 344 328 353 306 q 308 363 332 363 q 254 347 283 363 q 211 315 225 331 q 92 117 126 228 q 82 58 82 81 q 101 29 82 35 q 188 37 131 18 q 308 108 244 56 q 403 204 371 160 q 392 165 411 196 q 264 44 344 100 q 114 -11 179 -11 m 197 554 q 304 464 229 554 q 313 464 304 460 q 372 508 328 478 q 430 542 417 538 q 456 544 443 547 q 299 428 354 476 l 282 428 q 188 525 249 483 q 163 536 169 536 l 163 540 l 197 554 z "},"":{"ha":869,"x_min":-3,"x_max":950,"o":"m 317 756 l 593 763 q 875 694 786 763 q 929 622 908 668 q 950 515 950 576 q 856 232 950 374 q 381 -22 686 -22 q 192 19 274 -22 q 146 32 167 32 q 79 3 125 32 q 15 -26 33 -26 q -3 -18 -3 -26 l 0 -14 l 8 -11 q 18 -10 8 -12 q 89 53 63 6 q 333 496 129 119 l 428 682 q 510 738 449 717 l 476 738 q 280 719 385 738 q 150 653 175 700 q 136 608 136 628 q 142 576 136 588 q 155 560 149 565 q 161 554 161 556 q 150 546 161 546 q 118 578 139 546 q 89 657 89 624 q 317 756 89 756 m 824 318 q 865 519 865 424 q 800 674 865 614 q 626 733 735 733 q 528 705 553 733 q 472 622 503 676 q 421 530 440 568 q 378 443 401 492 q 293 276 363 410 q 213 119 224 142 q 203 77 203 96 q 238 29 203 58 q 364 -3 279 -3 q 641 85 518 -3 q 824 318 764 174 m 568 926 q 675 836 600 926 q 683 836 675 832 q 743 880 699 850 q 801 915 788 910 q 826 917 814 919 q 669 800 725 849 l 653 800 q 558 897 619 856 q 533 908 540 908 l 533 913 l 568 926 z "},"":{"ha":726,"x_min":4,"x_max":828,"o":"m 818 753 q 814 756 817 753 q 772 803 808 789 q 736 808 756 808 q 693 800 717 808 q 546 633 626 776 q 379 300 465 490 q 346 232 378 299 q 275 60 275 85 q 292 36 275 36 q 387 99 322 36 q 482 206 451 163 q 485 194 485 203 q 465 160 485 185 q 236 -4 342 -4 q 203 22 203 -4 q 257 156 203 71 q 156 58 208 104 q 29 -3 81 -3 q 4 28 4 -3 q 6 38 4 35 q 70 204 15 115 q 190 343 125 293 q 297 379 235 379 q 361 379 329 379 q 432 509 383 417 q 501 636 481 601 q 781 850 628 850 q 815 839 800 850 q 828 808 829 828 l 825 758 q 818 753 825 753 m 333 335 q 298 361 333 361 q 219 321 263 361 q 126 191 176 281 q 75 61 75 101 q 86 44 75 44 q 230 167 126 44 q 333 335 333 290 m 771 710 q 768 688 771 700 q 656 531 747 597 l 635 519 q 649 546 639 538 q 713 647 700 590 q 706 679 715 665 q 678 696 696 693 l 683 711 q 719 731 699 715 q 742 746 740 746 q 771 710 771 742 z "},"":{"ha":869,"x_min":-3,"x_max":950,"o":"m 317 756 l 593 763 q 875 694 786 763 q 929 622 908 668 q 950 515 950 576 q 856 232 950 374 q 381 -22 686 -22 q 192 19 274 -22 q 146 32 167 32 q 79 3 125 32 q 15 -26 33 -26 q -3 -18 -3 -26 l 0 -14 l 8 -11 q 18 -10 8 -12 q 89 53 63 6 q 250 339 151 154 q 193 338 231 338 q 181 347 188 338 q 175 365 171 358 q 267 372 188 368 l 396 617 q 428 682 415 661 q 510 738 449 717 l 476 738 q 280 719 385 738 q 150 653 175 700 q 136 608 136 628 q 142 576 136 588 q 155 560 149 565 q 161 554 161 556 q 150 546 161 546 q 118 578 139 546 q 89 657 89 624 q 317 756 89 756 m 407 350 q 329 346 367 350 q 209 110 215 125 q 203 77 203 96 q 238 29 203 58 q 364 -3 279 -3 q 641 85 518 -3 q 824 318 764 174 q 865 519 865 424 q 800 674 865 614 q 626 733 735 733 q 528 705 553 733 q 472 622 503 676 q 421 530 440 568 q 378 443 401 492 q 342 371 354 394 l 342 369 q 417 357 417 365 q 407 350 414 350 z "},"":{"ha":408,"x_min":4,"x_max":828,"o":"m 604 585 q 601 580 604 585 q 590 566 599 575 q 577 557 581 557 q 507 563 574 557 q 408 365 439 431 q 346 232 378 299 q 275 60 275 85 q 292 36 275 36 q 387 99 322 36 q 482 206 451 163 q 485 194 485 203 q 465 160 485 185 q 236 -4 342 -4 q 203 22 203 -4 q 257 156 203 71 q 156 58 208 104 q 29 -3 81 -3 q 4 28 4 -3 q 6 38 4 35 q 70 204 15 115 q 190 343 125 293 q 297 379 235 379 q 361 379 329 379 q 460 563 385 418 q 376 558 419 563 q 385 576 369 557 q 407 596 401 596 q 475 590 417 593 l 501 636 q 781 850 628 850 q 815 839 800 850 q 828 808 829 828 l 825 758 q 818 753 825 753 q 814 756 817 753 q 772 803 808 789 q 736 808 756 808 q 693 800 717 808 q 544 632 626 776 l 521 590 q 607 594 544 590 q 604 585 610 594 m 333 335 q 298 361 333 361 q 219 321 263 361 q 126 191 176 281 q 75 61 75 101 q 86 44 75 44 q 230 167 126 44 q 333 335 333 290 z "},"":{"ha":664,"x_min":46,"x_max":808,"o":"m 340 756 l 658 761 q 796 742 774 761 q 808 722 808 732 q 806 701 808 713 q 765 610 800 661 q 742 593 756 592 q 741 613 736 593 q 746 658 746 633 q 701 731 746 717 q 639 736 682 736 q 547 733 596 736 q 478 706 497 731 q 308 426 435 644 q 319 411 303 411 l 481 408 q 628 428 590 408 q 639 425 640 436 q 614 385 638 403 q 572 368 590 368 l 354 374 q 299 372 321 374 q 272 359 278 371 q 250 317 265 347 q 154 88 154 139 q 293 11 154 14 q 719 185 583 11 q 728 183 725 193 q 726 167 731 172 q 696 127 722 161 q 660 83 669 93 q 631 50 650 72 q 554 0 594 13 q 367 -17 496 -17 q 156 -8 239 -17 q 54 29 74 0 q 47 61 47 40 q 68 124 47 82 q 183 326 108 196 q 302 535 258 457 q 381 668 346 614 q 467 735 415 722 q 234 703 288 725 q 166 655 181 681 q 151 600 151 629 q 174 557 151 571 q 172 549 179 554 q 157 549 165 544 q 131 581 149 554 q 104 657 104 621 q 263 754 104 743 q 333 756 289 756 l 340 756 m 692 872 l 478 860 q 464 869 472 860 q 460 888 456 881 q 578 894 486 894 q 700 881 675 894 q 700 876 701 881 q 692 872 699 872 z "},"":{"ha":346,"x_min":22,"x_max":447,"o":"m 117 165 q 96 65 96 111 q 153 18 96 18 q 207 31 174 18 q 319 100 261 49 q 415 200 378 151 q 410 168 425 190 q 282 43 358 97 q 126 -11 206 -11 q 24 64 24 -11 q 88 229 24 124 q 190 335 124 286 q 318 385 257 385 q 379 326 379 385 q 331 234 379 265 q 223 184 283 203 q 117 165 163 165 m 128 193 q 159 193 136 193 q 214 203 182 193 q 317 292 293 226 q 324 328 324 311 q 313 353 324 346 q 293 361 301 361 q 128 193 203 360 m 439 472 l 225 460 q 211 469 219 460 q 207 488 203 481 q 325 494 233 494 q 447 481 422 494 q 447 476 449 481 q 439 472 446 472 z "},"":{"ha":664,"x_min":46,"x_max":808,"o":"m 340 756 l 658 761 q 796 742 774 761 q 808 722 808 732 q 806 701 808 713 q 765 610 800 661 q 742 593 756 592 q 741 613 736 593 q 746 658 746 633 q 701 731 746 717 q 639 736 682 736 q 547 733 596 736 q 478 706 497 731 q 308 426 435 644 q 319 411 303 411 l 481 408 q 628 428 590 408 q 639 425 640 436 q 614 385 638 403 q 572 368 590 368 l 354 374 q 299 372 321 374 q 272 359 278 371 q 250 317 265 347 q 154 88 154 139 q 293 11 154 14 q 719 185 583 11 q 728 183 725 193 q 726 167 731 172 q 696 127 722 161 q 660 83 669 93 q 631 50 650 72 q 554 0 594 13 q 367 -17 496 -17 q 156 -8 239 -17 q 54 29 74 0 q 47 61 47 40 q 68 124 47 82 q 183 326 108 196 q 302 535 258 457 q 381 668 346 614 q 467 735 415 722 q 234 703 288 725 q 166 655 181 681 q 151 600 151 629 q 174 557 151 571 q 172 549 179 554 q 157 549 165 544 q 131 581 149 554 q 104 657 104 621 q 263 754 104 743 q 333 756 289 756 l 340 756 m 625 803 q 574 833 597 803 q 581 841 574 836 q 593 850 588 846 q 604 858 599 854 q 614 864 610 861 q 628 869 625 869 q 664 853 656 853 q 678 854 672 853 q 685 849 685 856 q 676 835 683 843 q 625 803 638 803 z "},"":{"ha":346,"x_min":22,"x_max":419,"o":"m 117 165 q 96 65 96 111 q 153 18 96 18 q 207 31 174 18 q 319 100 261 49 q 415 200 378 151 q 419 189 419 196 q 410 168 419 182 q 282 43 358 97 q 126 -11 206 -11 q 24 64 24 -11 q 88 229 24 124 q 190 335 124 286 q 318 385 257 385 q 379 326 379 385 q 331 234 379 265 q 223 184 283 203 q 117 165 163 165 m 128 193 q 159 193 136 193 q 214 203 182 193 q 317 292 293 226 q 324 328 324 311 q 313 353 324 346 q 293 361 301 361 q 128 193 203 360 m 351 446 q 300 478 300 446 q 336 504 300 482 l 354 513 q 390 496 382 496 q 405 497 399 496 q 411 492 411 499 q 403 478 410 486 q 351 446 364 446 z "},"":{"ha":664,"x_min":46,"x_max":808,"o":"m 572 368 l 354 374 q 299 372 321 374 q 272 359 278 371 q 250 317 265 347 q 154 88 154 139 q 293 11 154 14 q 719 185 583 11 q 728 183 725 193 q 726 167 731 172 q 696 127 722 161 q 660 83 669 93 q 631 50 650 72 q 564 4 594 13 q 358 -15 503 -12 q 311 -81 333 -29 q 289 -169 289 -132 q 313 -207 289 -207 q 356 -189 333 -207 q 401 -150 379 -171 q 431 -124 424 -129 l 431 -133 l 424 -151 q 293 -250 379 -214 q 257 -258 272 -258 q 224 -215 224 -258 q 260 -104 224 -171 q 329 -15 297 -37 q 144 -8 217 -15 q 47 56 47 3 q 68 124 47 82 q 183 326 108 196 q 302 535 258 457 q 381 668 346 614 q 467 735 415 722 q 234 703 288 725 q 166 655 181 681 q 151 600 151 629 q 174 557 151 571 q 172 549 179 554 q 157 549 165 544 q 131 581 149 554 q 104 657 104 621 q 263 754 104 743 q 333 756 289 756 l 340 756 l 658 761 q 796 742 774 761 q 808 722 808 732 q 806 701 808 713 q 765 610 800 661 q 742 593 756 592 q 741 613 736 593 q 746 658 746 633 q 701 731 746 717 q 639 736 682 736 q 547 733 596 736 q 478 706 497 731 q 308 426 435 644 q 319 411 303 411 l 481 408 q 628 428 590 408 q 639 425 640 436 q 614 385 638 403 q 572 368 590 368 z "},"":{"ha":346,"x_min":1,"x_max":419,"o":"m 117 165 q 96 65 96 111 q 153 18 96 18 q 207 31 174 18 q 319 100 261 49 q 415 200 378 151 q 419 189 419 196 q 410 168 419 182 q 282 44 358 99 q 126 -11 206 -10 q 85 -78 104 -31 q 67 -160 67 -125 q 90 -196 67 -196 q 134 -178 111 -196 q 179 -139 157 -160 q 208 -112 201 -118 l 208 -122 l 201 -140 q 71 -239 157 -203 q 35 -247 50 -247 q 1 -204 1 -247 q 35 -99 1 -161 q 101 -10 69 -36 q 24 64 24 -1 q 88 229 24 124 q 190 335 124 286 q 318 385 257 385 q 379 326 379 385 q 331 234 379 265 q 223 184 283 203 q 117 165 163 165 m 128 193 q 159 193 136 193 q 214 203 182 193 q 317 292 293 226 q 324 328 324 311 q 313 353 324 346 q 293 361 301 361 q 128 193 203 360 z "},"":{"ha":664,"x_min":46,"x_max":808,"o":"m 340 756 l 658 761 q 796 742 774 761 q 808 722 808 732 q 806 701 808 713 q 765 610 800 661 q 742 593 756 592 q 741 613 736 593 q 746 658 746 633 q 701 731 746 717 q 639 736 682 736 q 547 733 596 736 q 478 706 497 731 q 308 426 435 644 q 319 411 303 411 l 481 408 q 628 428 590 408 q 639 425 640 436 q 614 385 638 403 q 572 368 590 368 l 354 374 q 299 372 321 374 q 272 359 278 371 q 250 317 265 347 q 154 88 154 139 q 293 11 154 14 q 719 185 583 11 q 728 183 725 193 q 726 167 731 172 q 696 127 722 161 q 660 83 669 93 q 631 50 650 72 q 554 0 594 13 q 367 -17 496 -17 q 156 -8 239 -17 q 54 29 74 0 q 47 61 47 40 q 68 124 47 82 q 183 326 108 196 q 302 535 258 457 q 381 668 346 614 q 467 735 415 722 q 234 703 288 725 q 166 655 181 681 q 151 600 151 629 q 174 557 151 571 q 172 549 179 554 q 157 549 165 544 q 131 581 149 554 q 104 657 104 621 q 263 754 104 743 q 333 756 289 756 l 340 756 m 519 928 q 626 838 551 928 q 635 838 626 833 q 694 881 650 851 q 752 916 739 911 q 778 918 765 921 q 621 801 676 850 l 604 801 q 510 899 571 857 q 485 910 492 910 l 485 914 l 519 928 z "},"":{"ha":346,"x_min":22,"x_max":479,"o":"m 117 165 q 96 65 96 111 q 153 18 96 18 q 207 31 174 18 q 319 100 261 49 q 415 200 378 151 q 410 168 425 190 q 282 43 358 97 q 126 -11 206 -11 q 24 64 24 -11 q 88 229 24 124 q 190 335 124 286 q 318 385 257 385 q 379 326 379 385 q 331 234 379 265 q 223 184 283 203 q 117 165 163 165 m 128 193 q 159 193 136 193 q 214 203 182 193 q 317 292 293 226 q 324 328 324 311 q 313 353 324 346 q 293 361 301 361 q 128 193 203 360 m 221 558 q 328 468 253 558 q 336 468 328 464 q 396 512 351 482 q 453 547 440 542 q 479 549 467 551 q 322 432 378 481 l 306 432 q 211 529 272 488 q 186 540 193 540 l 186 544 l 221 558 z "},"":{"ha":800,"x_min":44,"x_max":910,"o":"m 535 383 l 646 379 l 910 379 l 894 363 q 813 331 838 363 q 787 288 797 310 q 772 257 776 267 q 760 228 767 247 q 752 201 754 208 q 742 170 750 193 q 730 129 735 147 q 707 44 725 111 q 679 -56 689 -24 q 649 -144 669 -87 q 608 -236 628 -200 q 369 -457 517 -399 q 246 -483 303 -483 q 135 -459 189 -483 q 58 -387 81 -435 q 44 -331 44 -361 l 44 -286 q 61 -265 44 -265 q 64 -268 64 -265 l 61 -303 q 101 -399 61 -365 q 204 -433 140 -433 q 499 -272 371 -433 q 658 6 596 -151 q 687 82 667 29 q 715 154 707 135 q 550 14 660 72 q 338 -44 440 -44 q 332 -44 335 -44 q 135 15 217 -44 q 53 197 53 75 q 125 442 53 318 q 311 653 197 567 q 626 763 457 763 q 759 735 703 763 q 815 664 815 708 q 790 602 815 644 q 757 540 764 560 q 736 529 754 531 q 731 533 731 531 q 754 621 754 572 q 739 697 754 669 q 636 742 713 742 q 360 628 494 742 q 198 419 261 540 q 135 192 135 297 q 192 34 135 86 q 338 -18 250 -18 q 342 -18 339 -18 q 610 87 499 -18 q 775 353 721 192 l 632 353 q 454 271 454 353 q 461 235 454 249 l 449 226 q 411 296 411 289 q 411 310 411 303 q 428 357 411 342 q 535 383 461 383 m 800 831 q 693 921 768 831 q 685 921 693 925 q 625 877 669 907 q 567 842 581 847 q 542 840 554 838 q 699 957 643 908 l 715 957 q 810 860 749 901 q 835 849 828 849 l 835 844 l 800 831 z "},"":{"ha":368,"x_min":-392,"x_max":521,"o":"m -371 -268 l -374 -303 q -334 -399 -374 -365 q -238 -433 -294 -433 q -137 -415 -182 -433 q -57 -374 -92 -396 q 10 -317 -22 -351 q 65 -256 42 -282 q 117 -181 89 -231 q 160 -107 146 -131 q 201 -22 175 -83 q 235 56 228 39 q 269 140 243 74 q 299 215 296 207 q 169 69 253 140 q 32 -3 85 -3 q 7 28 7 -3 l 7 38 q 72 206 17 115 q 297 379 181 379 l 457 379 q 464 374 464 379 q 451 363 464 363 q 401 326 421 363 q 270 48 364 267 q 139 -237 176 -171 q 39 -368 101 -303 q -201 -486 -72 -486 q -306 -461 -257 -486 q -392 -310 -392 -415 l -392 -286 q -374 -265 -392 -265 q -371 -268 -371 -265 m 335 335 q 300 361 335 361 q 222 321 265 361 q 128 191 179 281 q 76 61 76 101 q 89 44 76 44 q 232 167 129 44 q 335 335 335 290 m 486 449 q 379 539 454 449 q 371 539 379 543 q 311 495 356 525 q 253 460 267 465 q 228 458 240 456 q 385 575 329 526 l 401 575 q 496 478 435 519 q 521 467 514 467 l 521 463 l 486 449 z "},"":{"ha":800,"x_min":44,"x_max":910,"o":"m 535 383 l 646 379 l 910 379 l 894 363 q 813 331 838 363 q 787 288 797 310 q 772 257 776 267 q 760 228 767 247 q 752 201 754 208 q 742 170 750 193 q 730 129 735 147 q 707 44 725 111 q 679 -56 689 -24 q 649 -144 669 -87 q 608 -236 628 -200 q 369 -457 517 -399 q 246 -483 303 -483 q 135 -459 189 -483 q 58 -387 81 -435 q 44 -331 44 -361 l 44 -286 q 61 -265 44 -265 q 64 -268 64 -265 l 61 -303 q 101 -399 61 -365 q 204 -433 140 -433 q 499 -272 371 -433 q 658 6 596 -151 q 687 82 667 29 q 715 154 707 135 q 550 14 660 72 q 338 -44 440 -44 q 332 -44 335 -44 q 135 15 217 -44 q 53 197 53 75 q 125 442 53 318 q 311 653 197 567 q 626 763 457 763 q 759 735 703 763 q 815 664 815 708 q 790 602 815 644 q 757 540 764 560 q 736 529 754 531 q 731 533 731 531 q 754 621 754 572 q 739 697 754 669 q 636 742 713 742 q 360 628 494 742 q 198 419 261 540 q 135 192 135 297 q 192 34 135 86 q 338 -18 250 -18 q 342 -18 339 -18 q 610 87 499 -18 q 775 353 721 192 l 632 353 q 454 271 454 353 q 461 235 454 249 l 449 226 q 411 296 411 289 q 411 310 411 303 q 428 357 411 342 q 535 383 461 383 m 663 835 q 582 879 582 835 q 588 897 582 886 q 599 907 593 907 l 619 907 q 623 869 604 882 q 678 856 642 856 q 792 901 715 856 l 814 901 q 749 856 793 876 q 663 835 704 835 z "},"":{"ha":368,"x_min":-392,"x_max":479,"o":"m -371 -268 l -374 -303 q -334 -399 -374 -365 q -238 -433 -294 -433 q -137 -415 -182 -433 q -57 -374 -92 -396 q 10 -317 -22 -351 q 65 -256 42 -282 q 117 -181 89 -231 q 160 -107 146 -131 q 201 -22 175 -83 q 235 56 228 39 q 269 140 243 74 q 299 215 296 207 q 169 69 253 140 q 32 -3 85 -3 q 7 28 7 -3 l 7 38 q 72 206 17 115 q 297 379 181 379 l 457 379 q 464 374 464 379 q 451 363 464 363 q 401 326 421 363 q 270 48 364 267 q 139 -237 176 -171 q 39 -368 101 -303 q -201 -486 -72 -486 q -306 -461 -257 -486 q -392 -310 -392 -415 l -392 -286 q -374 -265 -392 -265 q -371 -268 -371 -265 m 335 335 q 300 361 335 361 q 222 321 265 361 q 128 191 179 281 q 76 61 76 101 q 89 44 76 44 q 232 167 129 44 q 335 335 335 290 m 328 444 q 247 489 247 444 q 253 506 247 496 q 264 517 258 517 l 285 517 q 288 478 269 492 q 344 465 307 465 q 457 511 381 465 l 479 511 q 414 465 458 486 q 328 444 369 444 z "},"":{"ha":800,"x_min":44,"x_max":910,"o":"m 535 383 l 646 379 l 910 379 l 894 363 q 813 331 838 363 q 787 288 797 310 q 772 257 776 267 q 760 228 767 247 q 752 201 754 208 q 742 170 750 193 q 730 129 735 147 q 707 44 725 111 q 679 -56 689 -24 q 649 -144 669 -87 q 608 -236 628 -200 q 369 -457 517 -399 q 246 -483 303 -483 q 135 -459 189 -483 q 58 -387 81 -435 q 44 -331 44 -361 l 44 -286 q 61 -265 44 -265 q 64 -268 64 -265 l 61 -303 q 101 -399 61 -365 q 204 -433 140 -433 q 499 -272 371 -433 q 658 6 596 -151 q 687 82 667 29 q 715 154 707 135 q 550 14 660 72 q 338 -44 440 -44 q 332 -44 335 -44 q 135 15 217 -44 q 53 197 53 75 q 125 442 53 318 q 311 653 197 567 q 626 763 457 763 q 759 735 703 763 q 815 664 815 708 q 790 602 815 644 q 757 540 764 560 q 736 529 754 531 q 731 533 731 531 q 754 621 754 572 q 739 697 754 669 q 636 742 713 742 q 360 628 494 742 q 198 419 261 540 q 135 192 135 297 q 192 34 135 86 q 338 -18 250 -18 q 342 -18 339 -18 q 610 87 499 -18 q 775 353 721 192 l 632 353 q 454 271 454 353 q 461 235 454 249 l 449 226 q 411 296 411 289 q 411 310 411 303 q 428 357 411 342 q 535 383 461 383 m 688 818 q 636 850 636 818 q 672 876 636 854 l 690 885 q 726 868 718 868 q 741 869 735 868 q 747 864 747 871 q 739 850 746 858 q 688 818 700 818 z "},"":{"ha":368,"x_min":-392,"x_max":464,"o":"m -371 -268 l -374 -303 q -334 -399 -374 -365 q -238 -433 -294 -433 q -137 -415 -182 -433 q -57 -374 -92 -396 q 10 -317 -22 -351 q 65 -256 42 -282 q 117 -181 89 -231 q 160 -107 146 -131 q 201 -22 175 -83 q 235 56 228 39 q 269 140 243 74 q 299 215 296 207 q 169 69 253 140 q 32 -3 85 -3 q 7 28 7 -3 l 7 38 q 72 206 17 115 q 297 379 181 379 l 457 379 q 464 374 464 379 q 451 363 464 363 q 401 326 421 363 q 270 48 364 267 q 139 -237 176 -171 q 39 -368 101 -303 q -201 -486 -72 -486 q -306 -461 -257 -486 q -392 -310 -392 -415 l -392 -286 q -374 -265 -392 -265 q -371 -268 -371 -265 m 335 335 q 300 361 335 361 q 222 321 265 361 q 128 191 179 281 q 76 61 76 101 q 89 44 76 44 q 232 167 129 44 q 335 335 335 290 m 385 451 q 333 483 333 451 q 369 510 333 488 l 388 518 q 424 501 415 501 q 438 503 432 501 q 444 497 444 504 q 436 483 443 492 q 385 451 397 451 z "},"":{"ha":800,"x_min":44,"x_max":910,"o":"m 535 383 l 646 379 l 910 379 l 894 363 q 813 331 838 363 q 787 288 797 310 q 772 257 776 267 q 760 228 767 247 q 752 201 754 208 q 742 170 750 193 q 730 129 735 147 q 707 44 725 111 q 679 -56 689 -24 q 649 -144 669 -87 q 608 -236 628 -200 q 369 -457 517 -399 q 246 -483 303 -483 q 135 -459 189 -483 q 58 -387 81 -435 q 44 -331 44 -361 l 44 -286 q 61 -265 44 -265 q 64 -268 64 -265 l 61 -303 q 101 -399 61 -365 q 204 -433 140 -433 q 499 -272 371 -433 q 658 6 596 -151 q 687 82 667 29 q 715 154 707 135 q 550 14 660 72 q 338 -44 440 -44 q 332 -44 335 -44 q 135 15 217 -44 q 53 197 53 75 q 125 442 53 318 q 311 653 197 567 q 626 763 457 763 q 759 735 703 763 q 815 664 815 708 q 790 602 815 644 q 757 540 764 560 q 736 529 754 531 q 731 533 731 531 q 754 621 754 572 q 739 697 754 669 q 636 742 713 742 q 360 628 494 742 q 198 419 261 540 q 135 192 135 297 q 192 34 135 86 q 338 -18 250 -18 q 342 -18 339 -18 q 610 87 499 -18 q 775 353 721 192 l 632 353 q 454 271 454 353 q 461 235 454 249 l 449 226 q 411 296 411 289 q 411 310 411 303 q 428 357 411 342 q 535 383 461 383 m 335 -156 q 332 -174 335 -164 q 219 -317 315 -261 q 231 -294 222 -301 q 285 -208 275 -254 q 280 -182 289 -194 q 256 -167 271 -169 l 260 -153 q 289 -142 278 -153 q 310 -124 307 -124 q 335 -156 335 -128 z "},"":{"ha":368,"x_min":-392,"x_max":471,"o":"m -371 -268 l -374 -303 q -334 -399 -374 -365 q -238 -433 -294 -433 q -137 -415 -182 -433 q -57 -374 -92 -396 q 10 -317 -22 -351 q 65 -256 42 -282 q 117 -181 89 -231 q 160 -107 146 -131 q 201 -22 175 -83 q 235 56 228 39 q 269 140 243 74 q 299 215 296 207 q 169 69 253 140 q 32 -3 85 -3 q 7 28 7 -3 l 7 38 q 72 206 17 115 q 297 379 181 379 l 457 379 q 464 374 464 379 q 451 363 464 363 q 401 326 421 363 q 270 48 364 267 q 139 -237 176 -171 q 39 -368 101 -303 q -201 -486 -72 -486 q -306 -461 -257 -486 q -392 -310 -392 -415 l -392 -286 q -374 -265 -392 -265 q -371 -268 -371 -265 m 335 335 q 300 361 335 361 q 222 321 265 361 q 128 191 179 281 q 76 61 76 101 q 89 44 76 44 q 232 167 129 44 q 335 335 335 290 m 335 482 q 338 504 335 492 q 451 661 358 594 l 471 672 q 457 646 467 654 q 393 544 406 601 q 400 513 390 528 q 428 496 410 499 l 422 481 q 388 463 411 479 q 364 446 365 446 q 335 482 335 450 z "},"":{"ha":1069,"x_min":7,"x_max":1286,"o":"m 1285 789 q 1265 782 1285 782 q 1239 781 1246 782 q 1189 747 1215 776 q 998 444 1129 688 q 846 114 867 200 q 840 71 840 90 q 893 14 840 14 q 979 40 929 14 q 1135 197 1044 78 q 1144 194 1144 210 q 1140 178 1144 185 q 971 10 1056 56 q 871 -14 926 -14 q 783 31 815 -14 q 764 87 764 60 q 781 158 764 114 q 878 361 797 203 q 814 331 844 331 q 783 333 813 331 q 572 336 754 336 l 506 336 q 339 57 397 119 q 158 -28 258 -28 q 75 -3 114 -28 q 7 150 7 43 l 7 172 q 19 194 7 194 q 22 192 22 194 l 21 158 q 52 60 21 94 q 135 26 83 26 q 314 125 222 26 q 442 335 360 175 q 260 322 321 332 q 254 331 247 319 q 335 383 279 365 l 464 379 q 576 600 488 424 q 640 686 599 646 q 724 735 681 726 q 650 733 700 733 q 569 731 600 732 q 329 653 365 721 q 318 615 318 629 q 338 557 318 572 q 336 549 343 553 q 321 549 329 544 q 294 581 313 554 q 267 653 267 622 q 282 706 267 683 q 344 739 297 729 q 500 756 417 756 q 634 756 503 756 q 789 760 765 756 q 815 759 813 764 q 812 748 817 754 q 803 742 807 742 q 654 618 719 733 q 526 376 606 531 l 590 374 l 794 374 q 893 390 856 374 q 1096 742 1040 671 q 1144 764 1104 744 q 1263 801 1222 801 q 1285 792 1279 801 q 1285 789 1285 790 m 1089 856 q 982 946 1057 856 q 974 946 982 950 q 914 902 958 932 q 856 867 869 872 q 831 865 843 863 q 988 982 932 933 l 1004 982 q 1099 885 1038 926 q 1124 874 1117 874 l 1124 869 l 1089 856 z "},"":{"ha":408,"x_min":-8,"x_max":817,"o":"m 383 390 q 411 368 411 390 q 393 317 411 350 q 316 176 363 268 q 269 63 269 85 q 278 37 269 42 q 297 35 286 32 q 336 53 321 40 q 471 192 394 97 l 472 185 q 452 141 471 165 q 399 78 433 117 q 253 -8 324 -8 q 199 28 199 -8 q 203 55 199 42 q 267 191 208 68 q 326 321 326 314 q 321 328 326 328 q 257 288 306 328 q 138 156 194 229 q 58 17 82 83 q 22 -2 53 1 q -8 6 -8 -6 q -2 23 -8 8 q 53 158 4 38 q 136 350 103 279 q 403 753 261 628 q 650 854 518 854 q 732 794 726 854 q 733 775 733 788 q 728 743 733 763 q 721 738 726 738 l 714 738 q 714 742 713 738 q 715 751 715 746 q 633 806 715 806 q 403 714 508 806 q 176 340 275 601 q 138 235 163 303 q 103 142 113 167 q 383 390 290 390 m 782 886 q 675 976 750 886 q 667 976 675 981 q 607 933 651 963 q 549 898 563 903 q 524 896 536 893 q 681 1013 625 964 l 697 1013 q 792 915 731 957 q 817 904 810 904 l 817 900 l 782 886 z "},"":{"ha":1069,"x_min":7,"x_max":1286,"o":"m 1285 789 q 1265 782 1285 782 q 1239 781 1246 782 q 1128 665 1193 771 q 1203 654 1178 664 q 1176 646 1199 646 l 1115 644 q 949 349 1036 521 q 846 114 861 178 q 840 71 840 90 q 893 14 840 14 q 979 40 929 14 q 1135 197 1044 78 q 1144 194 1144 210 q 1140 178 1144 185 q 971 10 1056 56 q 871 -14 926 -14 q 783 31 815 -14 q 764 87 764 60 q 781 158 764 114 q 878 361 797 203 q 814 331 844 331 q 783 333 813 331 q 572 336 754 336 l 506 336 q 339 57 397 119 q 158 -28 258 -28 q 75 -3 114 -28 q 7 150 7 43 l 7 172 q 19 194 7 194 q 22 192 22 194 l 21 158 q 52 60 21 94 q 135 26 83 26 q 314 125 222 26 q 442 335 360 175 q 260 322 321 332 q 254 331 247 319 q 335 383 279 365 l 464 379 q 538 522 488 424 q 592 628 588 621 l 578 628 q 541 642 561 628 q 524 663 521 656 l 528 667 q 626 672 588 671 q 724 735 674 725 q 650 733 700 733 q 569 731 600 732 q 329 653 365 721 q 318 615 318 629 q 338 557 318 572 q 336 549 343 553 q 321 549 329 544 q 294 581 313 554 q 267 653 267 622 q 282 706 267 683 q 344 739 297 729 q 500 756 417 756 q 634 756 503 756 q 789 760 765 756 q 815 759 813 764 q 812 748 817 754 q 803 742 807 742 q 692 674 743 736 q 851 675 754 675 q 1049 669 947 675 q 1096 742 1075 717 q 1144 764 1104 744 q 1263 801 1222 801 q 1285 792 1279 801 q 1285 789 1285 790 m 526 376 l 590 374 l 794 374 q 893 390 856 374 q 1032 643 963 525 q 856 635 983 642 q 660 628 728 629 q 526 376 618 554 z "},"":{"ha":408,"x_min":-8,"x_max":733,"o":"m 715 751 q 633 806 715 806 q 324 626 457 806 q 406 613 406 619 q 385 606 403 606 q 306 600 367 606 q 176 340 232 493 q 138 235 163 303 q 103 142 113 167 q 383 390 290 390 q 411 368 411 390 q 393 317 411 350 q 316 176 363 268 q 269 63 269 85 q 278 37 269 42 q 297 35 286 32 q 336 53 321 40 q 471 192 394 97 l 472 185 q 452 141 471 165 q 399 78 433 117 q 253 -8 324 -8 q 199 28 199 -8 q 203 55 199 42 q 267 191 208 68 q 326 321 326 314 q 321 328 326 328 q 257 288 306 328 q 138 156 194 229 q 58 17 82 83 q 22 -2 53 1 q -8 6 -8 -6 q -2 23 -8 8 q 53 158 4 38 q 153 390 103 279 q 269 597 204 500 q 182 593 225 593 q 169 603 176 593 q 164 621 160 614 q 279 628 190 628 l 292 628 q 650 854 454 854 q 732 794 726 854 q 733 775 733 788 q 728 743 733 763 q 721 738 726 738 l 714 738 q 714 742 713 738 q 715 751 715 746 z "},"":{"ha":507,"x_min":14,"x_max":893,"o":"m 529 758 l 671 753 l 893 754 l 875 733 q 789 726 832 733 q 703 685 746 718 q 632 604 661 653 l 619 583 q 574 474 610 561 q 513 329 538 386 q 443 197 488 272 q 360 80 399 122 q 267 12 321 38 q 167 -14 214 -14 q 83 11 121 -14 q 14 163 14 58 q 19 182 14 181 q 29 171 29 183 q 60 73 29 107 q 143 39 92 39 q 367 192 253 39 q 404 240 389 219 q 441 297 419 260 q 471 349 463 335 q 502 409 479 363 q 528 463 525 456 q 558 525 532 469 q 585 583 583 581 q 696 721 629 676 l 654 721 q 438 621 438 721 q 454 561 438 597 l 440 550 q 385 653 386 644 q 385 667 385 661 q 406 726 385 707 q 529 758 442 758 m 863 904 q 835 855 854 875 q 793 835 817 835 q 726 852 769 835 q 655 869 682 869 q 617 844 628 869 l 600 844 q 628 885 607 867 q 671 904 649 904 q 728 890 693 904 q 799 874 771 874 q 849 904 826 874 l 863 904 z "},"":{"ha":267,"x_min":43,"x_max":419,"o":"m 258 82 q 185 24 232 53 q 101 -4 139 -4 q 63 22 63 -4 q 76 78 63 47 q 188 314 86 100 q 54 156 114 235 q 44 158 44 142 q 51 178 44 169 q 203 376 150 300 q 286 399 272 386 q 301 400 300 411 q 295 387 301 394 q 182 178 289 379 q 135 56 135 89 q 154 36 135 36 q 310 169 197 36 l 340 204 q 258 82 357 188 m 419 557 q 392 508 411 528 q 350 488 374 488 q 283 505 326 488 q 212 522 239 522 q 174 497 185 522 l 157 497 q 185 538 164 519 q 228 557 206 557 q 285 543 250 557 q 356 526 328 526 q 406 557 383 526 l 419 557 z "},"":{"ha":507,"x_min":14,"x_max":893,"o":"m 529 758 l 671 753 l 893 754 l 875 733 q 789 726 832 733 q 703 685 746 718 q 632 604 661 653 l 619 583 q 574 474 610 561 q 513 329 538 386 q 443 197 488 272 q 360 80 399 122 q 267 12 321 38 q 167 -14 214 -14 q 83 11 121 -14 q 14 163 14 58 q 19 182 14 181 q 29 171 29 183 q 60 73 29 107 q 143 39 92 39 q 367 192 253 39 q 404 240 389 219 q 441 297 419 260 q 471 349 463 335 q 502 409 479 363 q 528 463 525 456 q 558 525 532 469 q 585 583 583 581 q 696 721 629 676 l 654 721 q 438 621 438 721 q 454 561 438 597 l 440 550 q 385 653 386 644 q 385 667 385 661 q 406 726 385 707 q 529 758 442 758 m 838 840 l 624 828 q 611 838 618 828 q 606 856 601 849 q 722 863 632 863 q 846 849 821 863 q 846 844 847 849 q 838 840 844 840 z "},"":{"ha":267,"x_min":43,"x_max":414,"o":"m 258 82 q 185 24 232 53 q 101 -4 139 -4 q 63 22 63 -4 q 76 78 63 47 q 188 314 86 100 q 54 156 114 235 q 44 158 44 142 q 51 178 44 169 q 203 376 150 300 q 286 399 272 386 q 301 400 300 411 q 295 387 301 394 q 182 178 289 379 q 135 56 135 89 q 154 36 135 36 q 310 169 197 36 l 340 204 q 258 82 357 188 m 406 532 l 192 519 q 178 529 186 519 q 174 547 169 540 q 292 554 200 554 q 414 540 389 554 q 414 536 415 540 q 406 532 413 532 z "},"":{"ha":507,"x_min":14,"x_max":893,"o":"m 529 758 l 671 753 l 893 754 l 875 733 q 789 726 832 733 q 703 685 746 718 q 632 604 661 653 l 619 583 q 574 474 610 561 q 513 329 538 386 q 443 197 488 272 q 364 83 399 122 q 201 -10 292 6 q 161 -78 179 -32 q 143 -158 143 -124 q 167 -193 143 -193 q 210 -175 188 -193 q 256 -136 233 -157 q 285 -110 278 -115 l 285 -119 l 278 -137 q 147 -236 233 -200 q 111 -244 126 -244 q 78 -203 78 -244 q 108 -103 78 -161 q 169 -14 138 -44 l 167 -14 q 83 11 121 -14 q 14 163 14 58 q 19 182 14 181 q 29 171 29 183 q 60 73 29 107 q 143 39 92 39 q 367 192 253 39 q 404 240 389 219 q 441 297 419 260 q 471 349 463 335 q 502 409 479 363 q 528 463 525 456 q 558 525 532 469 q 585 583 583 581 q 696 721 629 676 l 654 721 q 438 621 438 721 q 454 561 438 597 l 440 550 q 385 653 386 644 q 385 667 385 661 q 406 726 385 707 q 529 758 442 758 z "},"":{"ha":267,"x_min":11,"x_max":386,"o":"m 107 -3 l 94 -4 q 63 22 63 -4 q 76 78 63 47 q 188 314 86 100 q 54 156 114 235 q 44 156 46 143 q 51 178 43 169 q 203 376 150 300 q 286 399 272 386 q 301 400 300 411 q 295 387 301 394 q 182 178 289 379 q 135 56 135 89 q 154 36 135 36 q 310 169 197 36 l 340 204 q 272 94 356 189 q 214 42 250 71 q 143 3 178 14 q 98 -62 119 -12 q 76 -149 76 -112 q 100 -186 76 -186 q 144 -168 121 -186 q 189 -129 167 -150 q 218 -103 211 -108 l 218 -112 l 211 -131 q 81 -229 167 -193 q 44 -237 60 -237 q 11 -196 11 -237 q 43 -94 11 -154 q 107 -3 75 -33 m 336 531 q 303 567 303 531 q 322 596 303 583 q 355 608 340 608 q 378 597 369 608 q 386 578 386 585 q 368 542 386 553 q 336 531 350 531 z "},"":{"ha":507,"x_min":14,"x_max":893,"o":"m 529 758 l 671 753 l 893 754 l 875 733 q 789 726 832 733 q 703 685 746 718 q 632 604 661 653 l 619 583 q 574 474 610 561 q 513 329 538 386 q 443 197 488 272 q 360 80 399 122 q 267 12 321 38 q 167 -14 214 -14 q 83 11 121 -14 q 14 163 14 58 q 19 182 14 181 q 29 171 29 183 q 60 73 29 107 q 143 39 92 39 q 367 192 253 39 q 404 240 389 219 q 441 297 419 260 q 471 349 463 335 q 502 409 479 363 q 528 463 525 456 q 558 525 532 469 q 585 583 583 581 q 696 721 629 676 l 654 721 q 438 621 438 721 q 454 561 438 597 l 440 550 q 385 653 386 644 q 385 667 385 661 q 406 726 385 707 q 529 758 442 758 m 719 825 q 668 856 692 825 q 675 863 668 858 q 688 872 682 868 q 699 880 693 876 q 708 886 704 883 q 722 892 719 892 q 758 875 750 875 q 773 876 767 875 q 779 871 779 878 q 771 857 778 865 q 719 825 732 825 z "},"":{"ha":267,"x_min":43,"x_max":340,"o":"m 258 82 q 185 24 232 53 q 101 -4 139 -4 q 63 22 63 -4 q 76 78 63 47 q 188 314 86 100 q 54 156 114 235 q 44 158 44 142 q 51 178 44 169 q 203 376 150 300 q 283 396 272 386 q 297 406 294 406 q 301 400 300 406 q 295 387 301 394 q 182 178 289 379 q 135 56 135 89 q 154 36 135 36 q 310 169 197 36 l 340 204 q 258 82 357 188 z "},"":{"ha":282,"x_min":-308,"x_max":606,"o":"m 490 733 q 418 728 429 728 q 158 660 201 722 q 146 622 146 640 q 190 540 146 561 q 190 531 200 536 q 174 528 179 526 q 131 567 156 538 q 92 644 92 611 q 113 703 92 678 q 200 739 135 728 q 419 757 297 757 q 425 757 424 757 l 575 757 q 569 744 586 758 l 557 736 q 401 579 476 732 q 287 327 356 489 q 212 151 218 165 q 188 100 206 138 q 162 46 171 63 q 136 -1 153 29 q 106 -50 119 -32 q 29 -145 61 -111 q -56 -206 -3 -179 q -156 -232 -110 -232 q -239 -206 -201 -232 q -308 -54 -308 -160 q -301 -34 -308 -33 q -294 -46 -294 -35 q -262 -144 -294 -110 q -179 -178 -231 -178 q -1 -79 -93 -178 q 214 271 117 50 q 267 399 219 283 q 394 674 364 640 q 490 733 424 707 m 571 856 q 464 946 539 856 q 456 946 464 950 q 396 902 440 932 q 338 867 351 872 q 313 865 325 863 q 469 982 414 933 l 486 982 q 581 885 519 926 q 606 874 599 874 l 606 869 q 571 856 606 869 z "},"":{"ha":188,"x_min":-582,"x_max":385,"o":"m -561 -268 l -565 -303 q -526 -399 -565 -365 q -430 -433 -486 -433 q -321 -412 -374 -433 q -119 -250 -203 -361 q 125 285 18 -62 q 140 331 138 328 q 192 365 158 350 q 247 382 225 381 q 272 374 268 383 q 260 363 272 363 q 213 336 231 363 q 25 -79 179 289 q -51 -236 -14 -169 q -151 -368 -89 -303 q -276 -460 -214 -433 q -393 -486 -337 -486 q -497 -461 -449 -486 q -582 -310 -582 -417 l -582 -286 q -565 -265 -582 -265 q -561 -268 -561 -265 m 350 475 q 243 565 318 475 q 235 565 243 569 q 175 522 219 551 q 117 487 131 492 q 92 485 104 482 q 249 601 193 553 l 265 601 q 360 504 299 546 q 385 493 378 493 l 385 489 l 350 475 z "},"":{"ha":778,"x_min":-3,"x_max":1104,"o":"m 865 723 q 901 738 865 723 q 979 753 936 753 q 1047 743 1022 753 q 1088 721 1072 733 q 1103 697 1103 708 q 1099 686 1103 686 q 1077 703 1094 686 q 1025 719 1060 719 q 901 683 990 719 q 653 565 753 619 q 371 378 553 510 q 428 258 388 332 q 515 128 468 185 q 595 57 561 72 q 644 42 629 42 q 677 44 660 42 q 728 73 694 47 q 785 124 763 99 q 836 188 807 149 q 851 192 847 203 q 844 172 851 183 q 720 29 772 72 q 615 -14 668 -14 q 469 79 540 -14 q 342 299 401 168 q 317 353 318 350 q 642 590 436 463 q 865 723 794 693 m 594 736 q 468 624 532 736 q 164 64 313 361 q 153 39 161 58 q 139 11 146 19 q 121 5 132 3 q 97 7 110 7 q 65 3 85 7 q 14 -28 46 0 q 3 -30 8 -33 q -3 -25 -3 -26 q -1 -22 -3 -24 q 107 110 58 26 q 379 590 219 300 q 542 733 446 707 q 350 714 421 731 q 244 607 244 690 q 264 557 244 571 q 263 549 269 553 q 247 549 256 544 q 221 581 239 554 q 193 653 193 622 q 208 706 193 683 q 271 739 224 729 q 426 756 343 756 q 498 756 429 756 q 586 759 567 756 q 608 763 606 763 q 624 747 621 763 q 611 733 624 733 q 594 736 603 736 m 332 -60 q 329 -78 332 -68 q 217 -221 313 -165 q 228 -199 219 -206 q 282 -112 272 -158 q 277 -86 286 -99 q 253 -71 268 -74 l 257 -57 q 286 -44 275 -57 q 307 -28 304 -28 q 332 -60 332 -32 z "},"":{"ha":450,"x_min":11,"x_max":671,"o":"m 406 390 q 436 367 436 390 q 425 329 436 349 q 410 303 414 310 q 405 294 407 297 q 399 294 403 292 q 394 299 394 296 q 351 325 394 325 q 242 256 308 325 q 299 53 271 96 q 339 35 310 35 q 522 204 392 36 q 526 188 528 197 q 506 157 524 179 q 378 24 438 71 q 303 -7 340 -7 q 243 17 265 -7 q 188 194 219 49 q 79 17 103 88 q 42 -2 72 0 q 11 6 11 -4 q 17 20 11 8 q 53 102 22 32 q 95 198 83 172 q 133 283 107 224 q 178 378 160 342 q 276 563 249 513 q 433 765 342 681 q 614 850 525 850 q 653 838 636 850 q 671 804 671 826 l 671 764 q 665 758 671 758 q 658 761 658 758 q 606 799 658 799 q 503 778 553 799 q 417 719 453 758 q 340 618 381 681 q 124 142 249 476 q 183 217 156 185 q 192 256 181 240 q 217 284 204 271 q 233 303 229 297 l 238 279 q 406 390 346 390 m 185 -56 q 182 -74 185 -64 q 69 -217 165 -161 q 81 -194 72 -201 q 135 -108 125 -154 q 130 -82 139 -94 q 106 -67 121 -69 l 110 -53 q 139 -42 128 -53 q 160 -24 157 -24 q 185 -56 185 -28 z "},"":{"ha":450,"x_min":11,"x_max":526,"o":"m 406 390 q 436 367 436 390 q 425 329 436 349 q 410 303 414 310 q 405 294 407 297 q 399 294 403 292 q 394 299 394 296 q 351 325 394 325 q 242 256 308 325 q 299 53 271 96 q 339 35 310 35 q 522 204 392 36 q 526 196 526 200 q 506 157 526 182 q 378 24 438 71 q 303 -7 340 -7 q 243 17 265 -7 q 188 194 219 49 q 79 17 103 88 q 42 -2 72 0 q 11 6 11 -4 q 56 110 11 8 q 140 309 101 211 q 257 499 178 407 q 424 593 336 592 q 467 581 446 593 q 493 547 488 569 l 503 507 q 496 501 504 501 q 492 504 492 501 q 413 542 481 542 q 292 483 342 542 q 205 356 231 414 q 167 267 179 297 q 142 194 156 236 q 124 142 128 151 q 183 217 156 185 q 192 256 181 240 q 217 284 204 271 q 233 303 229 297 l 238 279 q 406 390 346 390 z "},"":{"ha":760,"x_min":3,"x_max":832,"o":"m 11 -10 q 7 -11 10 -11 q 4 4 4 -11 q 18 26 4 19 l 28 29 q 131 78 82 32 q 200 174 179 124 l 328 493 q 426 672 371 603 q 611 758 493 758 q 714 737 674 758 q 754 681 754 715 q 751 660 754 672 q 726 617 749 649 q 698 567 704 585 q 683 553 692 549 q 679 565 674 557 q 704 642 704 601 q 687 713 704 682 q 629 743 669 743 q 490 650 540 743 l 233 176 q 118 46 174 68 q 409 46 304 46 q 528 47 514 46 q 560 49 542 47 q 592 51 579 50 q 617 56 604 53 q 660 111 660 65 q 622 164 660 146 q 619 174 613 168 q 669 140 633 183 q 712 79 706 96 q 718 46 718 63 q 697 12 718 29 q 601 -6 676 -6 q 338 8 526 -6 q 100 22 122 22 q 11 -10 46 22 m 828 1007 q 832 988 832 1007 q 826 964 832 969 q 740 905 819 951 q 644 856 661 858 q 646 865 643 856 q 756 955 696 903 q 828 1007 815 1007 z "},"":{"ha":297,"x_min":43,"x_max":724,"o":"m 546 851 q 581 807 581 851 q 460 569 581 733 q 174 261 357 426 q 119 118 138 194 q 115 89 115 103 q 167 35 115 35 q 185 36 175 35 q 371 206 243 47 q 374 194 374 203 q 338 140 374 185 q 283 76 301 94 q 140 -3 204 -3 q 68 67 68 -3 q 113 219 68 122 l 54 156 q 44 158 44 142 q 55 183 44 169 q 97 233 65 196 q 144 289 129 271 q 224 446 164 325 q 413 785 350 701 q 473 821 428 790 q 546 851 518 851 m 436 583 q 535 810 535 744 q 522 826 535 826 q 342 585 476 826 q 197 317 228 379 q 436 583 335 431 m 719 1111 q 724 1092 724 1111 q 718 1068 724 1074 q 632 1009 711 1056 q 536 960 553 963 q 538 969 535 960 q 647 1059 588 1007 q 719 1111 707 1111 z "},"":{"ha":760,"x_min":3,"x_max":754,"o":"m 679 565 q 701 619 699 594 q 704 663 704 643 q 687 713 704 682 q 629 743 669 743 q 490 650 540 743 l 233 176 q 118 46 174 68 q 409 46 304 46 q 528 47 514 46 q 560 49 542 47 q 592 51 579 50 q 617 56 604 53 q 660 111 660 65 q 622 164 660 146 q 619 174 613 168 q 669 140 633 183 q 712 79 706 96 q 718 46 718 63 q 697 12 718 29 q 601 -6 676 -6 q 338 8 526 -6 q 100 22 122 22 q 11 -10 46 22 q 4 1 4 -17 q 18 26 4 19 l 28 29 q 131 78 82 32 q 200 174 179 124 l 328 493 q 426 672 371 603 q 611 758 493 758 q 714 737 674 758 q 754 681 754 715 q 751 660 754 672 q 726 617 749 649 q 698 567 704 585 q 683 553 692 549 q 679 565 674 557 m 379 -72 q 376 -90 379 -81 q 264 -233 360 -178 q 275 -211 267 -218 q 329 -125 319 -171 q 324 -99 333 -111 q 300 -83 315 -86 l 304 -69 q 333 -58 322 -69 q 354 -40 351 -40 q 379 -72 379 -44 z "},"":{"ha":297,"x_min":6,"x_max":582,"o":"m 546 851 q 581 807 581 851 q 460 569 581 733 q 174 261 357 426 q 119 118 138 194 q 115 89 115 103 q 167 35 115 35 q 185 36 175 35 q 371 206 243 47 q 374 194 374 203 q 338 140 374 185 q 283 76 301 94 q 140 -3 204 -3 q 68 67 68 -3 q 113 219 68 122 l 54 156 q 44 156 46 143 q 54 183 43 169 q 97 233 65 196 q 144 289 129 271 q 224 446 164 325 q 413 785 350 701 q 473 821 428 790 q 546 851 518 851 m 436 583 q 535 810 535 744 q 522 826 535 826 q 342 585 476 826 q 197 317 228 379 q 436 583 335 431 m 121 -75 q 118 -93 121 -83 q 6 -236 101 -181 q 17 -214 8 -221 q 71 -128 61 -174 q 66 -101 75 -114 q 42 -86 57 -89 l 46 -72 q 75 -61 64 -72 q 96 -43 93 -43 q 121 -75 121 -47 z "},"":{"ha":853,"x_min":3,"x_max":865,"o":"m 11 -10 q 7 -11 10 -11 q 4 4 4 -11 q 18 26 4 19 l 28 29 q 131 78 82 32 q 200 174 179 124 l 328 493 q 426 672 371 603 q 611 758 493 758 q 714 737 674 758 q 754 681 754 715 q 751 660 754 672 q 726 617 749 649 q 698 567 704 585 q 683 553 692 549 q 679 565 674 557 q 704 642 704 601 q 687 713 704 682 q 629 743 669 743 q 490 650 540 743 l 233 176 q 118 46 174 68 q 409 46 304 46 q 528 47 514 46 q 560 49 542 47 q 592 51 579 50 q 617 56 604 53 q 660 111 660 65 q 622 164 660 146 q 619 174 613 168 q 669 140 633 183 q 712 79 706 96 q 718 46 718 63 q 697 12 718 29 q 601 -6 676 -6 q 338 8 526 -6 q 100 22 122 22 q 11 -10 46 22 m 864 679 q 861 657 864 669 q 749 500 840 567 l 728 489 q 742 515 732 507 q 806 617 793 560 q 799 649 808 635 q 771 665 789 663 l 776 681 q 813 700 792 685 q 835 715 833 715 q 864 679 864 711 z "},"":{"ha":639,"x_min":43,"x_max":700,"o":"m 546 851 q 581 807 581 851 q 460 569 581 733 q 174 261 357 426 q 119 118 138 194 q 115 89 115 103 q 167 35 115 35 q 185 36 175 35 q 371 206 243 47 q 374 194 374 203 q 338 140 374 185 q 283 76 301 94 q 140 -3 204 -3 q 68 67 68 -3 q 113 219 68 122 l 54 156 q 44 158 44 142 q 55 183 44 169 q 97 233 65 196 q 144 289 129 271 q 224 446 164 325 q 413 785 350 701 q 473 821 428 790 q 546 851 518 851 m 436 583 q 535 810 535 744 q 522 826 535 826 q 342 585 476 826 q 197 317 228 379 q 436 583 335 431 m 699 788 q 696 765 699 778 q 583 608 675 675 l 563 597 q 576 624 567 615 q 640 725 628 668 q 633 757 643 743 q 606 774 624 771 l 611 789 q 649 808 625 793 q 669 824 668 824 q 699 788 699 819 z "},"":{"ha":760,"x_min":3,"x_max":754,"o":"m 11 -10 q 7 -11 10 -11 q 4 4 4 -11 q 18 26 4 19 l 28 29 q 131 78 82 32 q 200 174 179 124 l 231 251 l 101 208 q 125 254 107 249 q 244 285 142 257 l 328 493 q 426 672 371 603 q 611 758 493 758 q 714 737 674 758 q 754 681 754 715 q 751 660 754 672 q 726 617 749 649 q 698 567 704 585 q 683 553 692 549 q 679 565 674 557 q 704 642 704 601 q 687 713 704 682 q 629 743 669 743 q 490 650 540 743 l 301 301 q 432 346 336 313 q 426 324 439 347 q 408 299 414 301 l 282 267 l 233 176 q 118 46 174 68 q 409 46 304 46 q 528 47 514 46 q 560 49 542 47 q 592 51 579 50 q 617 56 604 53 q 660 111 660 65 q 622 164 660 146 q 619 174 613 168 q 669 140 633 183 q 712 79 706 96 q 718 46 718 63 q 697 12 718 29 q 601 -6 676 -6 q 338 8 526 -6 q 100 22 122 22 q 11 -10 46 22 z "},"":{"ha":297,"x_min":43,"x_max":582,"o":"m 546 851 q 581 801 581 850 q 504 625 581 756 q 393 468 464 554 q 269 311 331 389 l 369 315 q 365 306 372 315 q 333 278 346 278 l 244 282 q 132 160 189 213 q 115 94 115 117 q 165 35 115 35 q 185 36 174 35 q 371 206 243 47 q 374 194 374 203 q 338 140 374 185 q 283 76 301 94 q 140 -3 204 -3 q 68 67 68 -3 q 113 219 68 122 l 54 156 q 44 158 44 142 q 54 182 44 169 q 95 230 64 194 q 140 283 126 265 l 44 281 q 60 300 44 283 q 82 317 75 317 q 157 313 100 313 q 413 785 358 715 q 473 821 428 790 q 546 851 518 851 m 483 652 q 492 668 483 652 q 514 714 501 685 q 533 766 526 743 q 539 803 539 789 q 527 817 539 817 q 488 790 515 817 q 204 311 415 717 l 246 311 q 295 376 279 353 q 340 438 311 399 q 379 490 369 476 q 415 540 389 504 q 453 598 440 576 q 483 652 465 619 m 146 201 q 222 282 185 239 q 189 283 210 283 l 146 201 z "},"":{"ha":1001,"x_min":8,"x_max":1308,"o":"m 1308 814 l 1307 764 l 1294 761 q 1282 785 1296 776 q 1254 794 1268 794 q 1097 606 1189 794 q 964 306 1019 449 q 899 140 908 163 q 889 101 889 118 q 894 58 889 82 q 886 24 900 35 q 859 8 872 14 q 829 -14 846 3 q 807 -39 813 -31 q 801 -43 804 -43 q 792 -35 793 -43 q 819 22 807 -14 q 689 493 790 181 q 643 639 656 599 q 608 567 629 629 q 481 261 558 418 q 364 76 429 156 q 272 13 333 39 q 163 -14 210 -14 q 78 11 117 -14 q 8 163 8 56 q 15 183 8 183 q 22 171 22 182 q 58 63 22 106 q 144 19 93 19 q 329 108 244 19 q 442 267 403 188 q 494 381 481 347 q 579 583 521 436 q 639 676 601 638 q 725 724 676 715 l 649 724 q 383 660 428 724 q 371 623 371 640 q 375 592 371 606 q 417 540 388 554 q 415 531 425 536 q 400 528 406 526 q 356 567 382 538 q 318 644 318 611 q 340 703 318 678 q 428 739 361 728 q 644 757 524 757 q 650 757 649 757 l 818 757 q 813 736 831 758 q 790 715 794 714 q 777 715 786 715 q 743 710 768 715 q 707 696 718 704 q 763 428 715 594 q 868 119 811 263 q 950 340 885 161 q 1072 646 1015 519 q 1178 818 1129 772 q 1262 851 1214 851 q 1308 814 1310 851 m 1143 1007 q 1147 988 1147 1007 q 1142 964 1147 969 q 1056 905 1135 951 q 960 856 976 858 q 961 865 958 856 q 1071 955 1011 903 q 1143 1007 1131 1007 z "},"":{"ha":458,"x_min":43,"x_max":557,"o":"m 468 360 q 445 308 468 342 q 376 183 422 275 q 331 66 331 90 q 351 42 331 42 q 403 67 371 42 q 462 122 436 93 q 531 204 488 151 q 533 192 533 200 q 515 160 533 183 q 396 26 444 64 q 308 -11 347 -11 q 264 33 264 -11 q 309 166 264 76 q 382 317 354 256 q 363 328 396 346 q 117 -3 204 229 q 84 -12 108 -3 q 56 -21 60 -21 q 56 -8 50 -21 q 80 47 63 6 q 122 153 97 89 q 188 314 171 275 q 54 156 114 235 q 44 158 44 142 q 51 178 44 169 q 203 376 150 300 q 286 399 272 386 q 301 400 300 411 q 292 384 301 394 q 183 188 283 374 q 339 342 250 275 q 432 383 396 383 q 468 360 468 383 m 553 617 q 557 598 557 617 q 551 574 557 579 q 465 515 544 561 q 369 465 386 468 q 371 475 368 465 q 481 565 421 513 q 553 617 540 617 z "},"":{"ha":1001,"x_min":8,"x_max":1308,"o":"m 1308 814 l 1307 764 l 1294 761 q 1282 785 1296 776 q 1254 794 1268 794 q 1097 606 1189 794 q 964 306 1019 449 q 899 140 908 163 q 889 101 889 118 q 894 58 889 82 q 886 24 900 35 q 859 8 872 14 q 829 -14 846 3 q 807 -38 813 -31 q 793 -37 801 -46 l 792 -35 q 819 22 807 -14 q 689 493 790 181 q 643 639 656 599 q 608 567 629 629 q 481 261 558 418 q 364 76 429 156 q 272 13 333 39 q 163 -14 210 -14 q 78 11 117 -14 q 8 163 8 56 q 15 183 8 183 q 22 171 22 182 q 58 63 22 106 q 144 19 93 19 q 329 108 244 19 q 442 267 403 188 q 494 381 481 347 q 579 583 521 436 q 639 676 601 638 q 725 724 676 715 l 649 724 q 383 660 428 724 q 371 623 371 640 q 375 592 371 606 q 417 540 388 554 q 415 531 425 536 q 400 528 406 526 q 356 567 382 538 q 318 644 318 611 q 340 703 318 678 q 428 739 361 728 q 644 757 524 757 q 650 757 649 757 l 818 757 q 813 736 831 758 q 790 715 794 714 q 777 715 786 715 q 743 710 768 715 q 707 696 718 704 q 763 428 715 594 q 868 119 811 263 q 950 340 885 161 q 1072 646 1015 519 q 1178 818 1129 772 q 1262 851 1214 851 q 1308 814 1310 851 m 589 -54 q 586 -72 589 -62 q 474 -215 569 -160 q 485 -193 476 -200 q 539 -107 529 -153 q 534 -81 543 -93 q 510 -65 525 -68 l 514 -51 q 544 -39 532 -51 q 564 -22 561 -22 q 589 -54 589 -26 z "},"":{"ha":458,"x_min":43,"x_max":533,"o":"m 468 360 q 445 308 468 342 q 376 183 422 275 q 331 66 331 90 q 351 42 331 42 q 403 67 371 42 q 462 122 436 93 q 531 204 488 151 q 533 192 533 200 q 515 160 533 183 q 396 26 444 64 q 308 -11 347 -11 q 264 33 264 -11 q 309 166 264 76 q 382 317 354 256 q 363 328 396 346 q 117 -3 204 229 q 80 -12 108 -3 q 52 -18 51 -22 q 58 -4 53 -14 q 80 47 63 6 q 122 153 97 89 q 188 314 171 275 q 54 156 114 235 q 44 158 44 142 q 51 178 44 169 q 203 376 150 300 q 283 396 272 386 q 297 406 294 406 q 301 400 300 406 q 292 384 301 394 q 183 188 283 374 q 339 342 250 275 q 432 383 396 383 q 468 360 468 383 m 224 -56 q 221 -74 224 -64 q 108 -217 204 -161 q 119 -194 111 -201 q 174 -108 164 -154 q 169 -82 178 -94 q 144 -67 160 -69 l 149 -53 q 178 -42 167 -53 q 199 -24 196 -24 q 224 -56 224 -28 z "},"":{"ha":1001,"x_min":8,"x_max":1308,"o":"m 1308 814 l 1307 764 l 1294 761 q 1282 785 1296 776 q 1254 794 1268 794 q 1097 606 1189 794 q 964 306 1019 449 q 899 140 908 163 q 889 101 889 118 q 894 58 889 82 q 886 24 900 35 q 859 8 872 14 q 829 -14 846 3 q 807 -39 813 -31 q 801 -43 804 -43 q 792 -35 793 -43 q 819 22 807 -14 q 689 493 790 181 q 643 639 656 599 q 608 567 629 629 q 481 261 558 418 q 364 76 429 156 q 272 13 333 39 q 163 -14 210 -14 q 78 11 117 -14 q 8 163 8 56 q 15 183 8 183 q 22 171 22 182 q 58 63 22 106 q 144 19 93 19 q 329 108 244 19 q 442 267 403 188 q 494 381 481 347 q 579 583 521 436 q 639 676 601 638 q 725 724 676 715 l 649 724 q 383 660 428 724 q 371 623 371 640 q 375 592 371 606 q 417 540 388 554 q 415 531 425 536 q 400 528 406 526 q 356 567 382 538 q 318 644 318 611 q 340 703 318 678 q 428 739 361 728 q 644 757 524 757 q 650 757 649 757 l 818 757 q 813 736 831 758 q 790 715 794 714 q 777 715 786 715 q 743 710 768 715 q 707 696 718 704 q 763 428 715 594 q 868 119 811 263 q 950 340 885 161 q 1072 646 1015 519 q 1178 818 1129 772 q 1262 851 1214 851 q 1308 814 1310 851 m 881 926 q 988 836 913 926 q 996 836 988 832 q 1056 880 1011 850 q 1113 915 1100 910 q 1139 917 1126 919 q 982 800 1038 849 l 965 800 q 871 897 932 856 q 846 908 853 908 l 846 913 l 881 926 z "},"":{"ha":458,"x_min":43,"x_max":544,"o":"m 468 360 q 445 308 468 342 q 376 183 422 275 q 331 66 331 90 q 351 42 331 42 q 403 67 371 42 q 462 122 436 93 q 531 204 488 151 q 533 192 533 200 q 515 160 533 183 q 396 26 444 64 q 308 -11 347 -11 q 264 33 264 -11 q 309 166 264 76 q 382 317 354 256 q 363 328 396 346 q 117 -3 204 229 q 84 -12 108 -3 q 56 -21 60 -21 q 56 -8 50 -21 q 80 47 63 6 q 122 153 97 89 q 188 314 171 275 q 54 156 114 235 q 44 158 44 142 q 51 178 44 169 q 203 376 150 300 q 286 399 272 386 q 301 400 300 411 q 292 384 301 394 q 183 188 283 374 q 339 342 250 275 q 432 383 396 383 q 468 360 468 383 m 286 550 q 393 460 318 550 q 401 460 393 456 q 461 503 417 474 q 519 538 506 533 q 544 540 532 543 q 388 424 443 472 l 371 424 q 276 521 338 479 q 251 532 258 532 l 251 536 l 286 550 z "},"":{"ha":1001,"x_min":8,"x_max":1308,"o":"m 1308 814 l 1307 764 l 1294 761 q 1282 785 1296 776 q 1256 794 1268 794 q 1184 749 1224 794 q 1104 620 1144 703 q 1031 461 1064 538 q 964 286 997 385 q 890 71 913 142 l 896 50 q 889 26 900 35 q 865 11 878 17 q 819 -102 850 -22 q 763 -242 788 -182 q 697 -379 739 -303 q 610 -506 654 -456 q 503 -590 567 -556 q 377 -625 440 -625 q 268 -592 314 -625 q 185 -396 185 -531 q 193 -370 185 -369 q 201 -385 201 -371 q 240 -511 201 -467 q 338 -556 279 -556 q 445 -535 396 -556 q 536 -475 494 -515 q 610 -394 578 -435 q 676 -290 643 -353 q 728 -183 708 -226 q 778 -73 749 -140 q 819 22 807 -6 q 689 493 790 181 q 643 639 656 599 q 608 567 629 629 q 481 261 558 418 q 364 76 429 156 q 272 13 333 39 q 163 -14 210 -14 q 78 11 117 -14 q 8 163 8 56 q 15 183 8 183 q 22 171 22 182 q 58 63 22 106 q 144 19 93 19 q 329 108 244 19 q 442 267 403 188 q 494 381 481 347 q 579 583 521 436 q 639 676 601 638 q 725 724 676 715 l 649 724 q 383 660 428 724 q 371 623 371 640 q 375 592 371 606 q 417 540 388 554 q 415 531 425 536 q 400 528 406 526 q 356 567 382 538 q 318 644 318 611 q 340 703 318 678 q 428 739 361 728 q 644 757 524 757 q 650 757 649 757 l 818 757 q 813 736 831 758 q 790 715 794 714 q 777 715 786 715 q 743 710 768 715 q 707 696 718 704 q 763 431 715 594 q 867 124 810 267 q 1043 582 1008 497 q 1178 818 1121 767 q 1262 851 1214 851 q 1308 814 1310 851 z "},"":{"ha":458,"x_min":-343,"x_max":533,"o":"m 468 360 q 445 308 468 342 q 376 183 422 275 q 331 66 331 90 q 351 42 331 42 q 403 67 371 42 q 462 122 436 93 q 531 204 488 151 q 533 192 533 200 q 515 160 533 183 q 396 26 444 64 q 308 -11 347 -11 q 292 -10 297 -11 q 192 -228 235 -153 q 88 -368 150 -303 q -37 -460 25 -433 q -154 -486 -99 -486 q -258 -461 -210 -486 q -343 -310 -343 -417 l -343 -286 q -326 -265 -343 -265 q -322 -268 -322 -265 l -326 -303 q -287 -399 -326 -365 q -191 -433 -247 -433 q -78 -410 -135 -433 q 31 -340 -21 -386 q 126 -228 83 -293 q 264 28 196 -124 q 307 164 260 65 q 382 317 354 256 q 363 328 396 346 q 117 -3 204 229 q 80 -12 108 -3 q 52 -18 51 -22 q 58 -4 53 -14 q 80 47 63 6 q 122 153 97 89 q 188 314 171 275 q 54 156 114 235 q 44 156 46 143 q 51 178 43 169 q 203 376 150 300 q 283 396 272 386 q 297 406 294 406 q 301 400 300 406 q 292 384 301 394 q 183 188 283 374 q 339 342 250 275 q 432 383 396 383 q 468 360 468 383 z "},"":{"ha":825,"x_min":10,"x_max":900,"o":"m 900 550 q 822 274 900 406 q 610 63 744 143 q 322 -17 476 -17 q 10 203 10 -17 q 103 483 10 336 q 215 624 150 561 q 376 728 281 688 q 581 769 472 769 q 823 716 746 769 q 900 550 900 663 m 821 563 q 583 749 821 749 q 347 654 465 749 q 156 429 228 560 q 83 190 83 299 q 311 4 83 4 q 567 90 447 4 q 754 305 688 176 q 821 563 821 433 m 847 858 l 633 846 q 619 856 628 846 q 615 874 611 867 q 733 881 642 881 q 856 867 831 881 q 856 863 857 867 q 847 858 854 858 z "},"":{"ha":368,"x_min":13,"x_max":486,"o":"m 388 332 q 313 149 388 257 q 260 88 283 110 q 429 190 351 88 q 436 185 436 197 q 431 167 436 174 q 269 68 360 68 q 244 69 257 68 q 69 -3 167 -3 q 13 46 13 -3 q 89 231 13 125 q 207 340 138 300 q 332 386 281 386 q 388 332 388 386 m 321 331 q 296 364 321 364 q 264 355 288 364 q 205 309 240 346 q 138 215 169 272 q 78 69 78 117 q 103 21 78 21 q 146 34 122 21 q 183 61 169 47 q 274 185 226 107 q 321 331 321 264 m 486 494 q 485 492 486 494 q 478 490 485 490 q 264 478 478 490 q 250 488 258 478 q 246 506 242 499 q 364 513 272 513 q 486 499 461 513 q 486 494 488 499 z "}}}
